<svg width="47" height="102" viewBox="0 0 47 102" fill="none" xmlns="http://www.w3.org/2000/svg">
    <path
        d="M58.4104 99.5325C72.5304 92.4435 73.6564 66.1665 60.9394 40.8545C48.2324 15.5335 26.4844 0.755499 12.3644 7.8435C-1.73659 14.9335 -2.87158 41.2005 9.83542 66.5215C22.5524 91.8345 44.3004 106.612 58.4104 99.5325Z"
        fill="#06316A" />
    <path
        d="M58.4104 99.5325C72.5304 92.4435 73.6564 66.1665 60.9394 40.8545C48.2324 15.5335 26.4844 0.755499 12.3644 7.8435C-1.73659 14.9335 -2.87158 41.2005 9.83542 66.5215C22.5524 91.8345 44.3004 106.612 58.4104 99.5325Z"
        stroke="#000D1E" stroke-width="0.7425" stroke-miterlimit="10" />
    <path
        d="M20.1404 8.73749C20.1364 8.73749 20.1314 8.73749 20.1264 8.73749H20.1244C20.1114 8.73749 20.0984 8.73749 20.0844 8.73749C19.8044 8.73849 19.5774 8.96549 19.5784 9.24649C19.5794 9.52649 19.8064 9.75348 20.0864 9.75348H20.0874H20.1394C20.4194 9.75348 20.6474 9.52548 20.6474 9.24548C20.6474 8.96548 20.4204 8.73949 20.1414 8.73849L20.1404 8.73749ZM15.3274 9.52148C15.2734 9.52148 15.2174 9.53049 15.1634 9.54849C15.1484 9.55349 15.1334 9.55848 15.1184 9.56448H15.1174C15.1154 9.56548 15.1134 9.5655 15.1114 9.5665C15.1114 9.5665 15.1094 9.5675 15.1074 9.5675C14.8424 9.6595 14.7034 9.9495 14.7964 10.2135C14.8704 10.4225 15.0664 10.5535 15.2764 10.5535C15.3324 10.5535 15.3884 10.5445 15.4434 10.5245L15.4914 10.5075C15.7564 10.4155 15.8964 10.1255 15.8044 9.8605C15.7324 9.6525 15.5364 9.52148 15.3274 9.52148ZM11.0954 11.9135C10.9824 11.9135 10.8684 11.9515 10.7734 12.0295C10.7654 12.0365 10.7564 12.0435 10.7474 12.0505C10.7404 12.0555 10.7344 12.0615 10.7284 12.0665C10.5134 12.2465 10.4844 12.5665 10.6644 12.7805C10.7654 12.9005 10.9094 12.9625 11.0544 12.9625C11.1694 12.9625 11.2854 12.9235 11.3804 12.8445L11.4194 12.8115C11.6344 12.6315 11.6634 12.3115 11.4844 12.0955C11.3844 11.9765 11.2404 11.9135 11.0954 11.9135ZM7.88638 15.6075C7.71938 15.6075 7.55638 15.6895 7.45938 15.8405C7.44838 15.8575 7.43737 15.8745 7.42737 15.8915C7.27937 16.1275 7.34939 16.4395 7.58539 16.5895C7.66939 16.6425 7.76338 16.6685 7.85638 16.6685C8.02438 16.6685 8.18938 16.5855 8.28638 16.4325L8.31439 16.3885C8.46439 16.1515 8.39439 15.8375 8.15839 15.6875C8.07439 15.6335 7.97938 15.6075 7.88638 15.6075ZM5.75037 20.0655C5.54237 20.0655 5.34738 20.1945 5.27338 20.4015C5.26838 20.4165 5.26339 20.4305 5.25739 20.4465C5.25639 20.4495 5.25539 20.4535 5.25339 20.4565C5.16039 20.7205 5.29939 21.0105 5.56439 21.1035C5.61939 21.1235 5.67639 21.1325 5.73239 21.1325C5.94239 21.1325 6.13837 21.0015 6.21136 20.7925L6.22839 20.7425C6.32139 20.4785 6.18237 20.1875 5.91837 20.0945C5.86337 20.0745 5.80637 20.0655 5.75037 20.0655ZM4.50638 24.8885C4.26438 24.8885 4.05039 25.0615 4.00739 25.3085C4.00739 25.3105 4.00738 25.3115 4.00638 25.3135C4.00338 25.3305 4.00038 25.3475 3.99738 25.3645C3.95038 25.6405 4.13437 25.9025 4.41037 25.9505C4.43937 25.9555 4.46938 25.9585 4.49838 25.9585C4.74038 25.9585 4.95538 25.7845 4.99838 25.5375L5.00739 25.4845C5.05539 25.2085 4.87137 24.9455 4.59537 24.8965C4.56537 24.8905 4.53538 24.8885 4.50638 24.8885ZM3.96338 29.8635C3.69538 29.8635 3.47137 30.0735 3.45737 30.3435C3.45737 30.3505 3.45639 30.3575 3.45639 30.3655C3.45639 30.3775 3.45538 30.3895 3.45438 30.4015C3.44038 30.6815 3.65738 30.9195 3.93738 30.9325C3.94538 30.9325 3.95437 30.9335 3.96237 30.9335C4.23137 30.9335 4.45639 30.7215 4.46939 30.4505L4.47238 30.3975C4.48538 30.1175 4.26938 29.8795 3.98938 29.8655C3.98038 29.8635 3.97138 29.8635 3.96338 29.8635ZM3.97839 34.8795C3.96939 34.8795 3.96039 34.8795 3.95239 34.8805C3.67239 34.8945 3.45737 35.1335 3.47137 35.4135C3.47237 35.4315 3.47337 35.4495 3.47437 35.4685C3.48837 35.7395 3.71238 35.9495 3.98038 35.9495C3.98938 35.9495 3.99839 35.9495 4.00739 35.9485C4.28739 35.9335 4.50237 35.6955 4.48837 35.4155L4.48538 35.3615C4.47138 35.0905 4.24639 34.8795 3.97839 34.8795ZM4.45139 39.8835C4.42839 39.8835 4.40539 39.8845 4.38239 39.8885C4.10539 39.9265 3.91139 40.1805 3.94739 40.4565C3.94839 40.4675 3.95039 40.4785 3.95139 40.4885C3.95239 40.4965 3.95338 40.5055 3.95438 40.5135C3.98938 40.7685 4.20639 40.9525 4.45639 40.9525C4.47939 40.9525 4.50239 40.9515 4.52539 40.9475C4.80339 40.9095 4.99738 40.6535 4.95938 40.3755L4.95239 40.3225C4.91939 40.0685 4.70139 39.8835 4.45139 39.8835ZM5.31439 44.8395C5.27939 44.8395 5.24438 44.8435 5.20938 44.8505C4.93538 44.9085 4.76038 45.1765 4.81738 45.4505C4.81938 45.4585 4.8214 45.4695 4.8234 45.4775C4.82539 45.4865 4.82738 45.4965 4.82938 45.5055C4.88038 45.7445 5.09038 45.9075 5.32538 45.9075C5.36038 45.9075 5.39537 45.9035 5.43137 45.8965C5.70537 45.8385 5.88039 45.5685 5.82239 45.2945L5.81137 45.2415C5.76037 45.0035 5.54939 44.8395 5.31439 44.8395ZM6.52139 49.7295C6.47539 49.7295 6.42939 49.7355 6.38339 49.7485C6.11339 49.8245 5.95638 50.1045 6.03238 50.3745C6.03738 50.3925 6.04239 50.4095 6.04739 50.4275C6.11039 50.6515 6.31437 50.7975 6.53537 50.7975C6.58137 50.7975 6.62737 50.7915 6.67337 50.7785C6.94337 50.7025 7.10038 50.4215 7.02438 50.1525L7.00937 50.1005C6.94737 49.8755 6.74339 49.7295 6.52139 49.7295ZM8.03638 54.5335C7.98138 54.5335 7.92439 54.5425 7.86939 54.5625C7.60539 54.6545 7.46537 54.9435 7.55737 55.2075C7.56337 55.2245 7.57039 55.2445 7.57639 55.2615C7.64939 55.4705 7.84539 55.6005 8.05539 55.6005C8.11139 55.6005 8.16739 55.5915 8.22339 55.5715C8.48839 55.4785 8.62737 55.1895 8.53537 54.9245L8.51736 54.8735C8.44337 54.6645 8.24638 54.5335 8.03638 54.5335ZM9.83539 59.2405C9.77039 59.2405 9.70439 59.2535 9.64139 59.2795C9.38339 59.3865 9.26039 59.6825 9.36639 59.9405C9.36939 59.9475 9.37337 59.9585 9.37637 59.9655C9.37837 59.9715 9.38139 59.9765 9.38339 59.9825C9.38539 59.9865 9.38737 59.9915 9.38937 59.9965C9.47137 60.1905 9.65939 60.3065 9.85739 60.3065C9.92239 60.3065 9.98837 60.2935 10.0524 60.2675C10.3114 60.1595 10.4334 59.8625 10.3264 59.6035L10.3054 59.5535C10.2234 59.3585 10.0344 59.2405 9.83539 59.2405ZM11.9004 63.8415C11.8264 63.8415 11.7514 63.8575 11.6794 63.8925C11.4274 64.0145 11.3214 64.3165 11.4424 64.5685C11.4454 64.5745 11.4484 64.5805 11.4514 64.5865C11.4564 64.5975 11.4624 64.6085 11.4674 64.6195C11.5544 64.8005 11.7364 64.9065 11.9244 64.9065C11.9984 64.9065 12.0734 64.8905 12.1454 64.8555C12.3974 64.7335 12.5034 64.4295 12.3814 64.1775L12.3574 64.1285C12.2704 63.9465 12.0894 63.8415 11.9004 63.8415ZM14.2174 68.3175C14.1344 68.3175 14.0494 68.3385 13.9714 68.3815C13.7264 68.5175 13.6374 68.8265 13.7734 69.0715C13.7804 69.0845 13.7884 69.0985 13.7954 69.1105C13.7964 69.1135 13.7984 69.1165 13.8004 69.1195C13.8934 69.2865 14.0664 69.3815 14.2444 69.3815C14.3274 69.3815 14.4124 69.3605 14.4904 69.3175C14.7354 69.1815 14.8244 68.8725 14.6884 68.6275L14.6624 68.5805C14.5694 68.4115 14.3964 68.3175 14.2174 68.3175ZM16.7854 72.6545C16.6924 72.6545 16.5994 72.6795 16.5144 72.7335C16.2774 72.8835 16.2064 73.1965 16.3564 73.4335C16.3624 73.4435 16.3694 73.4545 16.3764 73.4645C16.3804 73.4695 16.3844 73.4765 16.3874 73.4815C16.4844 73.6325 16.6474 73.7155 16.8154 73.7155C16.9084 73.7155 17.0024 73.6905 17.0864 73.6365C17.3234 73.4865 17.3934 73.1725 17.2444 72.9355L17.2154 72.8895C17.1184 72.7385 16.9534 72.6545 16.7854 72.6545ZM19.6044 76.8295C19.5014 76.8295 19.3974 76.8605 19.3084 76.9255C19.0814 77.0895 19.0294 77.4065 19.1934 77.6345C19.2044 77.6495 19.2154 77.6645 19.2254 77.6795C19.3244 77.8165 19.4794 77.8895 19.6374 77.8895C19.7404 77.8895 19.8444 77.8585 19.9344 77.7935C20.1614 77.6295 20.2134 77.3125 20.0494 77.0845L20.0174 77.0405C19.9174 76.9035 19.7624 76.8295 19.6044 76.8295ZM22.6804 80.8175C22.5664 80.8175 22.4524 80.8555 22.3574 80.9335C22.1414 81.1125 22.1104 81.4315 22.2894 81.6485C22.2924 81.6515 22.2944 81.6555 22.2974 81.6585L22.2984 81.6595C22.3074 81.6695 22.3154 81.6805 22.3244 81.6905C22.4244 81.8115 22.5694 81.8745 22.7154 81.8745C22.8294 81.8745 22.9434 81.8365 23.0384 81.7585C23.2544 81.5795 23.2844 81.2595 23.1064 81.0435L23.0714 81.0015C22.9714 80.8795 22.8264 80.8175 22.6804 80.8175ZM26.0214 84.5805C25.8954 84.5805 25.7684 84.6275 25.6704 84.7215C25.4674 84.9155 25.4604 85.2365 25.6544 85.4395C25.6674 85.4525 25.6794 85.4665 25.6924 85.4795C25.7924 85.5835 25.9254 85.6365 26.0594 85.6365C26.1854 85.6365 26.3114 85.5895 26.4104 85.4955C26.6134 85.3015 26.6194 84.9805 26.4264 84.7775L26.3884 84.7385C26.2884 84.6335 26.1554 84.5805 26.0214 84.5805ZM29.6384 88.0715C29.4984 88.0715 29.3584 88.1295 29.2584 88.2425C29.0724 88.4525 29.0914 88.7735 29.3014 88.9585C29.3154 88.9705 29.3284 88.9825 29.3424 88.9945C29.4394 89.0805 29.5594 89.1225 29.6784 89.1225C29.8184 89.1225 29.9584 89.0645 30.0584 88.9515C30.2444 88.7415 30.2244 88.4205 30.0144 88.2345L29.9744 88.1985C29.8784 88.1135 29.7584 88.0715 29.6384 88.0715ZM33.5484 91.2165C33.3914 91.2165 33.2354 91.2895 33.1364 91.4265C32.9724 91.6535 33.0224 91.9705 33.2504 92.1355C33.2654 92.1465 33.2804 92.1565 33.2954 92.1675C33.3854 92.2325 33.4894 92.2635 33.5924 92.2635C33.7494 92.2635 33.9044 92.1905 34.0044 92.0535C34.1684 91.8265 34.1174 91.5085 33.8904 91.3445L33.8464 91.3125C33.7564 91.2475 33.6524 91.2165 33.5484 91.2165ZM37.7674 93.9085C37.5884 93.9085 37.4144 94.0035 37.3224 94.1715C37.1874 94.4175 37.2764 94.7255 37.5224 94.8605C37.5384 94.8695 37.5544 94.8785 37.5704 94.8875C37.6474 94.9305 37.7314 94.9505 37.8144 94.9505C37.9934 94.9505 38.1674 94.8555 38.2594 94.6875C38.3944 94.4415 38.3054 94.1335 38.0594 93.9975L38.0124 93.9715C37.9344 93.9295 37.8504 93.9085 37.7674 93.9085ZM42.3014 95.9745C42.0924 95.9745 41.8974 96.1045 41.8224 96.3115C41.7284 96.5755 41.8654 96.8655 42.1304 96.9595C42.1474 96.9655 42.1654 96.9715 42.1824 96.9785C42.2384 96.9985 42.2964 97.0075 42.3524 97.0075C42.5614 97.0075 42.7564 96.8775 42.8304 96.6695C42.9244 96.4055 42.7864 96.1145 42.5214 96.0205L42.4714 96.0025C42.4154 95.9845 42.3574 95.9745 42.3014 95.9745ZM47.1084 97.1415C46.8554 97.1415 46.6354 97.3305 46.6044 97.5885C46.5704 97.8665 46.7694 98.1195 47.0474 98.1525C47.0654 98.1545 47.0834 98.1565 47.1024 98.1595C47.1224 98.1625 47.1434 98.1635 47.1634 98.1635C47.4164 98.1635 47.6354 97.9745 47.6664 97.7165C47.6994 97.4385 47.5004 97.1855 47.2224 97.1515L47.1704 97.1455C47.1494 97.1425 47.1284 97.1415 47.1084 97.1415ZM52.0554 97.0155C52.0244 97.0155 51.9934 97.0185 51.9614 97.0245L51.9114 97.0335C51.6354 97.0845 51.4534 97.3495 51.5044 97.6255C51.5494 97.8695 51.7624 98.0405 52.0024 98.0405C52.0314 98.0405 52.0614 98.0375 52.0914 98.0325C52.1034 98.0305 52.1144 98.0285 52.1264 98.0255C52.1344 98.0245 52.1414 98.0225 52.1494 98.0215C52.4254 97.9705 52.6064 97.7055 52.5544 97.4295C52.5084 97.1855 52.2954 97.0155 52.0554 97.0155ZM56.6004 95.2875C56.5114 95.2875 56.4204 95.3115 56.3384 95.3605L56.2944 95.3865C56.0544 95.5315 55.9764 95.8435 56.1204 96.0835C56.2154 96.2425 56.3834 96.3295 56.5554 96.3295C56.6444 96.3295 56.7344 96.3065 56.8164 96.2565C56.8204 96.2545 56.8234 96.2525 56.8274 96.2495L56.8294 96.2485L56.8334 96.2465C56.8424 96.2415 56.8504 96.2365 56.8594 96.2315C56.8614 96.2305 56.8634 96.2295 56.8654 96.2275C57.1044 96.0825 57.1814 95.7715 57.0364 95.5325C56.9404 95.3755 56.7724 95.2875 56.6004 95.2875ZM60.2704 92.0795C60.1234 92.0795 59.9784 92.1425 59.8774 92.2645L59.8444 92.3045C59.6664 92.5205 59.6964 92.8405 59.9124 93.0195C60.0074 93.0975 60.1214 93.1355 60.2354 93.1355C60.3804 93.1355 60.5254 93.0735 60.6254 92.9535C60.6294 92.9485 60.6334 92.9445 60.6374 92.9395C60.6454 92.9295 60.6544 92.9195 60.6624 92.9095C60.8404 92.6935 60.8094 92.3735 60.5934 92.1955C60.4984 92.1175 60.3844 92.0795 60.2704 92.0795ZM62.8424 87.8825C62.6494 87.8825 62.4644 87.9935 62.3794 88.1805L62.3574 88.2285C62.2414 88.4835 62.3534 88.7845 62.6084 88.9015C62.6764 88.9325 62.7484 88.9475 62.8184 88.9475C63.0104 88.9475 63.1944 88.8375 63.2794 88.6505C63.2874 88.6325 63.2954 88.6155 63.3034 88.5975C63.4184 88.3425 63.3054 88.0435 63.0504 87.9275C62.9844 87.8975 62.9134 87.8825 62.8424 87.8825ZM64.4364 83.1775C64.2074 83.1775 63.9994 83.3335 63.9434 83.5655L63.9304 83.6165C63.8644 83.8885 64.0314 84.1635 64.3034 84.2295C64.3434 84.2395 64.3844 84.2435 64.4244 84.2435C64.6524 84.2435 64.8604 84.0885 64.9164 83.8555C64.9174 83.8525 64.9184 83.8485 64.9194 83.8455C64.9224 83.8315 64.9264 83.8145 64.9304 83.7995C64.9944 83.5285 64.8274 83.2555 64.5564 83.1895C64.5154 83.1825 64.4754 83.1775 64.4364 83.1775ZM65.2524 78.2505C64.9944 78.2505 64.7734 78.4465 64.7474 78.7085L64.7424 78.7625C64.7154 79.0415 64.9184 79.2905 65.1974 79.3175C65.2144 79.3195 65.2314 79.3205 65.2484 79.3205C65.5064 79.3205 65.7264 79.1255 65.7524 78.8635C65.7524 78.8595 65.7534 78.8555 65.7534 78.8515C65.7544 78.8375 65.7564 78.8205 65.7574 78.8075C65.7834 78.5295 65.5804 78.2815 65.3014 78.2545C65.2864 78.2515 65.2694 78.2505 65.2524 78.2505ZM65.4594 73.2425C65.4574 73.2425 65.4554 73.2425 65.4534 73.2425C65.1734 73.2455 64.9484 73.4755 64.9514 73.7565V73.8105C64.9544 74.0895 65.1814 74.3125 65.4594 74.3125C65.4614 74.3125 65.4644 74.3125 65.4644 74.3125C65.7434 74.3095 65.9684 74.0815 65.9664 73.8025C65.9664 73.7955 65.9664 73.7885 65.9664 73.7805C65.9664 73.7685 65.9664 73.7565 65.9664 73.7455C65.9634 73.4655 65.7364 73.2425 65.4594 73.2425ZM65.1694 68.2275C65.1524 68.2275 65.1344 68.2285 65.1174 68.2305C64.8384 68.2595 64.6354 68.5085 64.6634 68.7875L64.6684 68.8415C64.6954 69.1035 64.9154 69.2985 65.1734 69.2985C65.1904 69.2985 65.2074 69.2975 65.2254 69.2955C65.5044 69.2675 65.7074 69.0185 65.6794 68.7395C65.6774 68.7215 65.6754 68.7035 65.6744 68.6855C65.6744 68.6855 65.6744 68.6865 65.6744 68.6845C65.6464 68.4225 65.4264 68.2275 65.1694 68.2275ZM64.4614 63.2485C64.4314 63.2485 64.4014 63.2515 64.3704 63.2565C64.0944 63.3065 63.9114 63.5705 63.9614 63.8465L63.9714 63.8995C64.0154 64.1455 64.2294 64.3175 64.4704 64.3175C64.5004 64.3175 64.5304 64.3145 64.5614 64.3095C64.8374 64.2595 65.0204 63.9965 64.9704 63.7205L64.9694 63.7155C64.9674 63.7045 64.9654 63.6935 64.9634 63.6825C64.9624 63.6755 64.9614 63.6685 64.9594 63.6625C64.9144 63.4195 64.7014 63.2485 64.4614 63.2485ZM63.3924 58.3295C63.3514 58.3295 63.3094 58.3345 63.2674 58.3455C62.9954 58.4145 62.8314 58.6905 62.8994 58.9625L62.9124 59.0145C62.9704 59.2445 63.1774 59.3985 63.4044 59.3985C63.4454 59.3985 63.4874 59.3935 63.5284 59.3825C63.8004 59.3135 63.9644 59.0375 63.8964 58.7665C63.8954 58.7625 63.8944 58.7585 63.8934 58.7545C63.8894 58.7405 63.8864 58.7265 63.8834 58.7125C63.8254 58.4825 63.6194 58.3295 63.3924 58.3295ZM62.0014 53.4885C61.9504 53.4885 61.8974 53.4965 61.8464 53.5135C61.5794 53.5995 61.4324 53.8855 61.5184 54.1525L61.5354 54.2045C61.6044 54.4205 61.8044 54.5575 62.0184 54.5575C62.0694 54.5575 62.1224 54.5495 62.1734 54.5335C62.4404 54.4475 62.5874 54.1625 62.5014 53.8955C62.5004 53.8925 62.4994 53.8885 62.4984 53.8855C62.4934 53.8695 62.4894 53.8565 62.4844 53.8405C62.4144 53.6255 62.2154 53.4885 62.0014 53.4885ZM60.3174 48.7395C60.2564 48.7395 60.1944 48.7505 60.1344 48.7745C59.8734 48.8755 59.7434 49.1695 59.8444 49.4315L59.8644 49.4825C59.9424 49.6835 60.1344 49.8065 60.3384 49.8065C60.3994 49.8065 60.4614 49.7955 60.5214 49.7725C60.7824 49.6715 60.9114 49.3795 60.8124 49.1185C60.8054 49.1005 60.7984 49.0825 60.7914 49.0645C60.7124 48.8625 60.5204 48.7395 60.3174 48.7395ZM58.3604 44.0935C58.2904 44.0935 58.2184 44.1085 58.1504 44.1395C57.8954 44.2555 57.7824 44.5565 57.8984 44.8115L57.9204 44.8615C58.0054 45.0485 58.1904 45.1595 58.3834 45.1595C58.4534 45.1595 58.5244 45.1445 58.5934 45.1135C58.8484 44.9975 58.9614 44.6965 58.8454 44.4415C58.8414 44.4335 58.8384 44.4255 58.8344 44.4175C58.8304 44.4085 58.8254 44.3975 58.8214 44.3895C58.7364 44.2035 58.5524 44.0935 58.3604 44.0935ZM56.1484 39.5625C56.0694 39.5625 55.9884 39.5815 55.9134 39.6205C55.6644 39.7505 55.5684 40.0575 55.6984 40.3055L55.7234 40.3535C55.8134 40.5265 55.9904 40.6265 56.1734 40.6265C56.2524 40.6265 56.3334 40.6075 56.4074 40.5685C56.6554 40.4385 56.7524 40.1325 56.6224 39.8835C56.6204 39.8795 56.6184 39.8755 56.6164 39.8715C56.6094 39.8585 56.6024 39.8455 56.5964 39.8325C56.5064 39.6605 56.3304 39.5625 56.1484 39.5625ZM53.6874 35.1625C53.5984 35.1625 53.5094 35.1855 53.4274 35.2345C53.1864 35.3785 53.1084 35.6905 53.2514 35.9305L53.2794 35.9775C53.3744 36.1365 53.5424 36.2245 53.7154 36.2245C53.8044 36.2245 53.8934 36.2015 53.9754 36.1525C54.2154 36.0085 54.2944 35.6985 54.1514 35.4575C54.1444 35.4465 54.1384 35.4355 54.1314 35.4235C54.1284 35.4185 54.1254 35.4135 54.1224 35.4085C54.0284 35.2515 53.8604 35.1625 53.6874 35.1625ZM50.9764 30.9155C50.8784 30.9155 50.7784 30.9445 50.6914 31.0035C50.4594 31.1615 50.3994 31.4775 50.5574 31.7085L50.5884 31.7535C50.6864 31.8975 50.8464 31.9755 51.0084 31.9755C51.1064 31.9755 51.2064 31.9465 51.2934 31.8875C51.5254 31.7295 51.5854 31.4145 51.4274 31.1825C51.4174 31.1675 51.4064 31.1525 51.3964 31.1365C51.2984 30.9935 51.1384 30.9155 50.9764 30.9155ZM48.0114 26.8455C47.9024 26.8455 47.7924 26.8805 47.7004 26.9525C47.4794 27.1245 47.4394 27.4435 47.6114 27.6655L47.6444 27.7085C47.7444 27.8375 47.8944 27.9045 48.0454 27.9045C48.1544 27.9045 48.2644 27.8695 48.3564 27.7975C48.5774 27.6255 48.6174 27.3075 48.4454 27.0855L48.4434 27.0825C48.4324 27.0685 48.4214 27.0545 48.4114 27.0415C48.3114 26.9125 48.1624 26.8455 48.0114 26.8455ZM44.7844 22.9815C44.6634 22.9815 44.5424 23.0245 44.4454 23.1115C44.2364 23.2985 44.2194 23.6195 44.4064 23.8285L44.4424 23.8685C44.5424 23.9805 44.6814 24.0375 44.8204 24.0375C44.9414 24.0375 45.0624 23.9945 45.1594 23.9085C45.3684 23.7215 45.3854 23.4005 45.1984 23.1915C45.1954 23.1885 45.1924 23.1845 45.1894 23.1815C45.1804 23.1705 45.1704 23.1605 45.1614 23.1495C45.0614 23.0385 44.9234 22.9815 44.7844 22.9815ZM41.2854 19.3685C41.1514 19.3685 41.0174 19.4215 40.9184 19.5255C40.7244 19.7285 40.7324 20.0495 40.9354 20.2435L40.9744 20.2805C41.0724 20.3745 41.1994 20.4205 41.3254 20.4205C41.4594 20.4205 41.5934 20.3675 41.6924 20.2635C41.8864 20.0605 41.8784 19.7395 41.6754 19.5465C41.6654 19.5365 41.6554 19.5275 41.6444 19.5175C41.6414 19.5145 41.6374 19.5105 41.6344 19.5075C41.5364 19.4145 41.4114 19.3685 41.2854 19.3685ZM37.5024 16.0675C37.3524 16.0675 37.2044 16.1335 37.1044 16.2595C36.9304 16.4795 36.9674 16.7985 37.1864 16.9725L37.2284 17.0055C37.3214 17.0795 37.4334 17.1155 37.5434 17.1155C37.6934 17.1155 37.8414 17.0495 37.9414 16.9235C38.1154 16.7045 38.0794 16.3845 37.8594 16.2105C37.8514 16.2045 37.8434 16.1985 37.8364 16.1915C37.8284 16.1855 37.8224 16.1805 37.8154 16.1745C37.7224 16.1025 37.6124 16.0675 37.5024 16.0675ZM33.4154 13.1675C33.2464 13.1675 33.0814 13.2515 32.9854 13.4055C32.8364 13.6435 32.9084 13.9565 33.1464 14.1055L33.1914 14.1335C33.2754 14.1865 33.3684 14.2115 33.4604 14.2115C33.6294 14.2115 33.7944 14.1275 33.8914 13.9735C34.0404 13.7365 33.9694 13.4245 33.7334 13.2755C33.7164 13.2645 33.6994 13.2535 33.6814 13.2435C33.5984 13.1915 33.5064 13.1675 33.4154 13.1675ZM29.0124 10.8115C28.8174 10.8115 28.6324 10.9245 28.5484 11.1135C28.4354 11.3695 28.5504 11.6695 28.8074 11.7835L28.8564 11.8055C28.9234 11.8355 28.9934 11.8495 29.0624 11.8495C29.2574 11.8495 29.4424 11.7365 29.5274 11.5475C29.6404 11.2925 29.5264 10.9935 29.2724 10.8795C29.2544 10.8715 29.2344 10.8625 29.2164 10.8545C29.1494 10.8255 29.0804 10.8115 29.0124 10.8115ZM24.3074 9.2265C24.0764 9.2265 23.8674 9.38649 23.8134 9.62149C23.7514 9.89449 23.9224 10.1675 24.1964 10.2295L24.2474 10.2415C24.2854 10.2505 24.3234 10.2545 24.3604 10.2545C24.5924 10.2545 24.8014 10.0945 24.8554 9.8595C24.9184 9.5875 24.7484 9.3165 24.4764 9.2525C24.4564 9.2475 24.4374 9.2435 24.4174 9.2395C24.3804 9.2305 24.3434 9.2265 24.3074 9.2265Z"
        fill="#000D1E" />
    <path
        d="M59.5704 98.8835C62.3364 97.6785 64.5314 96.6595 66.0004 95.9155C79.9974 88.8925 80.8614 62.3365 67.9354 36.5965C55.0094 10.8565 33.1924 -4.3065 19.1954 2.7165C17.3694 3.6275 14.4984 5.69349 10.9464 8.65049C11.4114 8.35849 11.8754 8.08452 12.3644 7.84352C26.4844 0.754518 48.2324 15.5325 60.9394 40.8545C73.3024 65.4525 72.5824 90.9575 59.5704 98.8835Z"
        fill="#06316A" />
    <path
        d="M59.5704 98.8835C62.3364 97.6785 64.5314 96.6595 66.0004 95.9155C79.9974 88.8925 80.8614 62.3365 67.9354 36.5965C55.0094 10.8565 33.1924 -4.3065 19.1954 2.7165C17.3694 3.6275 14.4984 5.69349 10.9464 8.65049C11.4114 8.35849 11.8754 8.08452 12.3644 7.84352C26.4844 0.754518 48.2324 15.5325 60.9394 40.8545C73.3024 65.4525 72.5824 90.9575 59.5704 98.8835Z"
        stroke="#000D1E" stroke-width="0.7435" stroke-miterlimit="10" />
    <path
        d="M53.2994 93.9525C64.8654 88.7935 65.7434 66.9695 55.2704 45.2195C44.8064 23.4625 26.9474 10.0095 15.3824 15.1685C3.8324 20.3305 2.94739 42.1445 13.4114 63.9015C23.8834 85.6515 41.7424 99.1045 53.2994 93.9525Z"
        fill="#06316A" />
    <path
        d="M53.2994 93.9525C64.8654 88.7935 65.7434 66.9695 55.2704 45.2195C44.8064 23.4625 26.9474 10.0095 15.3824 15.1685C3.8324 20.3305 2.94739 42.1445 13.4114 63.9015C23.8834 85.6515 41.7424 99.1045 53.2994 93.9525Z"
        stroke="#000D1E" stroke-width="0.7425" stroke-miterlimit="10" />
    <path
        d="M40.7404 93.5345C32.1334 88.6495 23.2764 78.6345 17.0224 65.6645C6.56338 43.9115 7.4454 22.0955 18.9994 16.9285C22.6804 15.2925 27.0054 15.5425 31.5334 17.3345C25.7324 14.0295 20.0524 13.0915 15.3784 15.1705C3.8354 20.3285 2.95339 42.1445 13.4124 63.8975C20.5484 78.6995 31.1014 89.6695 40.7404 93.5345Z"
        fill="#000D1E" />
    <g opacity="0.2">
        <mask id="mask0_1_1268" style="mask-type:luminance" maskUnits="userSpaceOnUse" x="1" y="6" width="69"
            height="96">
            <path
                d="M58.4104 99.5325C72.5304 92.4435 73.6564 66.1665 60.9394 40.8545C48.2324 15.5335 26.4844 0.755499 12.3644 7.8435C-1.73659 14.9335 -2.87158 41.2005 9.83542 66.5215C22.5524 91.8345 44.3004 106.612 58.4104 99.5325Z"
                fill="white" />
        </mask>
        <g mask="url(#mask0_1_1268)">
            <path d="M98.4609 96.6112L102.607 89.7124L-23.3011 14.0442L-27.4471 20.943L98.4609 96.6112Z"
                fill="#000D1E" />
            <path d="M81.7441 120.673L85.8901 113.774L-40.0178 38.1057L-44.1639 45.0045L81.7441 120.673Z"
                fill="#000D1E" />
            <path d="M95.784 62.6578L99.9301 55.759L-25.9779 -19.9092L-30.124 -13.0104L95.784 62.6578Z"
                fill="#000D1E" />
            <path d="M95.9196 82.3217L101.798 72.5405L-24.11 -3.12773L-29.9884 6.65351L95.9196 82.3217Z"
                fill="#000D1E" />
            <path d="M93.48 113.132L99.3583 103.351L-26.5497 27.6824L-32.428 37.4636L93.48 113.132Z" fill="#000D1E" />
        </g>
    </g>
</svg>