<svg width="70" height="105" viewBox="0 0 70 105" fill="none" xmlns="http://www.w3.org/2000/svg">
    <path
        d="M50.4641 101.521C35.0461 104.97 17.5421 85.3385 11.3661 57.6925C5.17711 30.0465 12.6611 4.83954 28.0791 1.39054C43.4841 -2.04546 60.9881 17.5725 67.1771 45.2185C73.3531 72.8655 65.8691 98.0715 50.4641 101.521Z"
        fill="#06316A" />
    <path
        d="M50.4641 101.521C35.0461 104.97 17.5421 85.3385 11.3661 57.6925C5.17711 30.0465 12.6611 4.83954 28.0791 1.39054C43.4841 -2.04546 60.9881 17.5725 67.1771 45.2185C73.3531 72.8655 65.8691 98.0715 50.4641 101.521Z"
        stroke="#000D1E" stroke-width="0.7425" stroke-miterlimit="10" />
    <path
        d="M31.8441 3.62354C31.8241 3.62354 31.8041 3.62354 31.7841 3.62354C31.5061 3.62654 31.2821 3.85354 31.2831 4.13254C31.2841 4.41254 31.5121 4.63953 31.7921 4.63953H31.8441C32.1241 4.63853 32.3521 4.41153 32.3521 4.13053C32.3521 3.85053 32.1261 3.62454 31.8461 3.62354C31.8451 3.62354 31.8441 3.62354 31.8441 3.62354ZM27.0611 4.49053C27.0011 4.49053 26.9411 4.50154 26.8811 4.52354C26.8791 4.52454 26.8771 4.52454 26.8761 4.52554C26.8621 4.53054 26.8471 4.53653 26.8331 4.54153C26.8321 4.54253 26.8311 4.54253 26.8301 4.54253C26.5681 4.64153 26.4361 4.93453 26.5361 5.19653C26.6131 5.39953 26.8071 5.52454 27.0111 5.52454C27.0711 5.52454 27.1321 5.51353 27.1911 5.49153L27.2391 5.47353C27.5011 5.37453 27.6341 5.08053 27.5351 4.81853C27.4591 4.61553 27.2661 4.49053 27.0611 4.49053ZM22.8561 6.96454C22.7421 6.96454 22.6271 7.00253 22.5321 7.08153C22.5241 7.08853 22.5151 7.09554 22.5071 7.10254L22.5061 7.10353C22.5051 7.10453 22.5051 7.10453 22.5041 7.10553C22.4981 7.11053 22.4941 7.11453 22.4881 7.11853C22.2751 7.29853 22.2471 7.61654 22.4261 7.83054C22.5271 7.95054 22.6711 8.01353 22.8171 8.01353C22.9321 8.01353 23.0471 7.97454 23.1421 7.89554L23.1821 7.86253C23.3971 7.68353 23.4271 7.36254 23.2481 7.14754C23.1461 7.02654 23.0021 6.96454 22.8561 6.96454ZM19.5181 10.5885C19.3611 10.5885 19.2071 10.6615 19.1081 10.7975C19.0971 10.8135 19.0841 10.8305 19.0731 10.8465C18.9111 11.0745 18.9631 11.3895 19.1911 11.5525C19.2811 11.6165 19.3841 11.6475 19.4871 11.6475C19.6451 11.6475 19.8011 11.5745 19.9001 11.4365L19.9311 11.3935C20.0951 11.1655 20.0431 10.8485 19.8151 10.6845C19.7241 10.6205 19.6211 10.5885 19.5181 10.5885ZM17.0141 14.8815C16.8241 14.8815 16.6411 14.9885 16.5551 15.1725C16.5471 15.1895 16.5391 15.2055 16.5321 15.2225C16.4121 15.4765 16.5211 15.7785 16.7751 15.8975C16.8451 15.9305 16.9181 15.9455 16.9911 15.9455C17.1821 15.9455 17.3641 15.8375 17.4511 15.6545L17.4741 15.6065C17.5941 15.3525 17.4851 15.0505 17.2321 14.9305C17.1601 14.8975 17.0871 14.8815 17.0141 14.8815ZM15.2061 19.5405C14.9901 19.5405 14.7901 19.6795 14.7221 19.8955C14.7181 19.9075 14.7141 19.9195 14.7111 19.9315C14.7091 19.9375 14.7071 19.9435 14.7051 19.9495C14.6221 20.2165 14.7711 20.5005 15.0381 20.5835C15.0881 20.5995 15.1401 20.6065 15.1901 20.6065C15.4061 20.6065 15.6061 20.4675 15.6741 20.2505L15.6901 20.1995C15.7741 19.9315 15.6251 19.6465 15.3581 19.5625C15.3071 19.5485 15.2561 19.5405 15.2061 19.5405ZM13.9671 24.3985C13.7311 24.3985 13.5191 24.5645 13.4701 24.8045C13.4671 24.8205 13.4641 24.8365 13.4601 24.8525C13.4601 24.8545 13.4591 24.8565 13.4591 24.8585C13.4591 24.8595 13.4591 24.8595 13.4591 24.8605C13.4041 25.1355 13.5821 25.4025 13.8571 25.4575C13.8911 25.4645 13.9241 25.4675 13.9571 25.4675C14.1941 25.4675 14.4061 25.3005 14.4541 25.0595L14.4651 25.0065C14.5201 24.7315 14.3421 24.4645 14.0671 24.4085C14.0331 24.4015 14.0001 24.3985 13.9671 24.3985ZM13.2031 29.3635C12.9481 29.3635 12.7281 29.5555 12.6991 29.8155C12.6981 29.8255 12.6971 29.8365 12.6961 29.8465C12.6951 29.8555 12.6941 29.8635 12.6931 29.8735C12.6641 30.1505 12.8651 30.3995 13.1431 30.4305C13.1621 30.4325 13.1801 30.4335 13.1991 30.4335C13.4551 30.4335 13.6751 30.2405 13.7031 29.9815L13.7091 29.9275C13.7401 29.6485 13.5381 29.3985 13.2601 29.3675C13.2401 29.3645 13.2221 29.3635 13.2031 29.3635ZM12.8481 34.3815C12.5761 34.3815 12.3501 34.5975 12.3411 34.8725C12.3411 34.8755 12.3411 34.8775 12.3411 34.8805C12.3411 34.8915 12.3401 34.9035 12.3401 34.9145C12.3401 34.9185 12.3401 34.9225 12.3391 34.9265C12.3301 35.2065 12.5501 35.4415 12.8301 35.4505C12.8361 35.4505 12.8411 35.4505 12.8471 35.4505C13.1201 35.4505 13.3451 35.2335 13.3541 34.9595L13.3561 34.9055C13.3651 34.6255 13.1461 34.3905 12.8651 34.3815C12.8601 34.3825 12.8541 34.3815 12.8481 34.3815ZM12.8561 39.4155C12.8501 39.4155 12.8441 39.4155 12.8381 39.4155C12.5581 39.4255 12.3391 39.6605 12.3491 39.9405C12.3491 39.9455 12.3491 39.9495 12.3491 39.9535C12.3491 39.9635 12.3501 39.9725 12.3501 39.9825C12.3501 39.9865 12.3501 39.9905 12.3501 39.9945C12.3601 40.2685 12.5851 40.4845 12.8571 40.4845C12.8631 40.4845 12.8691 40.4845 12.8751 40.4845C13.1551 40.4745 13.3741 40.2395 13.3641 39.9595L13.3621 39.9055C13.3531 39.6305 13.1281 39.4155 12.8561 39.4155ZM13.1911 44.4415C13.1741 44.4415 13.1581 44.4425 13.1411 44.4435C12.8621 44.4705 12.6581 44.7185 12.6851 44.9975C12.6871 45.0125 12.6881 45.0265 12.6891 45.0415C12.6891 45.0455 12.6901 45.0495 12.6901 45.0535C12.7161 45.3155 12.9371 45.5115 13.1941 45.5115C13.2111 45.5115 13.2271 45.5105 13.2441 45.5095C13.5231 45.4815 13.7271 45.2335 13.6991 44.9545L13.6941 44.9005C13.6701 44.6375 13.4491 44.4415 13.1911 44.4415ZM13.8321 49.4405C13.8061 49.4405 13.7791 49.4425 13.7521 49.4465C13.4761 49.4905 13.2871 49.7485 13.3301 50.0245C13.3331 50.0445 13.3361 50.0635 13.3391 50.0835C13.3791 50.3325 13.5951 50.5095 13.8391 50.5095C13.8651 50.5095 13.8921 50.5075 13.9191 50.5035C14.1961 50.4595 14.3851 50.1995 14.3411 49.9225L14.3331 49.8685C14.2931 49.6185 14.0771 49.4405 13.8321 49.4405ZM14.7591 54.3955C14.7231 54.3955 14.6871 54.3995 14.6511 54.4075C14.3781 54.4665 14.2041 54.7355 14.2621 55.0085C14.2651 55.0225 14.2681 55.0375 14.2711 55.0515C14.2721 55.0565 14.2731 55.0605 14.2741 55.0645C14.3261 55.3025 14.5361 55.4645 14.7691 55.4645C14.8051 55.4645 14.8411 55.4605 14.8771 55.4525C15.1511 55.3935 15.3251 55.1225 15.2651 54.8485L15.2531 54.7955C15.2041 54.5575 14.9931 54.3955 14.7591 54.3955ZM15.9611 59.2915C15.9161 59.2915 15.8711 59.2975 15.8261 59.3095C15.5561 59.3835 15.3981 59.6615 15.4711 59.9315C15.4751 59.9475 15.4791 59.9615 15.4841 59.9775C15.4851 59.9805 15.4861 59.9835 15.4871 59.9875C15.5491 60.2125 15.7531 60.3605 15.9761 60.3605C16.0211 60.3605 16.0661 60.3545 16.1111 60.3425C16.3811 60.2685 16.5401 59.9885 16.4661 59.7185L16.4521 59.6655C16.3891 59.4395 16.1841 59.2915 15.9611 59.2915ZM17.4341 64.1125C17.3801 64.1125 17.3261 64.1215 17.2721 64.1395C17.0071 64.2285 16.8641 64.5155 16.9531 64.7805C16.9571 64.7925 16.9621 64.8065 16.9661 64.8185C16.9681 64.8235 16.9701 64.8285 16.9711 64.8345C17.0421 65.0465 17.2401 65.1795 17.4521 65.1795C17.5061 65.1795 17.5611 65.1705 17.6141 65.1525C17.8801 65.0625 18.0221 64.7745 17.9331 64.5095L17.9161 64.4585C17.8431 64.2455 17.6461 64.1125 17.4341 64.1125ZM19.1841 68.8375C19.1201 68.8375 19.0561 68.8495 18.9931 68.8745C18.7331 68.9795 18.6081 69.2755 18.7131 69.5355C18.7201 69.5525 18.7271 69.5695 18.7341 69.5865C18.8141 69.7835 19.0041 69.9035 19.2041 69.9035C19.2681 69.9035 19.3321 69.8915 19.3951 69.8665C19.6551 69.7615 19.7801 69.4655 19.6751 69.2055L19.6551 69.1555C19.5751 68.9565 19.3851 68.8375 19.1841 68.8375ZM21.2211 73.4425C21.1471 73.4425 21.0721 73.4585 21.0011 73.4925C20.7481 73.6145 20.6421 73.9175 20.7641 74.1705C20.7651 74.1735 20.7671 74.1765 20.7681 74.1785C20.7751 74.1925 20.7811 74.2055 20.7881 74.2195C20.8761 74.4005 21.0571 74.5065 21.2451 74.5065C21.3191 74.5065 21.3941 74.4905 21.4651 74.4555C21.7181 74.3335 21.8231 74.0305 21.7021 73.7775L21.6781 73.7285C21.5911 73.5485 21.4101 73.4425 21.2211 73.4425ZM23.5601 77.8995C23.4751 77.8995 23.3881 77.9215 23.3091 77.9665C23.0661 78.1055 22.9811 78.4145 23.1191 78.6575C23.1261 78.6695 23.1341 78.6835 23.1411 78.6955C23.1431 78.6995 23.1461 78.7035 23.1481 78.7075C23.2421 78.8715 23.4131 78.9635 23.5891 78.9635C23.6751 78.9635 23.7611 78.9415 23.8411 78.8965C24.0841 78.7575 24.1691 78.4475 24.0301 78.2035L24.0031 78.1565C23.9081 77.9915 23.7371 77.8995 23.5601 77.8995ZM26.2221 82.1665C26.1241 82.1665 26.0241 82.1955 25.9371 82.2545C25.7061 82.4125 25.6461 82.7265 25.8021 82.9585C25.8131 82.9745 25.8251 82.9915 25.8361 83.0075C25.9341 83.1505 26.0931 83.2265 26.2541 83.2265C26.3531 83.2265 26.4521 83.1975 26.5401 83.1385C26.7721 82.9805 26.8311 82.6645 26.6731 82.4325L26.6421 82.3875C26.5431 82.2445 26.3841 82.1665 26.2221 82.1665ZM29.2331 86.1835C29.1191 86.1835 29.0041 86.2215 28.9101 86.3005C28.6941 86.4795 28.6641 86.7995 28.8431 87.0155C28.8461 87.0185 28.8481 87.0215 28.8511 87.0245C28.8581 87.0335 28.8641 87.0405 28.8711 87.0495C28.8731 87.0525 28.8761 87.0555 28.8781 87.0585C28.9781 87.1795 29.1231 87.2425 29.2691 87.2425C29.3831 87.2425 29.4981 87.2045 29.5921 87.1255C29.8081 86.9465 29.8381 86.6265 29.6591 86.4105L29.6241 86.3685C29.5241 86.2465 29.3791 86.1835 29.2331 86.1835ZM32.6311 89.8645C32.4981 89.8645 32.3651 89.9165 32.2651 90.0205C32.0711 90.2215 32.0771 90.5415 32.2771 90.7355C32.2911 90.7495 32.3071 90.7645 32.3211 90.7775C32.4191 90.8715 32.5451 90.9175 32.6711 90.9175C32.8041 90.9175 32.9371 90.8655 33.0371 90.7615C33.2311 90.5595 33.2251 90.2375 33.0221 90.0435L32.9831 90.0065C32.8851 89.9115 32.7581 89.8645 32.6311 89.8645ZM36.4611 93.0665C36.3021 93.0665 36.1461 93.1405 36.0471 93.2795C35.8851 93.5075 35.9371 93.8225 36.1641 93.9855C36.1801 93.9975 36.1971 94.0095 36.2131 94.0205C36.3021 94.0825 36.4031 94.1125 36.5041 94.1125C36.6631 94.1125 36.8191 94.0385 36.9181 93.8985C37.0801 93.6695 37.0271 93.3525 36.7981 93.1905L36.7551 93.1595C36.6661 93.0975 36.5631 93.0665 36.4611 93.0665ZM40.7531 95.5545C40.5591 95.5545 40.3731 95.6665 40.2891 95.8555C40.1751 96.1105 40.2891 96.4085 40.5421 96.5245C40.5571 96.5315 40.5721 96.5375 40.5871 96.5445C40.5881 96.5455 40.5891 96.5455 40.5901 96.5455C40.5921 96.5465 40.5951 96.5475 40.5971 96.5485C40.6631 96.5775 40.7331 96.5915 40.8011 96.5915C40.9951 96.5915 41.1811 96.4795 41.2651 96.2905C41.3791 96.0345 41.2631 95.7335 41.0071 95.6195L40.9591 95.5985C40.8921 95.5695 40.8221 95.5545 40.7531 95.5545ZM45.4621 96.9565C45.2131 96.9565 44.9961 97.1395 44.9591 97.3925C44.9191 97.6685 45.1091 97.9245 45.3851 97.9665C45.4021 97.9695 45.4201 97.9715 45.4371 97.9735C45.4391 97.9735 45.4411 97.9745 45.4431 97.9745C45.4671 97.9775 45.4921 97.9795 45.5151 97.9795C45.7631 97.9795 45.9801 97.7965 46.0161 97.5435C46.0551 97.2655 45.8621 97.0085 45.5851 96.9685L45.5341 96.9615C45.5101 96.9585 45.4861 96.9565 45.4621 96.9565ZM50.3791 96.8195C50.3441 96.8195 50.3101 96.8235 50.2741 96.8305L50.2241 96.8405C49.9501 96.8975 49.7731 97.1665 49.8301 97.4415C49.8791 97.6815 50.0901 97.8455 50.3251 97.8455C50.3581 97.8455 50.3921 97.8425 50.4261 97.8355C50.4331 97.8345 50.4391 97.8325 50.4451 97.8315C50.4461 97.8315 50.4471 97.8315 50.4481 97.8305C50.4611 97.8275 50.4741 97.8255 50.4871 97.8225C50.7601 97.7635 50.9341 97.4955 50.8761 97.2225C50.8261 96.9835 50.6151 96.8195 50.3791 96.8195ZM54.8841 94.9825C54.7921 94.9825 54.6991 95.0075 54.6151 95.0595L54.5721 95.0865C54.3341 95.2355 54.2621 95.5485 54.4101 95.7865C54.5061 95.9405 54.6711 96.0255 54.8401 96.0255C54.9311 96.0255 55.0221 96.0015 55.1051 95.9505C55.1231 95.9395 55.1401 95.9285 55.1581 95.9175C55.3931 95.7675 55.4641 95.4565 55.3151 95.2205C55.2181 95.0665 55.0531 94.9825 54.8841 94.9825ZM58.5971 91.7755C58.4561 91.7755 58.3161 91.8335 58.2151 91.9475L58.1811 91.9865C57.9961 92.1965 58.0161 92.5175 58.2261 92.7035C58.3231 92.7885 58.4421 92.8305 58.5621 92.8305C58.7021 92.8305 58.8411 92.7735 58.9411 92.6605C58.9421 92.6595 58.9441 92.6575 58.9451 92.6555C58.9561 92.6425 58.9671 92.6305 58.9781 92.6175C59.1631 92.4075 59.1431 92.0865 58.9321 91.9015C58.8361 91.8175 58.7171 91.7755 58.5971 91.7755ZM61.4381 87.7155C61.2601 87.7155 61.0881 87.8085 60.9951 87.9745L60.9691 88.0205C60.8321 88.2645 60.9181 88.5745 61.1631 88.7125C61.2421 88.7565 61.3271 88.7775 61.4111 88.7775C61.5881 88.7775 61.7601 88.6845 61.8531 88.5195C61.8531 88.5185 61.8531 88.5185 61.8541 88.5175C61.8551 88.5165 61.8551 88.5145 61.8561 88.5135C61.8651 88.4985 61.8731 88.4825 61.8821 88.4675C62.0171 88.2235 61.9301 87.9165 61.6871 87.7795C61.6071 87.7365 61.5221 87.7155 61.4381 87.7155ZM63.5201 83.1835C63.3141 83.1835 63.1211 83.3095 63.0441 83.5135L63.0251 83.5635C62.9271 83.8255 63.0601 84.1185 63.3221 84.2175C63.3811 84.2395 63.4411 84.2505 63.5001 84.2505C63.7051 84.2505 63.8991 84.1245 63.9751 83.9215C63.9821 83.9045 63.9881 83.8875 63.9941 83.8695C64.0921 83.6065 63.9591 83.3145 63.6971 83.2165C63.6391 83.1945 63.5791 83.1835 63.5201 83.1835ZM64.9841 78.3955C64.7561 78.3955 64.5481 78.5505 64.4911 78.7825L64.4781 78.8345C64.4111 79.1065 64.5781 79.3815 64.8501 79.4485C64.8911 79.4585 64.9321 79.4635 64.9721 79.4635C65.2001 79.4635 65.4071 79.3085 65.4641 79.0775C65.4661 79.0695 65.4681 79.0605 65.4701 79.0525C65.4711 79.0465 65.4731 79.0385 65.4751 79.0325C65.4761 79.0295 65.4761 79.0265 65.4771 79.0245C65.5441 78.7525 65.3771 78.4775 65.1051 78.4105C65.0651 78.4005 65.0241 78.3955 64.9841 78.3955ZM65.9381 73.4675C65.6901 73.4675 65.4731 73.6495 65.4361 73.9015L65.4281 73.9545C65.3871 74.2315 65.5791 74.4895 65.8571 74.5305C65.8821 74.5345 65.9071 74.5355 65.9321 74.5355C66.1791 74.5355 66.3961 74.3545 66.4331 74.1025C66.4331 74.1015 66.4331 74.1005 66.4341 74.0985C66.4341 74.0965 66.4351 74.0955 66.4351 74.0935C66.4371 74.0775 66.4401 74.0605 66.4421 74.0445C66.4811 73.7675 66.2901 73.5115 66.0131 73.4715C65.9871 73.4695 65.9621 73.4675 65.9381 73.4675ZM66.4591 68.4665C66.1931 68.4665 65.9701 68.6725 65.9531 68.9415L65.9491 68.9955C65.9311 69.2755 66.1431 69.5165 66.4231 69.5355C66.4341 69.5365 66.4461 69.5365 66.4571 69.5365C66.7221 69.5365 66.9441 69.3315 66.9631 69.0645C66.9641 69.0535 66.9641 69.0425 66.9651 69.0315C66.9651 69.0235 66.9661 69.0155 66.9671 69.0075C66.9851 68.7275 66.7731 68.4865 66.4931 68.4685C66.4811 68.4665 66.4701 68.4665 66.4591 68.4665ZM66.6021 63.4365C66.6011 63.4365 66.6001 63.4365 66.5991 63.4365C66.3191 63.4385 66.0931 63.6675 66.0951 63.9475V64.0015C66.0971 64.2805 66.3241 64.5065 66.6031 64.5065C66.6041 64.5065 66.6051 64.5065 66.6061 64.5065C66.8861 64.5045 67.1121 64.2765 67.1101 63.9965C67.1101 63.9895 67.1101 63.9815 67.1101 63.9745C67.1101 63.9635 67.1101 63.9525 67.1101 63.9415C67.1071 63.6615 66.8801 63.4365 66.6021 63.4365ZM66.4031 58.4025C66.3911 58.4025 66.3791 58.4025 66.3661 58.4035C66.0861 58.4235 65.8761 58.6665 65.8961 58.9465L65.9001 59.0005C65.9191 59.2675 66.1421 59.4725 66.4061 59.4725C66.4181 59.4725 66.4301 59.4715 66.4421 59.4715C66.7221 59.4515 66.9321 59.2095 66.9121 58.9295C66.9121 58.9255 66.9121 58.9225 66.9111 58.9195C66.9101 58.9045 66.9091 58.8875 66.9081 58.8725C66.8881 58.6055 66.6661 58.4025 66.4031 58.4025ZM65.8911 53.3915C65.8691 53.3915 65.8461 53.3925 65.8241 53.3955C65.5461 53.4325 65.3501 53.6875 65.3871 53.9655L65.3941 54.0195C65.4281 54.2745 65.6461 54.4605 65.8971 54.4605C65.9191 54.4605 65.9411 54.4585 65.9641 54.4565C66.2411 54.4195 66.4371 54.1665 66.4011 53.8885C66.4001 53.8835 66.4001 53.8815 66.3991 53.8765C66.3971 53.8615 66.3951 53.8465 66.3931 53.8325C66.3591 53.5775 66.1411 53.3915 65.8911 53.3915ZM65.0841 48.4165C65.0521 48.4165 65.0201 48.4195 64.9881 48.4255C64.7131 48.4785 64.5321 48.7445 64.5851 49.0195L64.5951 49.0725C64.6411 49.3155 64.8541 49.4855 65.0931 49.4855C65.1251 49.4855 65.1571 49.4825 65.1891 49.4765C65.4641 49.4245 65.6451 49.1585 65.5921 48.8835C65.5901 48.8745 65.5881 48.8645 65.5871 48.8555C65.5851 48.8465 65.5841 48.8375 65.5821 48.8295C65.5351 48.5855 65.3231 48.4165 65.0841 48.4165ZM63.9971 43.4925C63.9561 43.4925 63.9151 43.4975 63.8731 43.5075C63.6011 43.5755 63.4361 43.8515 63.5041 44.1235L63.5171 44.1765C63.5751 44.4075 63.7821 44.5615 64.0091 44.5615C64.0501 44.5615 64.0911 44.5565 64.1321 44.5465C64.4031 44.4785 64.5681 44.2045 64.5021 43.9335C64.4971 43.9135 64.4921 43.8955 64.4871 43.8755C64.4301 43.6455 64.2241 43.4925 63.9971 43.4925ZM62.6371 38.6385C62.5871 38.6385 62.5361 38.6455 62.4861 38.6615C62.2181 38.7445 62.0691 39.0295 62.1521 39.2965L62.1681 39.3485C62.2361 39.5665 62.4361 39.7055 62.6531 39.7055C62.7031 39.7055 62.7531 39.6985 62.8031 39.6825C63.0691 39.5995 63.2181 39.3185 63.1391 39.0525C63.1331 39.0315 63.1261 39.0115 63.1201 38.9905C63.0511 38.7765 62.8521 38.6385 62.6371 38.6385ZM61.0021 33.8715C60.9431 33.8715 60.8821 33.8815 60.8231 33.9045C60.5611 34.0035 60.4281 34.2955 60.5261 34.5585L60.5451 34.6095C60.6221 34.8135 60.8151 34.9385 61.0211 34.9385C61.0801 34.9385 61.1401 34.9285 61.1991 34.9065C61.4581 34.8095 61.5911 34.5225 61.4991 34.2625C61.4911 34.2405 61.4811 34.2145 61.4731 34.1925C61.3951 33.9925 61.2051 33.8715 61.0021 33.8715ZM59.0851 29.2135C59.0161 29.2135 58.9451 29.2275 58.8781 29.2575C58.6221 29.3725 58.5081 29.6725 58.6221 29.9285L58.6441 29.9785C58.7291 30.1665 58.9141 30.2785 59.1081 30.2785C59.1771 30.2785 59.2481 30.2645 59.3151 30.2335C59.5671 30.1205 59.6821 29.8275 59.5761 29.5745C59.5651 29.5495 59.5541 29.5245 59.5431 29.5005C59.4561 29.3205 59.2751 29.2125 59.0851 29.2135ZM56.8741 24.6905C56.7941 24.6905 56.7121 24.7095 56.6361 24.7495C56.3891 24.8815 56.2951 25.1885 56.4261 25.4365L56.4511 25.4845C56.5421 25.6565 56.7181 25.7545 56.9001 25.7545C56.9801 25.7545 57.0621 25.7355 57.1381 25.6955C57.3811 25.5665 57.4761 25.2685 57.3561 25.0235C57.3421 24.9975 57.3291 24.9725 57.3151 24.9455C57.2211 24.7825 57.0501 24.6905 56.8741 24.6905ZM54.3491 20.3375C54.2561 20.3375 54.1621 20.3625 54.0781 20.4165C53.8411 20.5665 53.7701 20.8795 53.9201 21.1165L53.9491 21.1625C54.0461 21.3155 54.2101 21.3995 54.3791 21.3995C54.4721 21.3995 54.5651 21.3745 54.6501 21.3215C54.8821 21.1755 54.9551 20.8725 54.8181 20.6375C54.8011 20.6105 54.7851 20.5855 54.7681 20.5585C54.6711 20.4155 54.5121 20.3375 54.3491 20.3375ZM51.4881 16.2075C51.3811 16.2075 51.2731 16.2415 51.1811 16.3115C50.9581 16.4815 50.9141 16.7995 51.0841 17.0235L51.1171 17.0665C51.2171 17.1985 51.3681 17.2675 51.5221 17.2675C51.6291 17.2675 51.7371 17.2335 51.8291 17.1645C52.0471 16.9995 52.0941 16.6925 51.9381 16.4705C51.9191 16.4455 51.8991 16.4185 51.8801 16.3935C51.7801 16.2705 51.6351 16.2075 51.4881 16.2075ZM48.2571 12.3715C48.1331 12.3715 48.0081 12.4175 47.9101 12.5085C47.7061 12.7005 47.6951 13.0215 47.8871 13.2265L47.9241 13.2655C48.0241 13.3725 48.1591 13.4265 48.2951 13.4265C48.4191 13.4265 48.5441 13.3815 48.6421 13.2895C48.8421 13.1025 48.8571 12.7925 48.6801 12.5875C48.6581 12.5635 48.6361 12.5405 48.6141 12.5165C48.5151 12.4205 48.3861 12.3715 48.2571 12.3715ZM44.6151 8.94653C44.4681 8.94653 44.3231 9.00954 44.2221 9.13254C44.0441 9.34954 44.0761 9.66953 44.2931 9.84753L44.3341 9.88153C44.4291 9.95853 44.5431 9.99654 44.6561 9.99654C44.8031 9.99654 44.9481 9.93354 45.0491 9.81154C45.2231 9.60054 45.1971 9.29053 44.9941 9.11053C44.9691 9.09053 44.9451 9.07053 44.9201 9.04953C44.8301 8.98053 44.7221 8.94653 44.6151 8.94653ZM40.5201 6.12054C40.3431 6.12054 40.1711 6.21353 40.0781 6.37953C39.9411 6.62353 40.0271 6.93353 40.2711 7.07153L40.3171 7.09753C40.3961 7.14153 40.4821 7.16254 40.5661 7.16254C40.7431 7.16254 40.9161 7.06954 41.0091 6.90454C41.1441 6.66554 41.0641 6.36353 40.8311 6.22153C40.8061 6.20753 40.7791 6.19254 40.7541 6.17754C40.6791 6.13954 40.5991 6.12054 40.5201 6.12054ZM35.9711 4.20654C35.7491 4.20654 35.5451 4.35354 35.4831 4.57754C35.4081 4.84754 35.5661 5.12754 35.8361 5.20354L35.8861 5.21754C35.9321 5.23054 35.9781 5.23653 36.0231 5.23653C36.2451 5.23653 36.4491 5.08953 36.5121 4.86553C36.5871 4.59953 36.4341 4.32253 36.1711 4.24353C36.1461 4.23653 36.1231 4.22953 36.0981 4.22353C36.0551 4.21153 36.0131 4.20654 35.9711 4.20654Z"
        fill="#000D1E" />
    <path
        d="M49.1561 101.753C46.2521 102.571 43.9071 103.171 42.2991 103.525C27.0171 106.947 9.54011 86.9335 3.25611 58.8235C-3.02789 30.7135 4.26511 5.16654 19.5471 1.74454C21.5371 1.29454 25.0681 1.07653 29.6891 1.11753C29.1441 1.18553 28.6121 1.26753 28.0801 1.39053C12.6621 4.83953 5.17811 30.0455 11.3671 57.6925C17.3651 84.5615 34.0651 103.852 49.1561 101.753Z"
        fill="#06316A" />
    <path
        d="M49.1561 101.753C46.2521 102.571 43.9071 103.171 42.2991 103.525C27.0171 106.947 9.54011 86.9335 3.25611 58.8235C-3.02789 30.7135 4.26511 5.16654 19.5471 1.74454C21.5371 1.29454 25.0681 1.07653 29.6891 1.11753C29.1441 1.18553 28.6121 1.26753 28.0801 1.39053C12.6621 4.83953 5.17811 30.0455 11.3671 57.6925C17.3651 84.5615 34.0651 103.852 49.1561 101.753Z"
        stroke="#000D1E" stroke-width="0.7435" stroke-miterlimit="10" />
    <path
        d="M50.8891 93.9655C38.6701 97.2915 24.1771 80.9515 18.5181 57.4835C12.8481 34.0165 18.1601 12.2975 30.3801 8.97054C42.5891 5.65654 57.0811 21.9855 62.7511 45.4525C68.4101 68.9215 63.0981 90.6405 50.8891 93.9655Z"
        fill="#06316A" />
    <path
        d="M50.8891 93.9655C38.6701 97.2915 24.1771 80.9515 18.5181 57.4835C12.8481 34.0165 18.1601 12.2975 30.3801 8.97054C42.5891 5.65654 57.0811 21.9855 62.7511 45.4525C68.4101 68.9215 63.0981 90.6405 50.8891 93.9655Z"
        stroke="#000D1E" stroke-width="0.7425" stroke-miterlimit="10" />
    <path
        d="M60.3481 85.6935C63.9201 76.4645 64.4381 63.1045 61.0701 49.1045C55.3991 25.6435 40.9081 9.31152 28.6931 12.6245C24.8081 13.6885 21.6181 16.6185 19.2461 20.8725C21.6451 14.6425 25.4491 10.3215 30.3841 8.97152C42.5851 5.65852 57.0761 21.9905 62.7471 45.4515C66.5921 61.4275 65.3651 76.6005 60.3481 85.6935Z"
        fill="#000D1E" />
    <g opacity="0.2">
        <mask id="mask0_1_1265" style="mask-type:luminance" maskUnits="userSpaceOnUse" x="9" y="1" width="61"
            height="101">
            <path
                d="M50.4641 101.521C35.0461 104.97 17.5421 85.3385 11.3661 57.6925C5.17711 30.0465 12.6611 4.83954 28.0791 1.39054C43.4841 -2.04546 60.9881 17.5725 67.1771 45.2185C73.3531 72.8655 65.8691 98.0715 50.4641 101.521Z"
                fill="white" />
        </mask>
        <g mask="url(#mask0_1_1265)">
            <path d="M67.2136 -13.6504L59.637 -16.3677L10.0436 121.909L17.6201 124.627L67.2136 -13.6504Z"
                fill="#000D1E" />
            <path d="M95.3912 -5.60228L87.8146 -8.31962L38.2212 129.957L45.7977 132.675L95.3912 -5.60228Z"
                fill="#000D1E" />
            <path d="M47.7982 -41.6329L40.2217 -44.3503L-9.37176 93.9267L-1.79523 96.6441L47.7982 -41.6329Z"
                fill="#000D1E" />
            <path d="M60.1403 -26.321L49.3982 -30.1737L-0.195205 108.103L10.5469 111.956L60.1403 -26.321Z"
                fill="#000D1E" />
            <path d="M81.5298 -4.00858L70.7877 -7.86127L21.1942 130.416L31.9363 134.268L81.5298 -4.00858Z"
                fill="#000D1E" />
        </g>
    </g>
</svg>