<svg width="109" height="115" viewBox="0 0 109 115" fill="none" xmlns="http://www.w3.org/2000/svg">
    <path
        d="M14.0045 100.01C14.5905 100.527 15.2045 101.028 15.8405 101.503C17.3845 102.662 18.9985 103.68 20.6865 104.543C20.6915 104.552 20.6915 104.552 20.7065 104.556C20.8435 104.641 20.9885 104.72 21.1445 104.794C40.8145 114.656 68.8085 105.205 86.5865 81.6409C105.184 56.9659 105.835 25.7809 88.6355 10.1699L88.5945 10.1429C87.8425 9.44486 87.0485 8.78386 86.2125 8.15986C66.5785 -6.64314 34.9115 2.24486 15.4665 28.0219C-3.33846 52.9669 -3.79347 84.5789 14.0045 100.01Z"
        fill="#06316A" />
    <path
        d="M63.1866 3.89886C63.1816 3.89886 63.1756 3.89886 63.1706 3.89886C63.1576 3.89886 63.1446 3.89886 63.1316 3.89886C62.8306 3.89886 62.5876 4.14287 62.5886 4.44387C62.5886 4.74387 62.8326 4.98787 63.1336 4.98787H63.1866C63.4876 4.98787 63.7306 4.74387 63.7306 4.44287C63.7306 4.14287 63.4866 3.89886 63.1866 3.89886ZM57.8396 4.24187C57.8176 4.24187 57.7946 4.24286 57.7716 4.24586H57.7696C57.7516 4.24786 57.7346 4.25086 57.7166 4.25286C57.4186 4.29086 57.2076 4.56287 57.2456 4.86087C57.2806 5.13587 57.5146 5.33687 57.7846 5.33687C57.8076 5.33687 57.8306 5.33587 57.8536 5.33287L57.9066 5.32587C58.2046 5.28787 58.4156 5.01586 58.3776 4.71786C58.3436 4.44287 58.1096 4.24187 57.8396 4.24187ZM52.5636 5.22287C52.5206 5.22287 52.4776 5.22786 52.4336 5.23886C52.4256 5.24086 52.4166 5.24287 52.4086 5.24487C52.4066 5.24487 52.4066 5.24586 52.4046 5.24586C52.3966 5.24786 52.3886 5.24987 52.3796 5.25187C52.0876 5.32387 51.9096 5.61787 51.9806 5.90987C52.0416 6.15787 52.2646 6.32487 52.5086 6.32487C52.5516 6.32487 52.5956 6.31986 52.6386 6.30886L52.6906 6.29587C52.9826 6.22387 53.1616 5.92987 53.0896 5.63787C53.0306 5.38887 52.8086 5.22287 52.5636 5.22287ZM47.4206 6.77287C47.3596 6.77287 47.2976 6.78287 47.2366 6.80487C47.2196 6.81087 47.2016 6.81687 47.1846 6.82387C46.9016 6.92587 46.7546 7.23687 46.8566 7.51987C46.9366 7.74187 47.1456 7.87987 47.3686 7.87987C47.4296 7.87987 47.4916 7.86987 47.5526 7.84787L47.6036 7.82987C47.8866 7.72787 48.0336 7.41687 47.9326 7.13387C47.8536 6.91087 47.6436 6.77287 47.4206 6.77287ZM42.4526 8.83187C42.3756 8.83187 42.2976 8.84887 42.2226 8.88287C42.2166 8.88587 42.2106 8.88887 42.2046 8.89087C42.1936 8.89587 42.1816 8.90187 42.1706 8.90687C41.8986 9.03487 41.7826 9.35987 41.9106 9.63087C42.0036 9.82787 42.1996 9.94287 42.4036 9.94287C42.4816 9.94287 42.5606 9.92587 42.6356 9.89087L42.6846 9.86787C42.9566 9.73987 43.0726 9.41487 42.9446 9.14387C42.8526 8.94687 42.6566 8.83187 42.4526 8.83187ZM37.6956 11.3439C37.6026 11.3439 37.5086 11.3679 37.4236 11.4179C37.4186 11.4209 37.4136 11.4239 37.4086 11.4269C37.3976 11.4329 37.3876 11.4399 37.3766 11.4459L37.3736 11.4479C37.1146 11.5999 37.0286 11.9329 37.1806 12.1919C37.2816 12.3649 37.4636 12.4609 37.6506 12.4609C37.7446 12.4609 37.8386 12.4369 37.9256 12.3859L37.9726 12.3589C38.2316 12.2069 38.3186 11.8729 38.1666 11.6139C38.0646 11.4399 37.8826 11.3439 37.6956 11.3439ZM33.1736 14.2629C33.0656 14.2629 32.9566 14.2949 32.8606 14.3619C32.8486 14.3709 32.8336 14.3809 32.8216 14.3889C32.8196 14.3899 32.8186 14.3909 32.8166 14.3929C32.8146 14.3939 32.8146 14.3939 32.8126 14.3959C32.5676 14.5699 32.5106 14.9089 32.6836 15.1539C32.7896 15.3039 32.9576 15.3839 33.1286 15.3839C33.2376 15.3839 33.3476 15.3509 33.4426 15.2839L33.4866 15.2529C33.7316 15.0789 33.7906 14.7399 33.6166 14.4939C33.5116 14.3439 33.3436 14.2629 33.1736 14.2629ZM28.9066 17.5499C28.7836 17.5499 28.6596 17.5919 28.5576 17.6769C28.5436 17.6889 28.5276 17.7019 28.5136 17.7139C28.2846 17.9069 28.2556 18.2489 28.4476 18.4789C28.5556 18.6079 28.7096 18.6739 28.8646 18.6739C28.9876 18.6739 29.1116 18.6319 29.2136 18.5469L29.2556 18.5119C29.4856 18.3189 29.5166 17.9759 29.3236 17.7449C29.2166 17.6159 29.0616 17.5499 28.9066 17.5499ZM24.9146 21.1659C24.7776 21.1659 24.6396 21.2179 24.5336 21.3209L24.5326 21.3219C24.5246 21.3299 24.5166 21.3369 24.5096 21.3449C24.5036 21.3509 24.4986 21.3559 24.4926 21.3609C24.2796 21.5709 24.2776 21.9139 24.4866 22.1279C24.5936 22.2369 24.7346 22.2909 24.8756 22.2909C25.0126 22.2909 25.1506 22.2389 25.2566 22.1359L25.2956 22.0979C25.5106 21.8879 25.5136 21.5429 25.3036 21.3279C25.1966 21.2199 25.0556 21.1659 24.9146 21.1659ZM21.2106 25.0789C21.0606 25.0789 20.9106 25.1409 20.8026 25.2619C20.7896 25.2769 20.7766 25.2919 20.7636 25.3069C20.5666 25.5329 20.5896 25.8759 20.8156 26.0729C20.9186 26.1629 21.0466 26.2079 21.1736 26.2079C21.3246 26.2079 21.4756 26.1449 21.5836 26.0219L21.6196 25.9809C21.8176 25.7549 21.7956 25.4109 21.5696 25.2129C21.4656 25.1239 21.3376 25.0789 21.2106 25.0789ZM17.8096 29.2599C17.6446 29.2599 17.4816 29.3349 17.3746 29.4769C17.3636 29.4919 17.3526 29.5059 17.3416 29.5209C17.1606 29.7609 17.2086 30.1019 17.4486 30.2829C17.5466 30.3569 17.6616 30.3919 17.7756 30.3919C17.9406 30.3919 18.1036 30.3169 18.2106 30.1749L18.2436 30.1319C18.4246 29.8919 18.3766 29.5509 18.1366 29.3699C18.0386 29.2959 17.9236 29.2599 17.8096 29.2599ZM14.7266 33.6819C14.5476 33.6819 14.3726 33.7699 14.2686 33.9319C14.2586 33.9469 14.2486 33.9629 14.2386 33.9779C14.0756 34.2309 14.1496 34.5669 14.4026 34.7299C14.4936 34.7889 14.5956 34.8159 14.6966 34.8159C14.8756 34.8159 15.0506 34.7279 15.1546 34.5659L15.1836 34.5199C15.3466 34.2669 15.2736 33.9299 15.0206 33.7679C14.9296 33.7099 14.8276 33.6819 14.7266 33.6819ZM11.9846 38.3189C11.7916 38.3189 11.6036 38.4219 11.5056 38.6039C11.5016 38.6109 11.4986 38.6169 11.4946 38.6239C11.4916 38.6299 11.4886 38.6349 11.4856 38.6419C11.4836 38.6459 11.4816 38.6489 11.4796 38.6529C11.3366 38.9169 11.4356 39.2479 11.6996 39.3899C11.7816 39.4339 11.8706 39.4549 11.9576 39.4549C12.1516 39.4549 12.3386 39.3509 12.4366 39.1689L12.4626 39.1209C12.6056 38.8569 12.5066 38.5259 12.2426 38.3829C12.1606 38.3399 12.0716 38.3189 11.9846 38.3189ZM9.60759 43.1539C9.39959 43.1539 9.20058 43.2749 9.11058 43.4769C9.10958 43.4789 9.1096 43.4789 9.1086 43.4809C9.1046 43.4899 9.1006 43.4989 9.0966 43.5079C9.0936 43.5139 9.08959 43.5229 9.08659 43.5289C8.96659 43.8029 9.09058 44.1239 9.36458 44.2449C9.43658 44.2769 9.51058 44.2919 9.58458 44.2919C9.79358 44.2919 9.99259 44.1709 10.0826 43.9679L10.1046 43.9189C10.2266 43.6439 10.1026 43.3229 9.82759 43.2009C9.75659 43.1689 9.68159 43.1539 9.60759 43.1539ZM7.62358 48.1609C7.39858 48.1609 7.1886 48.3019 7.1096 48.5259C7.1036 48.5429 7.0976 48.5609 7.0916 48.5779C6.9926 48.8619 7.14258 49.1719 7.42558 49.2709C7.48458 49.2919 7.5456 49.3009 7.6046 49.3009C7.8296 49.3009 8.04061 49.1599 8.11861 48.9359L8.13658 48.8849C8.23558 48.6009 8.0856 48.2909 7.8026 48.1919C7.7436 48.1699 7.68358 48.1609 7.62358 48.1609ZM6.06261 53.3129C5.82061 53.3129 5.60061 53.4749 5.53661 53.7199C5.5356 53.7249 5.53358 53.7299 5.53258 53.7349C5.53158 53.7409 5.52958 53.7469 5.52858 53.7529C5.52658 53.7609 5.52359 53.7709 5.52159 53.7789C5.44959 54.0689 5.6246 54.3629 5.9146 54.4379C5.9596 54.4499 6.00561 54.4549 6.04961 54.4549C6.29261 54.4549 6.51358 54.2919 6.57658 54.0459L6.58958 53.9939C6.66358 53.7029 6.48858 53.4059 6.19759 53.3319C6.15259 53.3179 6.10761 53.3129 6.06261 53.3129ZM4.9586 58.5779C4.6966 58.5779 4.46659 58.7669 4.42259 59.0339C4.42259 59.0369 4.42158 59.0399 4.42158 59.0429C4.42058 59.0479 4.4206 59.0519 4.4196 59.0569C4.4176 59.0679 4.4166 59.0789 4.4146 59.0889C4.3666 59.3859 4.56758 59.6649 4.86458 59.7129C4.89358 59.7179 4.92358 59.7199 4.95158 59.7199C5.21358 59.7199 5.4446 59.5299 5.4886 59.2629L5.4976 59.2099C5.5456 58.9129 5.34459 58.6339 5.04759 58.5849C5.01659 58.5799 4.9876 58.5779 4.9586 58.5779ZM4.34859 63.9199C4.06459 63.9199 3.82459 64.1409 3.80659 64.4289C3.80559 64.4409 3.80458 64.4519 3.80458 64.4639C3.80458 64.4719 3.8036 64.4799 3.8036 64.4869C3.7856 64.7859 4.0126 65.0419 4.3116 65.0619C4.3236 65.0629 4.3356 65.0629 4.3466 65.0629C4.6316 65.0629 4.8706 64.8419 4.8896 64.5539L4.89259 64.4999C4.91159 64.1999 4.6846 63.9409 4.3846 63.9219C4.3726 63.9199 4.36059 63.9199 4.34859 63.9199ZM4.2776 69.2909C4.2706 69.2909 4.2626 69.2909 4.2556 69.2909C3.9556 69.3029 3.7216 69.5559 3.7336 69.8559C3.7336 69.8619 3.7336 69.8669 3.7346 69.8729C3.7356 69.8879 3.73559 69.8999 3.73659 69.9149C3.74959 70.2059 3.99059 70.4339 4.27959 70.4339C4.28759 70.4339 4.2946 70.4339 4.3026 70.4339C4.6026 70.4219 4.8366 70.1689 4.8246 69.8679L4.82259 69.8139C4.80959 69.5199 4.5676 69.2909 4.2776 69.2909ZM4.7896 74.6319C4.7616 74.6319 4.73358 74.6339 4.70558 74.6389C4.40958 74.6849 4.20659 74.9609 4.25059 75.2559C4.25259 75.2659 4.25359 75.2739 4.25459 75.2839C4.25559 75.2939 4.2576 75.3039 4.2596 75.3139C4.3016 75.5829 4.53258 75.7739 4.79658 75.7739C4.82458 75.7739 4.85261 75.7719 4.88161 75.7669C5.17861 75.7209 5.38159 75.4419 5.33559 75.1449L5.32759 75.0919C5.28559 74.8239 5.0536 74.6319 4.7896 74.6319ZM5.93559 79.8669C5.88559 79.8669 5.8356 79.8739 5.7856 79.8879C5.4966 79.9709 5.32959 80.2719 5.41359 80.5609C5.41459 80.5649 5.41559 80.5689 5.41759 80.5729L5.41859 80.5749C5.41959 80.5769 5.41958 80.5789 5.42058 80.5819C5.42158 80.5859 5.42261 80.5909 5.42461 80.5949V80.5969C5.42561 80.5999 5.4266 80.6029 5.4276 80.6059C5.4286 80.6089 5.42959 80.6119 5.43059 80.6149C5.49959 80.8529 5.71659 81.0089 5.95259 81.0089C6.00259 81.0089 6.05359 81.0019 6.10359 80.9869C6.39259 80.9039 6.5586 80.6019 6.4756 80.3129L6.46059 80.2619C6.39059 80.0219 6.17259 79.8669 5.93559 79.8669ZM7.7606 84.8969C7.6866 84.8969 7.6116 84.9119 7.5396 84.9439C7.2646 85.0659 7.14159 85.3879 7.26359 85.6619C7.26659 85.6699 7.2706 85.6769 7.2736 85.6839C7.2786 85.6939 7.28258 85.7049 7.28758 85.7149C7.37858 85.9159 7.57558 86.0339 7.78258 86.0339C7.85658 86.0339 7.93159 86.0189 8.00459 85.9859C8.27859 85.8629 8.40259 85.5409 8.27959 85.2669L8.25758 85.2179C8.16758 85.0169 7.9686 84.8959 7.7606 84.8969ZM10.2926 89.6019C10.1916 89.6019 10.0896 89.6299 9.99858 89.6879C9.74558 89.8499 9.67259 90.1869 9.83559 90.4399C9.84559 90.4549 9.85558 90.4709 9.86558 90.4859C9.96958 90.6479 10.1446 90.7359 10.3236 90.7359C10.4246 90.7359 10.5266 90.7079 10.6176 90.6489C10.8706 90.4859 10.9436 90.1489 10.7806 89.8969L10.7516 89.8519C10.6466 89.6899 10.4716 89.6019 10.2926 89.6019ZM13.5266 93.8459C13.3966 93.8459 13.2666 93.8919 13.1626 93.9859C12.9396 94.1869 12.9216 94.5299 13.1216 94.7539L13.1236 94.7559C13.1356 94.7689 13.1476 94.7819 13.1596 94.7959C13.2666 94.9149 13.4146 94.9759 13.5636 94.9759C13.6936 94.9759 13.8236 94.9299 13.9276 94.8359C14.1506 94.6349 14.1686 94.2899 13.9666 94.0669L13.9306 94.0269C13.8246 93.9069 13.6756 93.8459 13.5266 93.8459ZM17.4096 97.5069C17.2496 97.5069 17.0906 97.5769 16.9826 97.7119C16.7956 97.9469 16.8346 98.2889 17.0696 98.4759C17.0726 98.4779 17.0756 98.4809 17.0786 98.4829C17.0906 98.4919 17.1016 98.5019 17.1136 98.5109C17.2136 98.5899 17.3326 98.6279 17.4496 98.6279C17.6096 98.6279 17.7686 98.5579 17.8756 98.4219C18.0626 98.1869 18.0226 97.8439 17.7876 97.6569L17.7466 97.6239C17.6476 97.5449 17.5286 97.5069 17.4096 97.5069ZM21.8496 100.457C21.6566 100.457 21.4696 100.56 21.3716 100.74C21.2276 101.004 21.3246 101.334 21.5886 101.478C21.5956 101.482 21.6026 101.486 21.6096 101.489L21.6136 101.491L21.6166 101.493C21.6246 101.497 21.6316 101.501 21.6396 101.505C21.7216 101.549 21.8106 101.57 21.8976 101.57C22.0906 101.57 22.2766 101.467 22.3756 101.286C22.5196 101.022 22.4216 100.691 22.1576 100.548L22.1106 100.523C22.0276 100.478 21.9376 100.457 21.8496 100.457ZM26.7116 102.654C26.4876 102.654 26.2776 102.793 26.1986 103.017C26.0986 103.3 26.2466 103.611 26.5296 103.711C26.5426 103.715 26.5546 103.72 26.5676 103.724L26.5706 103.725C26.5746 103.726 26.5776 103.728 26.5816 103.729C26.6416 103.75 26.7026 103.76 26.7626 103.76C26.9866 103.76 27.1966 103.621 27.2756 103.397C27.3756 103.114 27.2266 102.803 26.9436 102.702L26.8936 102.684C26.8336 102.664 26.7716 102.654 26.7116 102.654ZM31.8696 104.039C31.6126 104.039 31.3836 104.222 31.3346 104.483C31.2796 104.777 31.4726 105.061 31.7656 105.117C31.7856 105.121 31.8056 105.124 31.8256 105.128C31.8586 105.134 31.8916 105.137 31.9236 105.137C32.1806 105.137 32.4086 104.954 32.4576 104.693C32.5126 104.397 32.3176 104.113 32.0216 104.058L31.9696 104.048C31.9356 104.042 31.9026 104.039 31.8696 104.039ZM37.1836 104.64C36.8936 104.64 36.6526 104.869 36.6396 105.161C36.6266 105.461 36.8596 105.715 37.1606 105.727C37.1786 105.728 37.1976 105.729 37.2156 105.729C37.2236 105.729 37.2306 105.73 37.2386 105.73C37.5286 105.73 37.7696 105.501 37.7816 105.208C37.7936 104.908 37.5606 104.654 37.2596 104.642L37.2066 104.64C37.1996 104.641 37.1916 104.64 37.1836 104.64ZM42.5926 104.508C42.5766 104.508 42.5606 104.509 42.5436 104.51L42.4906 104.515C42.1916 104.542 41.9696 104.806 41.9966 105.105C42.0216 105.388 42.2586 105.601 42.5376 105.601C42.5526 105.601 42.5686 105.6 42.5846 105.599C42.6006 105.598 42.6156 105.596 42.6316 105.595C42.6346 105.595 42.6376 105.594 42.6406 105.594C42.9396 105.568 43.1606 105.303 43.1346 105.004C43.1086 104.721 42.8716 104.508 42.5926 104.508ZM47.8976 103.714C47.8606 103.714 47.8236 103.718 47.7856 103.726L47.7326 103.737C47.4386 103.798 47.2496 104.087 47.3106 104.381C47.3636 104.638 47.5906 104.814 47.8426 104.814C47.8786 104.814 47.9156 104.81 47.9526 104.803C47.9686 104.8 47.9856 104.796 48.0016 104.793C48.0036 104.792 48.0066 104.792 48.0086 104.792C48.3026 104.731 48.4916 104.442 48.4296 104.148C48.3756 103.89 48.1496 103.714 47.8976 103.714ZM53.0856 102.329C53.0296 102.329 52.9736 102.338 52.9176 102.356L52.8666 102.373C52.5806 102.465 52.4236 102.772 52.5166 103.058C52.5906 103.288 52.8046 103.435 53.0336 103.435C53.0896 103.435 53.1456 103.426 53.2016 103.408C53.2086 103.406 53.2156 103.403 53.2226 103.401C53.2336 103.397 53.2466 103.393 53.2576 103.39C53.5416 103.296 53.6966 102.991 53.6046 102.706C53.5296 102.476 53.3156 102.329 53.0856 102.329ZM58.1096 100.42C58.0366 100.42 57.9626 100.435 57.8926 100.466L57.8436 100.488C57.5676 100.608 57.4426 100.929 57.5626 101.204C57.6516 101.409 57.8516 101.531 58.0616 101.531C58.1336 101.531 58.2056 101.517 58.2756 101.487C58.2946 101.479 58.3126 101.471 58.3316 101.463C58.6056 101.342 58.7296 101.022 58.6106 100.748C58.5196 100.542 58.3196 100.42 58.1096 100.42ZM62.9336 98.0399C62.8446 98.0399 62.7546 98.0619 62.6716 98.1079L62.6246 98.1339C62.3616 98.2789 62.2656 98.6099 62.4096 98.8729C62.5086 99.0529 62.6946 99.1549 62.8866 99.1549C62.9756 99.1549 63.0656 99.1329 63.1486 99.0869L63.1506 99.0859C63.1666 99.0779 63.1836 99.0679 63.1986 99.0599C63.4606 98.9149 63.5556 98.5849 63.4106 98.3219C63.3116 98.1419 63.1256 98.0399 62.9336 98.0399ZM67.5296 95.2399C67.4256 95.2399 67.3206 95.2699 67.2276 95.3319L67.1826 95.3619C66.9326 95.5289 66.8656 95.8669 67.0326 96.1169C67.1376 96.2739 67.3096 96.3589 67.4856 96.3589C67.5886 96.3589 67.6926 96.3299 67.7846 96.2689C67.7986 96.2589 67.8126 96.2499 67.8276 96.2409C67.8296 96.2399 67.8316 96.2379 67.8336 96.2369C68.0836 96.0699 68.1506 95.7319 67.9836 95.4819C67.8776 95.3249 67.7056 95.2399 67.5296 95.2399ZM71.8766 92.0619C71.7576 92.0619 71.6386 92.1009 71.5386 92.1799L71.4956 92.2139C71.2606 92.4009 71.2216 92.7429 71.4086 92.9789C71.5156 93.1139 71.6746 93.1849 71.8346 93.1849C71.9526 93.1849 72.0716 93.1469 72.1716 93.0679C72.1866 93.0559 72.2026 93.0429 72.2186 93.0309C72.4516 92.8429 72.4896 92.5029 72.3036 92.2679C72.1956 92.1319 72.0366 92.0619 71.8766 92.0619ZM75.9546 88.5429C75.8216 88.5429 75.6886 88.5909 75.5836 88.6889L75.5436 88.7259C75.3236 88.9309 75.3116 89.2749 75.5166 89.4949C75.6236 89.6099 75.7696 89.6679 75.9146 89.6679C76.0466 89.6679 76.1786 89.6199 76.2826 89.5239C76.2976 89.5099 76.3126 89.4959 76.3276 89.4819C76.5456 89.2769 76.5566 88.9339 76.3516 88.7149C76.2456 88.6009 76.1006 88.5429 75.9546 88.5429ZM79.7486 84.7159C79.6016 84.7159 79.4546 84.7749 79.3476 84.8919L79.3106 84.9319C79.1076 85.1529 79.1216 85.4979 79.3426 85.7009C79.4466 85.7969 79.5786 85.8449 79.7106 85.8449C79.8576 85.8449 80.0036 85.7859 80.1106 85.6689C80.1126 85.6669 80.1146 85.6649 80.1166 85.6629C80.1276 85.6509 80.1376 85.6399 80.1486 85.6279C80.3516 85.4069 80.3366 85.0629 80.1156 84.8599C80.0126 84.7639 79.8806 84.7159 79.7486 84.7159ZM83.2436 80.6139C83.0826 80.6139 82.9236 80.6849 82.8166 80.8209L82.7826 80.8639C82.5966 81.0999 82.6366 81.4419 82.8716 81.6289C82.9716 81.7079 83.0906 81.7459 83.2086 81.7459C83.3696 81.7459 83.5286 81.6749 83.6356 81.5389C83.6396 81.5339 83.6426 81.5299 83.6466 81.5249C83.6546 81.5139 83.6626 81.5049 83.6706 81.4949C83.8556 81.2589 83.8156 80.9179 83.5806 80.7319C83.4806 80.6529 83.3616 80.6139 83.2436 80.6139ZM86.4266 76.2629C86.2516 76.2629 86.0806 76.3469 85.9756 76.5019L85.9456 76.5469C85.7776 76.7959 85.8426 77.1339 86.0916 77.3029C86.1856 77.3659 86.2906 77.3969 86.3956 77.3969C86.5686 77.3969 86.7396 77.3139 86.8446 77.1599C86.8566 77.1429 86.8666 77.1269 86.8786 77.1089C87.0446 76.8599 86.9786 76.5239 86.7306 76.3559C86.6366 76.2929 86.5306 76.2629 86.4266 76.2629ZM89.2736 71.6889C89.0846 71.6889 88.9006 71.7879 88.8006 71.9629L88.7736 72.0099C88.6246 72.2709 88.7146 72.6029 88.9756 72.7529C89.0606 72.8019 89.1536 72.8249 89.2456 72.8249C89.4336 72.8249 89.6166 72.7269 89.7166 72.5529C89.7226 72.5429 89.7276 72.5329 89.7336 72.5229L89.7356 72.5199C89.7396 72.5129 89.7426 72.5079 89.7466 72.5009C89.8936 72.2409 89.8026 71.9099 89.5426 71.7609C89.4576 71.7119 89.3656 71.6889 89.2736 71.6889ZM91.7646 66.9109C91.5606 66.9109 91.3646 67.0259 91.2716 67.2229L91.2486 67.2719C91.1196 67.5439 91.2356 67.8679 91.5076 67.9969C91.5826 68.0329 91.6616 68.0499 91.7396 68.0499C91.9426 68.0499 92.1376 67.9359 92.2306 67.7399C92.2316 67.7369 92.2346 67.7309 92.2366 67.7279C92.2426 67.7149 92.2496 67.7009 92.2556 67.6879C92.3846 67.4159 92.2686 67.0919 91.9966 66.9639C91.9216 66.9279 91.8426 66.9109 91.7646 66.9109ZM93.8706 61.9539C93.6506 61.9539 93.4436 62.0879 93.3616 62.3059L93.3426 62.3569C93.2366 62.6379 93.3776 62.9519 93.6586 63.0589C93.7226 63.0829 93.7876 63.0939 93.8516 63.0939C94.0716 63.0939 94.2786 62.9599 94.3606 62.7419C94.3636 62.7339 94.3676 62.7249 94.3706 62.7159V62.7149C94.3736 62.7069 94.3776 62.6979 94.3806 62.6899C94.4866 62.4089 94.3456 62.0949 94.0646 61.9889C93.9996 61.9659 93.9346 61.9539 93.8706 61.9539ZM95.5626 56.8439C95.3256 56.8439 95.1076 56.9999 95.0396 57.2389L95.0246 57.2909C94.9426 57.5799 95.1096 57.8809 95.3986 57.9639C95.4486 57.9779 95.4986 57.9849 95.5486 57.9849C95.7856 57.9849 96.0026 57.8289 96.0716 57.5899C96.0716 57.5879 96.0726 57.5869 96.0726 57.5869L96.0736 57.5839C96.0786 57.5669 96.0826 57.5509 96.0876 57.5339C96.1686 57.2459 96.0006 56.9459 95.7126 56.8639C95.6616 56.8509 95.6116 56.8439 95.5626 56.8439ZM96.8096 51.6089C96.5536 51.6089 96.3256 51.7899 96.2756 52.0509L96.2656 52.1039C96.2086 52.3989 96.4026 52.6839 96.6976 52.7409C96.7326 52.7479 96.7666 52.7509 96.8006 52.7509C97.0566 52.7509 97.2846 52.5699 97.3346 52.3099C97.3376 52.2939 97.3406 52.2769 97.3436 52.2609C97.3436 52.2579 97.3446 52.2569 97.3446 52.2539C97.4006 51.9589 97.2076 51.6749 96.9126 51.6189C96.8776 51.6129 96.8436 51.6089 96.8096 51.6089ZM97.5736 46.2859C97.2966 46.2859 97.0596 46.4969 97.0326 46.7789L97.0276 46.8329C96.9986 47.1319 97.2176 47.3979 97.5176 47.4269C97.5356 47.4289 97.5526 47.4299 97.5706 47.4299C97.8466 47.4299 98.0836 47.2209 98.1106 46.9399C98.1116 46.9339 98.1116 46.9309 98.1116 46.9249C98.1126 46.9159 98.1136 46.9059 98.1146 46.8969V46.8949C98.1146 46.8909 98.1156 46.8859 98.1156 46.8819C98.1446 46.5829 97.9246 46.3169 97.6256 46.2889C97.6086 46.2869 97.5916 46.2859 97.5736 46.2859ZM97.8156 40.9179H97.8116C97.5106 40.9199 97.2686 41.1649 97.2706 41.4659V41.5199C97.2726 41.8189 97.5156 42.0609 97.8146 42.0609H97.8176C98.1166 42.0589 98.3586 41.8159 98.3586 41.5169C98.3586 41.5009 98.3586 41.4879 98.3586 41.4719C98.3586 41.4679 98.3586 41.4629 98.3586 41.4589C98.3576 41.1599 98.1146 40.9179 97.8156 40.9179ZM97.4876 35.5609C97.4666 35.5609 97.4446 35.5619 97.4226 35.5649C97.1246 35.5999 96.9106 35.8709 96.9456 36.1689L96.9516 36.2219C96.9846 36.4989 97.2196 36.7029 97.4916 36.7029C97.5126 36.7029 97.5336 36.7019 97.5556 36.6989C97.8536 36.6639 98.0676 36.3939 98.0326 36.0949C98.0306 36.0819 98.0296 36.0689 98.0276 36.0559C98.0266 36.0499 98.0266 36.0449 98.0256 36.0389C97.9936 35.7629 97.7586 35.5609 97.4876 35.5609ZM96.5396 30.2849C96.4966 30.2849 96.4536 30.2899 96.4096 30.3009C96.1176 30.3719 95.9386 30.6669 96.0096 30.9589L96.0226 31.0109C96.0836 31.2599 96.3066 31.4269 96.5516 31.4269C96.5946 31.4269 96.6376 31.4219 96.6806 31.4109C96.9716 31.3399 97.1506 31.0479 97.0816 30.7569C97.0796 30.7499 97.0776 30.7419 97.0766 30.7359C97.0746 30.7279 97.0726 30.7199 97.0706 30.7119C97.0696 30.7079 97.0686 30.7029 97.0676 30.6989C97.0056 30.4499 96.7836 30.2849 96.5396 30.2849ZM94.9246 25.1799C94.8586 25.1799 94.7906 25.1919 94.7256 25.2179C94.4456 25.3279 94.3086 25.6439 94.4186 25.9239L94.4386 25.9739C94.5226 26.1889 94.7286 26.3199 94.9456 26.3199C95.0116 26.3199 95.0786 26.3079 95.1446 26.2819C95.4236 26.1719 95.5616 25.8569 95.4526 25.5779C95.4526 25.5779 95.4526 25.5769 95.4516 25.5749C95.4446 25.5579 95.4386 25.5419 95.4316 25.5249C95.3466 25.3109 95.1416 25.1799 94.9246 25.1799ZM92.6086 20.3619C92.5166 20.3619 92.4226 20.3859 92.3376 20.4349C92.0776 20.5849 91.9876 20.9179 92.1376 21.1779L92.1646 21.2239C92.2656 21.3989 92.4486 21.4969 92.6366 21.4969C92.7286 21.4969 92.8216 21.4739 92.9076 21.4239C93.1686 21.2739 93.2576 20.9419 93.1076 20.6809C93.1056 20.6779 93.1046 20.6749 93.1026 20.6729C93.0986 20.6659 93.0946 20.6589 93.0906 20.6519C93.0866 20.6459 93.0836 20.6399 93.0796 20.6339C92.9796 20.4599 92.7976 20.3619 92.6086 20.3619ZM89.5856 15.9629C89.4646 15.9629 89.3436 16.0029 89.2426 16.0849C89.0096 16.2749 88.9736 16.6179 89.1636 16.8509L89.1966 16.8919C89.3046 17.0249 89.4616 17.0929 89.6196 17.0929C89.7396 17.0929 89.8616 17.0529 89.9616 16.9719C90.1946 16.7829 90.2306 16.4409 90.0426 16.2079C90.0336 16.1969 90.0246 16.1849 90.0146 16.1739C90.0116 16.1709 90.0096 16.1669 90.0066 16.1639C89.9006 16.0319 89.7436 15.9629 89.5856 15.9629ZM85.8846 12.1149C85.7356 12.1149 85.5876 12.1759 85.4806 12.2949C85.2796 12.5189 85.2976 12.8629 85.5216 13.0639L85.5606 13.0989C85.6646 13.1929 85.7946 13.2389 85.9246 13.2389C86.0736 13.2389 86.2216 13.1779 86.3296 13.0589C86.5296 12.8369 86.5126 12.4949 86.2916 12.2929C86.2846 12.2869 86.2776 12.2809 86.2716 12.2749C86.2636 12.2679 86.2556 12.2609 86.2486 12.2539C86.1446 12.1599 86.0146 12.1149 85.8846 12.1149ZM81.6116 8.93087C81.4296 8.93087 81.2526 9.02187 81.1496 9.18787C80.9906 9.44287 81.0696 9.77887 81.3246 9.93787L81.3696 9.96587C81.4596 10.0219 81.5586 10.0479 81.6566 10.0479C81.8386 10.0479 82.0156 9.95687 82.1196 9.79087C82.2786 9.53587 82.2006 9.20187 81.9466 9.04187L81.9436 9.03987L81.9426 9.03887C81.9316 9.03187 81.9196 9.02487 81.9086 9.01787C81.9056 9.01587 81.9026 9.01387 81.8996 9.01187C81.8096 8.95787 81.7096 8.93087 81.6116 8.93087ZM76.8626 6.50187C76.6486 6.50187 76.4456 6.62887 76.3596 6.83887C76.2456 7.11687 76.3776 7.43487 76.6556 7.54987L76.7046 7.56987C76.7726 7.59787 76.8426 7.61087 76.9116 7.61087C77.1256 7.61087 77.3286 7.48386 77.4156 7.27386C77.5296 6.99686 77.3996 6.67987 77.1236 6.56487C77.1096 6.55887 77.0956 6.55387 77.0816 6.54787C77.0776 6.54587 77.0736 6.54487 77.0696 6.54287C77.0016 6.51487 76.9316 6.50187 76.8626 6.50187ZM71.7776 4.87287C71.5316 4.87287 71.3076 5.04187 71.2486 5.29187C71.1796 5.58387 71.3606 5.87787 71.6536 5.94687L71.7056 5.95887C71.7476 5.96887 71.7896 5.97387 71.8316 5.97387C72.0786 5.97387 72.3016 5.80487 72.3616 5.55487C72.4306 5.26287 72.2506 4.96987 71.9596 4.90087C71.9556 4.89987 71.9516 4.89887 71.9476 4.89787C71.9376 4.89587 71.9276 4.89287 71.9166 4.89087C71.9116 4.88987 71.9066 4.88887 71.9016 4.88687C71.8596 4.87787 71.8176 4.87287 71.7776 4.87287ZM66.4966 4.03786C66.2166 4.03786 65.9796 4.25187 65.9556 4.53587C65.9306 4.83487 66.1526 5.09887 66.4516 5.12387L66.5046 5.12887C66.5206 5.12987 66.5356 5.13087 66.5516 5.13087C66.8316 5.13087 67.0686 4.91687 67.0936 4.63287C67.1196 4.33387 66.8976 4.06986 66.5976 4.04486C66.5806 4.04386 66.5626 4.04187 66.5446 4.04087H66.5416C66.5276 4.03887 66.5126 4.03786 66.4966 4.03786Z"
        fill="#000D1E" />
    <path
        d="M14.0045 100.01C14.5905 100.527 15.2045 101.028 15.8405 101.503C17.3845 102.662 18.9985 103.68 20.6865 104.543C20.6915 104.552 20.6915 104.552 20.7065 104.556C20.8435 104.641 20.9885 104.72 21.1445 104.794C40.8145 114.656 68.8085 105.205 86.5865 81.6409C105.184 56.9659 105.835 25.7809 88.6355 10.1699L88.5945 10.1429C87.8425 9.44486 87.0485 8.78386 86.2125 8.15986C66.5785 -6.64314 34.9115 2.24486 15.4665 28.0219C-3.33846 52.9669 -3.79347 84.5789 14.0045 100.01Z"
        stroke="#000D1E" stroke-width="0.8162" stroke-miterlimit="10" />
    <path
        d="M21.1445 104.794L29.4615 110.359C49.0695 119.391 76.4145 109.861 93.8655 86.7099C112.775 61.6169 113.136 29.7959 95.0505 14.4549L88.6365 10.1699C105.836 25.7809 105.185 56.9659 86.5876 81.6409C68.8086 105.206 40.8155 114.657 21.1445 104.794Z"
        fill="#06316A" />
    <path
        d="M21.1445 104.794L29.4615 110.359C49.0695 119.391 76.4145 109.861 93.8655 86.7099C112.775 61.6169 113.136 29.7959 95.0505 14.4549L88.6365 10.1699C105.836 25.7809 105.185 56.9659 86.5876 81.6409C68.8086 105.206 40.8155 114.657 21.1445 104.794Z"
        stroke="#000D1E" stroke-width="0.8162" stroke-miterlimit="10" />
    <path
        d="M16.0215 84.9709L16.0435 85.0089C17.8595 87.8439 20.1315 90.2919 22.7875 92.2929C33.5125 100.39 48.7495 99.6709 62.2925 91.8929C68.6625 88.2349 74.6645 83.0179 79.6405 76.4069C91.3735 60.8459 94.5375 41.0939 87.5135 27.2689L87.5175 27.2539L87.4535 27.1649C87.2395 26.8359 87.0025 26.5329 86.7795 26.2099C84.8245 22.7399 82.2706 19.8009 79.1916 17.4779C63.4776 5.63186 38.0545 12.7409 22.5225 33.3339C10.3285 49.5119 7.51254 69.9799 15.4135 83.7149C15.6085 84.1409 15.8075 84.5539 16.0215 84.9709Z"
        fill="#06316A" />
    <path
        d="M16.3816 84.7889C18.1496 87.5389 20.3705 89.9649 23.0265 91.9669C38.6545 103.75 63.8545 96.6679 79.3135 76.1679C91.3445 60.2089 93.9395 40.8219 87.1525 27.4519C87.1365 27.4239 87.1155 27.4099 87.1145 27.3859C85.3425 24.6509 83.1355 22.2289 80.4855 20.2369C64.8635 8.46386 39.6575 15.5359 24.1985 36.0359C12.1635 52.0079 9.56456 71.4109 16.3816 84.7889Z"
        stroke="#000D1E" stroke-width="0.8162" stroke-miterlimit="10" />
    <path
        d="M16.3816 84.7889C9.56356 71.4109 12.1625 52.0079 24.1985 36.0349C39.6585 15.5339 64.8635 8.46286 80.4855 20.2359C83.1355 22.2279 85.3425 24.6499 87.1145 27.3849C85.1655 23.5979 82.4785 20.2959 79.0275 17.6969C63.3996 5.91386 38.1995 12.9959 22.7405 33.4959C9.91253 50.5149 7.80556 71.4289 16.3816 84.7889Z"
        fill="#000D1E" stroke="#000D1E" stroke-width="0.5441" stroke-miterlimit="10" />
    <g opacity="0.27">
        <mask id="mask0_1_1259" style="mask-type:luminance" maskUnits="userSpaceOnUse" x="1" y="1" width="101"
            height="108">
            <path
                d="M14.0045 100.01C14.5905 100.527 15.2045 101.028 15.8405 101.503C17.3845 102.662 18.9985 103.68 20.6865 104.543C20.6915 104.552 20.6915 104.552 20.7065 104.556C20.8435 104.641 20.9885 104.72 21.1445 104.794C40.8145 114.656 68.8085 105.205 86.5865 81.6409C105.184 56.9659 105.835 25.7809 88.6355 10.1699L88.5945 10.1429C87.8425 9.44486 87.0485 8.78386 86.2125 8.15986C66.5785 -6.64314 34.9115 2.24486 15.4665 28.0219C-3.33846 52.9669 -3.79347 84.5789 14.0045 100.01Z"
                fill="white" />
        </mask>
        <g mask="url(#mask0_1_1259)">
            <path d="M95.7492 100.821L106.363 94.726L45.7289 -10.8599L35.1153 -4.76489L95.7492 100.821Z"
                fill="#000D1E" />
            <path d="M50.5407 126.811L61.1531 120.716L0.519149 15.1425L-10.0933 21.2375L50.5407 126.811Z"
                fill="#000D1E" />
            <path d="M29.6006 138.84L40.2131 132.745L-20.4209 27.1712L-31.0334 33.2662L29.6006 138.84Z"
                fill="#000D1E" />
            <path d="M119.719 87.0752L130.331 80.9802L69.6974 -24.5936L59.085 -18.4985L119.719 87.0752Z"
                fill="#000D1E" />
            <path d="M71.4283 114.791L88.1028 105.215L27.4689 -0.370612L10.7943 9.20493L71.4283 114.791Z"
                fill="#000D1E" />
        </g>
    </g>
</svg>