<svg width="87" height="114" viewBox="0 0 87 114" fill="none" xmlns="http://www.w3.org/2000/svg">
    <path
        d="M83.5166 75.5019C83.2416 76.3159 82.9296 77.1308 82.5826 77.9338C81.7446 79.8858 80.7616 81.7429 79.6246 83.4919C79.6246 83.5039 79.6246 83.5038 79.6126 83.5158C79.5286 83.6718 79.4326 83.8269 79.3246 83.9828C65.9566 104.178 34.0596 110.503 4.17364 97.7578C-27.1014 84.4018 -44.8174 54.9958 -36.9594 30.6678L-36.9354 30.6198C-36.6004 29.5418 -36.2044 28.4758 -35.7494 27.4218C-25.1254 2.53084 9.97163 -6.34416 42.6596 7.59784C74.2816 21.0968 92.0456 51.0179 83.5166 75.5019Z"
        fill="#06316A" />
    <path
        d="M11.9896 3.78284C11.9706 3.78284 11.9506 3.78284 11.9326 3.78284C11.6026 3.78384 11.3356 4.05184 11.3366 4.38184C11.3366 4.71284 11.6046 4.98083 11.9356 4.98083H11.9896C12.3206 4.98083 12.5886 4.71284 12.5886 4.38184C12.5876 4.05084 12.3196 3.78284 11.9896 3.78284ZM6.07963 4.04684C6.06163 4.04684 6.04264 4.04784 6.02464 4.04984C6.00664 4.05184 5.98765 4.05284 5.96965 4.05484C5.64065 4.08484 5.39764 4.37584 5.42764 4.70584C5.45664 5.01684 5.71763 5.24985 6.02363 5.24985C6.04163 5.24985 6.05964 5.24886 6.07864 5.24686L6.13264 5.24185C6.46164 5.21185 6.70463 4.92085 6.67463 4.59085C6.64763 4.28085 6.38663 4.04684 6.07963 4.04684ZM0.224636 4.86185C0.188637 4.86185 0.152641 4.86486 0.115643 4.87186C0.0996437 4.87486 0.0836296 4.87786 0.0666313 4.88086C0.063633 4.88186 0.0606422 4.88184 0.0576439 4.88284C-0.267357 4.94484 -0.480354 5.25786 -0.418354 5.58286C-0.363354 5.86986 -0.112358 6.06985 0.169643 6.06985C0.206642 6.06985 0.244644 6.06584 0.281643 6.05884L0.334637 6.04886C0.659637 5.98686 0.872643 5.67385 0.811642 5.34885C0.757641 5.06185 0.506638 4.86185 0.224636 4.86185ZM-5.51336 6.25986C-5.57035 6.25986 -5.62836 6.26786 -5.68636 6.28586H-5.68836C-5.69536 6.28786 -5.70236 6.28985 -5.71036 6.29285C-5.71136 6.29285 -5.71336 6.29385 -5.71436 6.29385C-5.72236 6.29685 -5.73136 6.29885 -5.74036 6.30185C-6.05736 6.39685 -6.23635 6.73185 -6.14035 7.04785C-6.06236 7.30685 -5.82436 7.47385 -5.56636 7.47385C-5.50937 7.47385 -5.45036 7.46585 -5.39336 7.44785L-5.34136 7.43185C-5.02436 7.33685 -4.84536 7.00185 -4.94036 6.68585C-5.01836 6.42685 -5.25636 6.25986 -5.51336 6.25986ZM-11.0584 8.27783C-11.1364 8.27783 -11.2164 8.29384 -11.2924 8.32584C-11.3114 8.33384 -11.3304 8.34186 -11.3494 8.35086C-11.6504 8.48286 -11.7884 8.83384 -11.6574 9.13684C-11.5594 9.36284 -11.3384 9.49783 -11.1074 9.49783C-11.0284 9.49783 -10.9474 9.48185 -10.8704 9.44885L-10.8214 9.42786C-10.5174 9.29686 -10.3784 8.94386 -10.5084 8.63986C-10.6064 8.41286 -10.8264 8.27783 -11.0584 8.27783ZM-16.3124 10.9449C-16.4154 10.9449 -16.5204 10.9718 -16.6164 11.0278C-16.6224 11.0308 -16.6274 11.0338 -16.6324 11.0378C-16.6334 11.0388 -16.6344 11.0389 -16.6354 11.0399C-16.6454 11.0459 -16.6574 11.0528 -16.6674 11.0588C-16.9494 11.2288 -17.0414 11.5939 -16.8734 11.8769C-16.7614 12.0659 -16.5624 12.1708 -16.3574 12.1708C-16.2534 12.1708 -16.1484 12.1439 -16.0524 12.0869L-16.0064 12.0598C-15.7214 11.8908 -15.6274 11.5239 -15.7964 11.2389C-15.9084 11.0499 -16.1074 10.9449 -16.3124 10.9449ZM-21.1554 14.2838C-21.2864 14.2838 -21.4184 14.3269 -21.5294 14.4149C-21.5324 14.4179 -21.5364 14.4209 -21.5394 14.4229C-21.5424 14.4259 -21.5474 14.4299 -21.5514 14.4319C-21.5534 14.4329 -21.5544 14.4339 -21.5564 14.4359C-21.5624 14.4409 -21.5674 14.4449 -21.5734 14.4499C-21.8304 14.6569 -21.8724 15.0328 -21.6654 15.2908C-21.5474 15.4388 -21.3734 15.5149 -21.1974 15.5149C-21.0664 15.5149 -20.9334 15.4718 -20.8234 15.3828L-20.7814 15.3499C-20.5234 15.1429 -20.4814 14.7658 -20.6884 14.5078C-20.8064 14.3608 -20.9804 14.2838 -21.1554 14.2838ZM-25.4534 18.2878C-25.6144 18.2878 -25.7744 18.3529 -25.8924 18.4799C-25.8964 18.4849 -25.8994 18.4879 -25.9034 18.4919C-25.9044 18.4929 -25.9054 18.4938 -25.9064 18.4948C-25.9094 18.4988 -25.9134 18.5028 -25.9174 18.5068C-25.9224 18.5118 -25.9264 18.5169 -25.9314 18.5219C-26.1554 18.7659 -26.1384 19.1439 -25.8944 19.3679C-25.7794 19.4729 -25.6344 19.5258 -25.4894 19.5258C-25.3274 19.5258 -25.1664 19.4608 -25.0474 19.3318L-25.0114 19.2928C-24.7874 19.0488 -24.8034 18.6698 -25.0474 18.4468C-25.1634 18.3398 -25.3084 18.2878 -25.4534 18.2878ZM-29.0624 22.9138C-29.2564 22.9138 -29.4464 23.0079 -29.5614 23.1819C-29.5724 23.1989 -29.5844 23.2158 -29.5944 23.2328C-29.7734 23.5088 -29.6954 23.8788 -29.4194 24.0588C-29.3184 24.1248 -29.2044 24.1569 -29.0924 24.1569C-28.8974 24.1569 -28.7054 24.0618 -28.5904 23.8858L-28.5614 23.8409C-28.3804 23.5639 -28.4574 23.1928 -28.7344 23.0118C-28.8364 22.9458 -28.9504 22.9138 -29.0624 22.9138ZM-31.8614 28.0688C-32.0904 28.0688 -32.3094 28.2009 -32.4084 28.4239C-32.4124 28.4329 -32.4154 28.4398 -32.4194 28.4478C-32.4234 28.4578 -32.4274 28.4668 -32.4324 28.4768C-32.5654 28.7798 -32.4274 29.1328 -32.1244 29.2658C-32.0464 29.2998 -31.9644 29.3159 -31.8844 29.3159C-31.6534 29.3159 -31.4334 29.1818 -31.3354 28.9568L-31.3144 28.9078C-31.1814 28.6048 -31.3194 28.2518 -31.6224 28.1188C-31.6994 28.0848 -31.7804 28.0688 -31.8614 28.0688ZM-33.7664 33.6169C-34.0334 33.6169 -34.2774 33.7968 -34.3464 34.0678C-34.3494 34.0808 -34.3524 34.0938 -34.3564 34.1068C-34.3574 34.1118 -34.3594 34.1168 -34.3604 34.1228C-34.4414 34.4438 -34.2474 34.7689 -33.9264 34.8499C-33.8774 34.8619 -33.8284 34.8679 -33.7794 34.8679C-33.5114 34.8679 -33.2674 34.6869 -33.1984 34.4149L-33.1854 34.3629C-33.1044 34.0419 -33.2984 33.7169 -33.6194 33.6349C-33.6684 33.6229 -33.7174 33.6169 -33.7664 33.6169ZM-34.7344 39.4038C-35.0424 39.4038 -35.3034 39.6398 -35.3304 39.9518C-35.3304 39.9558 -35.3314 39.9608 -35.3314 39.9648V39.9669C-35.3324 39.9799 -35.3334 39.9938 -35.3344 40.0068C-35.3624 40.3368 -35.1174 40.6258 -34.7874 40.6538C-34.7704 40.6548 -34.7534 40.6559 -34.7374 40.6559C-34.4294 40.6559 -34.1674 40.4198 -34.1414 40.1068L-34.1364 40.0538C-34.1084 39.7238 -34.3534 39.4349 -34.6834 39.4069C-34.7004 39.4039 -34.7174 39.4038 -34.7344 39.4038ZM-34.7704 45.2769C-34.7844 45.2769 -34.7984 45.2768 -34.8124 45.2778C-35.1424 45.3008 -35.3914 45.5868 -35.3674 45.9168C-35.3664 45.9258 -35.3664 45.9348 -35.3654 45.9438C-35.3644 45.9538 -35.3634 45.9649 -35.3634 45.9759C-35.3394 46.2899 -35.0774 46.5278 -34.7674 46.5278C-34.7534 46.5278 -34.7384 46.5268 -34.7244 46.5258C-34.3944 46.5028 -34.1464 46.2158 -34.1694 45.8858L-34.1734 45.8329C-34.1954 45.5179 -34.4584 45.2769 -34.7704 45.2769ZM-33.9374 51.0999C-33.9794 51.0999 -34.0214 51.1039 -34.0634 51.1139C-34.3864 51.1839 -34.5924 51.5019 -34.5224 51.8249C-34.5204 51.8339 -34.5184 51.8419 -34.5164 51.8509C-34.5144 51.8609 -34.5124 51.8708 -34.5094 51.8818C-34.4474 52.1608 -34.2004 52.3509 -33.9254 52.3509C-33.8834 52.3509 -33.8404 52.3469 -33.7984 52.3369C-33.4754 52.2669 -33.2694 51.9478 -33.3394 51.6248L-33.3504 51.5728C-33.4124 51.2918 -33.6614 51.0999 -33.9374 51.0999ZM-32.3254 56.7649C-32.3914 56.7649 -32.4594 56.7758 -32.5254 56.7998C-32.8374 56.9108 -33.0004 57.2528 -32.8894 57.5638C-32.8834 57.5808 -32.8774 57.5978 -32.8714 57.6148V57.6158C-32.7844 57.8608 -32.5534 58.0139 -32.3074 58.0139C-32.2414 58.0139 -32.1734 58.0028 -32.1064 57.9789C-31.7944 57.8679 -31.6314 57.5258 -31.7424 57.2138L-31.7604 57.1628C-31.8474 56.9188 -32.0784 56.7649 -32.3254 56.7649ZM-30.0304 62.1978C-30.1194 62.1978 -30.2094 62.2179 -30.2944 62.2599C-30.5914 62.4059 -30.7134 62.7649 -30.5674 63.0619C-30.5594 63.0789 -30.5514 63.0948 -30.5434 63.1108C-30.4394 63.3228 -30.2274 63.4449 -30.0064 63.4449C-29.9174 63.4449 -29.8274 63.4248 -29.7424 63.3828C-29.4454 63.2368 -29.3234 62.8768 -29.4704 62.5808L-29.4944 62.5328C-29.5964 62.3208 -29.8084 62.1978 -30.0304 62.1978ZM-27.1414 67.3488C-27.2504 67.3488 -27.3614 67.3788 -27.4614 67.4418C-27.7414 67.6188 -27.8244 67.9889 -27.6474 68.2679C-27.6474 68.2679 -27.6474 68.2689 -27.6464 68.2689C-27.6354 68.2859 -27.6264 68.2999 -27.6164 68.3159C-27.5024 68.4949 -27.3094 68.5928 -27.1114 68.5928C-27.0024 68.5928 -26.8914 68.5629 -26.7914 68.4998C-26.5124 68.3228 -26.4284 67.9529 -26.6054 67.6729L-26.6344 67.6278C-26.7484 67.4478 -26.9424 67.3488 -27.1414 67.3488ZM-23.7404 72.1838C-23.8694 72.1838 -23.9984 72.2248 -24.1084 72.3098C-24.3684 72.5128 -24.4164 72.8878 -24.2144 73.1488C-24.2134 73.1498 -24.2104 73.1528 -24.2094 73.1548C-24.1994 73.1678 -24.1894 73.1808 -24.1784 73.1938C-24.0604 73.3448 -23.8844 73.4248 -23.7054 73.4248C-23.5764 73.4248 -23.4474 73.3839 -23.3374 73.2979C-23.0764 73.0948 -23.0294 72.7178 -23.2334 72.4568L-23.2664 72.4138C-23.3854 72.2628 -23.5624 72.1838 -23.7404 72.1838ZM-19.8954 76.6798C-20.0424 76.6798 -20.1894 76.7339 -20.3044 76.8419C-20.5454 77.0669 -20.5584 77.4449 -20.3334 77.6859C-20.3194 77.7009 -20.3064 77.7149 -20.2924 77.7299C-20.1744 77.8539 -20.0164 77.9168 -19.8574 77.9168C-19.7104 77.9168 -19.5634 77.8629 -19.4484 77.7549C-19.2074 77.5289 -19.1944 77.1498 -19.4214 76.9078L-19.4584 76.8688C-19.5764 76.7428 -19.7354 76.6798 -19.8954 76.6798ZM-15.6664 80.8199C-15.8304 80.8199 -15.9934 80.8869 -16.1124 81.0189C-16.3334 81.2649 -16.3134 81.6438 -16.0674 81.8648C-16.0654 81.8668 -16.0634 81.8688 -16.0614 81.8698C-16.0494 81.8808 -16.0364 81.8918 -16.0244 81.9028C-15.9104 82.0048 -15.7684 82.0538 -15.6264 82.0538C-15.4624 82.0538 -15.2994 81.9869 -15.1804 81.8549C-14.9594 81.6089 -14.9794 81.2299 -15.2264 81.0089L-15.2664 80.9728C-15.3804 80.8708 -15.5244 80.8199 -15.6664 80.8199ZM-11.1034 84.5928C-11.2844 84.5928 -11.4624 84.6739 -11.5804 84.8289C-11.7804 85.0909 -11.7294 85.4648 -11.4684 85.6658C-11.4614 85.6708 -11.4534 85.6779 -11.4454 85.6829C-11.4374 85.6889 -11.4294 85.6948 -11.4214 85.7008C-11.3134 85.7828 -11.1854 85.8228 -11.0594 85.8228C-10.8784 85.8228 -10.7004 85.7418 -10.5824 85.5858C-10.3824 85.3228 -10.4334 84.9469 -10.6974 84.7469L-10.7404 84.7138C-10.8494 84.6328 -10.9774 84.5928 -11.1034 84.5928ZM-6.25035 87.9898C-6.44736 87.9898 -6.64036 88.0869 -6.75536 88.2649C-6.93336 88.5419 -6.85436 88.9118 -6.57836 89.0909C-6.57036 89.0958 -6.56536 89.0989 -6.55736 89.1039C-6.54836 89.1098 -6.53935 89.1159 -6.53035 89.1219C-6.43035 89.1859 -6.31836 89.2169 -6.20736 89.2169C-6.01035 89.2169 -5.81736 89.1198 -5.70336 88.9418C-5.52436 88.6638 -5.60537 88.2929 -5.88337 88.1139L-5.92936 88.0848C-6.02736 88.0208 -6.14035 87.9898 -6.25035 87.9898ZM-1.14837 91.0009C-1.36137 91.0009 -1.56736 91.1149 -1.67636 91.3148C-1.83337 91.6049 -1.72536 91.9669 -1.43636 92.1248C-1.41936 92.1339 -1.40136 92.1438 -1.38536 92.1528C-1.29536 92.2018 -1.19736 92.2249 -1.10236 92.2249C-0.889359 92.2249 -0.683361 92.1108 -0.57436 91.9099C-0.417358 91.6189 -0.526356 91.2548 -0.817356 91.0978L-0.86536 91.0718C-0.95536 91.0238 -1.05236 91.0009 -1.14837 91.0009ZM4.16764 93.6208C3.93864 93.6208 3.71963 93.7529 3.62063 93.9749C3.48563 94.2759 3.61964 94.6299 3.92064 94.7649C3.93864 94.7729 3.95564 94.7808 3.97364 94.7888C4.05264 94.8239 4.13564 94.8409 4.21664 94.8409C4.44564 94.8409 4.66364 94.7088 4.76364 94.4858C4.89864 94.1838 4.76263 93.8299 4.46164 93.6949L4.41264 93.6729C4.33164 93.6368 4.24865 93.6208 4.16764 93.6208ZM9.66264 95.8398C9.41764 95.8398 9.18764 95.9918 9.09864 96.2358C8.98664 96.5468 9.14764 96.8898 9.45864 97.0028C9.46764 97.0058 9.47765 97.0098 9.48664 97.0128C9.49564 97.0158 9.50464 97.0199 9.51364 97.0229C9.57964 97.0459 9.64663 97.0579 9.71363 97.0579C9.95863 97.0579 10.1886 96.9058 10.2766 96.6618C10.3886 96.3508 10.2276 96.0078 9.91664 95.8948L9.86564 95.8769C9.79864 95.8509 9.72964 95.8398 9.66264 95.8398ZM15.3066 97.6429C15.0446 97.6429 14.8036 97.8168 14.7296 98.0818C14.6416 98.3988 14.8256 98.7278 15.1426 98.8178C15.1566 98.8218 15.1696 98.8259 15.1836 98.8289C15.1886 98.8299 15.1946 98.8319 15.1996 98.8329C15.2536 98.8479 15.3076 98.8549 15.3606 98.8549C15.6226 98.8549 15.8636 98.6808 15.9366 98.4158C16.0256 98.0968 15.8386 97.7669 15.5196 97.6779L15.4676 97.6638C15.4136 97.6498 15.3596 97.6429 15.3066 97.6429ZM21.0706 99.0099C20.7896 99.0099 20.5396 99.2078 20.4836 99.4938C20.4196 99.8178 20.6306 100.132 20.9536 100.196C20.9616 100.198 20.9706 100.199 20.9786 100.201C20.9886 100.203 20.9996 100.205 21.0096 100.207C21.0486 100.215 21.0876 100.218 21.1256 100.218C21.4056 100.218 21.6566 100.02 21.7126 99.7339C21.7766 99.4089 21.5646 99.0949 21.2396 99.0309L21.1866 99.0208C21.1466 99.0138 21.1086 99.0099 21.0706 99.0099ZM26.9216 99.9178C26.6216 99.9178 26.3616 100.144 26.3266 100.449C26.2896 100.778 26.5256 101.074 26.8536 101.112C26.8666 101.113 26.8786 101.115 26.8916 101.116C26.8966 101.117 26.9036 101.117 26.9086 101.118C26.9316 101.121 26.9536 101.122 26.9766 101.122C27.2766 101.122 27.5356 100.896 27.5706 100.591C27.6076 100.262 27.3716 99.9659 27.0426 99.9279L26.9886 99.9218C26.9676 99.9188 26.9446 99.9178 26.9216 99.9178ZM32.8266 100.344C32.5036 100.344 32.2376 100.601 32.2276 100.925C32.2176 101.255 32.4766 101.53 32.8056 101.541C32.8176 101.541 32.8316 101.542 32.8436 101.542C32.8506 101.542 32.8566 101.543 32.8636 101.543C32.8696 101.543 32.8756 101.543 32.8816 101.543C33.2046 101.543 33.4706 101.286 33.4796 100.962C33.4896 100.631 33.2286 100.356 32.8986 100.346L32.8447 100.344C32.8387 100.344 32.8326 100.344 32.8266 100.344ZM38.7986 100.256C38.7866 100.256 38.7747 100.256 38.7626 100.257L38.7086 100.26C38.3786 100.28 38.1266 100.563 38.1456 100.894C38.1646 101.212 38.4286 101.457 38.7426 101.457C38.7546 101.457 38.7666 101.457 38.7786 101.456C38.7966 101.455 38.8157 101.454 38.8336 101.453C39.1637 101.433 39.4156 101.15 39.3956 100.82C39.3766 100.501 39.1126 100.256 38.7986 100.256ZM44.6776 99.6269C44.6476 99.6269 44.6166 99.6289 44.5856 99.6339L44.5326 99.6418C44.2056 99.6928 43.9816 99.9988 44.0326 100.326C44.0786 100.622 44.3336 100.833 44.6236 100.833C44.6546 100.833 44.6846 100.831 44.7166 100.826C44.7346 100.823 44.7526 100.82 44.7706 100.817C45.0976 100.766 45.3216 100.46 45.2706 100.133C45.2226 99.8388 44.9676 99.6269 44.6776 99.6269ZM50.4616 98.4258C50.4116 98.4258 50.3606 98.4319 50.3096 98.4459L50.2576 98.4598C49.9376 98.5438 49.7456 98.8709 49.8296 99.1909C49.8996 99.4599 50.1426 99.6389 50.4086 99.6389C50.4586 99.6389 50.5086 99.6328 50.5596 99.6198C50.5616 99.6188 50.5636 99.6189 50.5656 99.6179C50.5766 99.6149 50.5876 99.6119 50.5986 99.6089C50.5996 99.6089 50.6006 99.6088 50.6016 99.6078C50.6056 99.6068 50.6096 99.6059 50.6136 99.6049C50.9336 99.5209 51.1246 99.1938 51.0416 98.8738C50.9706 98.6038 50.7276 98.4258 50.4616 98.4258ZM56.0786 96.6179C56.0066 96.6179 55.9346 96.6308 55.8636 96.6578L55.8136 96.6768C55.5046 96.7959 55.3506 97.1418 55.4697 97.4508C55.5607 97.6888 55.7876 97.8348 56.0286 97.8348C56.1006 97.8348 56.1726 97.8219 56.2436 97.7949C56.2456 97.7939 56.2476 97.7928 56.2506 97.7928C56.2546 97.7918 56.2566 97.7908 56.2596 97.7888C56.2716 97.7849 56.2836 97.7798 56.2946 97.7748C56.6036 97.6558 56.7567 97.3099 56.6376 97.0009C56.5466 96.7639 56.3196 96.6179 56.0786 96.6179ZM61.4406 94.1689C61.3456 94.1689 61.2486 94.1918 61.1586 94.2398L61.1116 94.2649C60.8196 94.4209 60.7096 94.7838 60.8646 95.0758C60.9726 95.2778 61.1796 95.3929 61.3936 95.3929C61.4876 95.3929 61.5836 95.3708 61.6726 95.3239C61.6756 95.3219 61.6796 95.3198 61.6836 95.3178C61.6956 95.3108 61.7076 95.3049 61.7197 95.2989C61.7226 95.2979 61.7226 95.2968 61.7256 95.2958C62.0166 95.1398 62.1266 94.7778 61.9706 94.4858C61.8616 94.2838 61.6546 94.1689 61.4406 94.1689ZM66.4356 91.0548C66.3136 91.0548 66.1916 91.0919 66.0846 91.1689L66.0416 91.1999C65.7736 91.3939 65.7136 91.7679 65.9066 92.0359C66.0236 92.1979 66.2066 92.2838 66.3926 92.2838C66.5146 92.2838 66.6366 92.2469 66.7426 92.1699C66.7576 92.1589 66.7726 92.1488 66.7876 92.1378C67.0556 91.9438 67.1156 91.5698 66.9216 91.3018C66.8036 91.1408 66.6206 91.0548 66.4356 91.0548ZM70.9306 87.2689C70.7796 87.2689 70.6276 87.3259 70.5116 87.4398L70.4736 87.4768C70.2376 87.7078 70.2326 88.0879 70.4646 88.3239C70.5816 88.4439 70.7376 88.5038 70.8926 88.5038C71.0426 88.5038 71.1926 88.4478 71.3086 88.3348C71.3206 88.3238 71.3326 88.3118 71.3436 88.3008C71.3446 88.2998 71.3446 88.2999 71.3456 88.2989C71.3476 88.2969 71.3496 88.2948 71.3516 88.2928C71.5866 88.0618 71.5907 87.6828 71.3596 87.4468C71.2417 87.3288 71.0866 87.2689 70.9306 87.2689ZM74.7846 82.8409C74.6006 82.8409 74.4196 82.9249 74.3016 83.0839L74.2706 83.1269C74.0736 83.3929 74.1306 83.7678 74.3966 83.9648C74.5036 84.0438 74.6286 84.0818 74.7516 84.0818C74.9346 84.0818 75.1146 83.9989 75.2316 83.8419C75.2436 83.8259 75.2556 83.8099 75.2676 83.7939C75.4626 83.5279 75.4056 83.1539 75.1396 82.9579C75.0326 82.8789 74.9086 82.8409 74.7846 82.8409ZM77.8596 77.8468C77.6416 77.8468 77.4306 77.9669 77.3246 78.1739L77.3006 78.2209C77.1506 78.5159 77.2676 78.8769 77.5626 79.0269C77.6496 79.0709 77.7426 79.0928 77.8346 79.0928C78.0526 79.0928 78.2626 78.9738 78.3686 78.7658C78.3696 78.7628 78.3716 78.7598 78.3736 78.7568C78.3816 78.7418 78.3886 78.7279 78.3956 78.7129C78.5426 78.4189 78.4256 78.0608 78.1316 77.9118C78.0446 77.8678 77.9517 77.8468 77.8596 77.8468ZM80.0666 72.4128C79.8116 72.4128 79.5756 72.5769 79.4946 72.8329L79.4786 72.8839C79.3796 73.1999 79.5546 73.5359 79.8706 73.6349C79.9306 73.6539 79.9906 73.6628 80.0506 73.6628C80.3036 73.6628 80.5386 73.5009 80.6206 73.2469C80.6226 73.2409 80.6236 73.2368 80.6256 73.2308C80.6286 73.2208 80.6316 73.2099 80.6356 73.1999C80.6366 73.1959 80.6376 73.1918 80.6396 73.1878C80.7366 72.8728 80.5606 72.5389 80.2466 72.4409C80.1856 72.4219 80.1256 72.4128 80.0666 72.4128ZM81.3486 66.6888C81.0546 66.6888 80.7976 66.9058 80.7556 67.2058L80.7486 67.2589C80.7026 67.5868 80.9316 67.8888 81.2586 67.9348C81.2866 67.9388 81.3146 67.9409 81.3426 67.9409C81.6366 67.9409 81.8926 67.7248 81.9346 67.4258L81.9356 67.4229C81.9376 67.4059 81.9406 67.3889 81.9426 67.3708C81.9886 67.0429 81.7597 66.7409 81.4326 66.6949C81.4036 66.6909 81.3756 66.6888 81.3486 66.6888ZM81.6906 60.8279C81.6866 60.8279 81.6826 60.8279 81.6786 60.8279C81.3476 60.8349 81.0846 61.1078 81.0916 61.4388L81.0926 61.4919C81.0986 61.8189 81.3656 62.0798 81.6916 62.0798C81.6956 62.0798 81.6996 62.0798 81.7026 62.0798C82.0326 62.0738 82.2956 61.8009 82.2896 61.4709C82.2896 61.4699 82.2896 61.4668 82.2896 61.4648C82.2896 61.4618 82.2896 61.4588 82.2896 61.4558V61.4548C82.2896 61.4418 82.2896 61.4298 82.2886 61.4168V61.4128C82.2816 61.0868 82.0156 60.8279 81.6906 60.8279ZM81.1386 54.9749C81.1056 54.9749 81.0726 54.9778 81.0386 54.9828C80.7126 55.0378 80.4926 55.3469 80.5466 55.6729L80.5556 55.7259C80.6047 56.0189 80.8586 56.2268 81.1456 56.2268C81.1786 56.2268 81.2116 56.2238 81.2446 56.2188C81.5706 56.1648 81.7916 55.8558 81.7366 55.5298C81.7337 55.5118 81.7306 55.4939 81.7276 55.4759C81.6786 55.1819 81.4256 54.9749 81.1386 54.9749ZM79.7736 49.2469C79.7146 49.2469 79.6556 49.2558 79.5966 49.2738C79.2806 49.3718 79.1036 49.7069 79.2006 50.0229L79.2166 50.0739C79.2956 50.3319 79.5326 50.4969 79.7896 50.4969C79.8476 50.4969 79.9066 50.4879 79.9656 50.4698C80.2806 50.3728 80.4586 50.0398 80.3626 49.7238C80.3566 49.7048 80.3506 49.6839 80.3447 49.6649C80.2636 49.4109 80.0276 49.2469 79.7736 49.2469ZM77.6936 43.7299C77.6116 43.7299 77.5296 43.7469 77.4496 43.7819C77.1476 43.9169 77.0116 44.2708 77.1466 44.5728L77.1686 44.6219C77.2676 44.8449 77.4866 44.9768 77.7166 44.9768C77.7976 44.9768 77.8806 44.9598 77.9596 44.9248C78.2606 44.7908 78.3967 44.4388 78.2646 44.1378C78.2566 44.1188 78.2476 44.0998 78.2396 44.0808C78.1386 43.8618 77.9216 43.7299 77.6936 43.7299ZM74.9916 38.4808C74.8886 38.4808 74.7846 38.5068 74.6896 38.5628C74.4036 38.7298 74.3076 39.0968 74.4746 39.3818L74.5016 39.4279C74.6126 39.6189 74.8136 39.7249 75.0196 39.7249C75.1226 39.7249 75.2256 39.6989 75.3206 39.6429C75.6067 39.4759 75.7026 39.1099 75.5356 38.8239C75.5296 38.8129 75.5226 38.8018 75.5166 38.7908C75.5136 38.7848 75.5106 38.7798 75.5066 38.7748C75.3956 38.5858 75.1966 38.4808 74.9916 38.4808ZM71.7526 33.5388C71.6306 33.5388 71.5067 33.5758 71.4007 33.6538C71.1337 33.8488 71.0746 34.2228 71.2686 34.4908L71.3006 34.5349C71.4176 34.6959 71.6006 34.7809 71.7856 34.7809C71.9076 34.7809 72.0316 34.7438 72.1376 34.6658C72.4056 34.4708 72.4646 34.0968 72.2696 33.8298C72.2686 33.8288 72.2676 33.8278 72.2666 33.8258C72.2566 33.8118 72.2467 33.7989 72.2366 33.7849C72.1207 33.6249 71.9376 33.5388 71.7526 33.5388ZM68.0486 28.9288C67.9076 28.9288 67.7666 28.9779 67.6526 29.0789C67.4046 29.2979 67.3806 29.6758 67.5996 29.9248L67.6356 29.9648C67.7536 30.0988 67.9196 30.1678 68.0856 30.1678C68.2266 30.1678 68.3676 30.1189 68.4816 30.0179C68.7296 29.7989 68.7536 29.4209 68.5346 29.1729C68.5326 29.1709 68.5306 29.1678 68.5286 29.1658C68.5206 29.1568 68.5146 29.1498 68.5066 29.1408C68.5036 29.1378 68.5016 29.1348 68.4986 29.1318C68.3796 28.9968 68.2146 28.9288 68.0486 28.9288ZM63.9416 24.6678C63.7836 24.6678 63.6256 24.7299 63.5076 24.8539C63.2796 25.0939 63.2886 25.4728 63.5286 25.7008L63.5676 25.7379C63.6836 25.8479 63.8326 25.9028 63.9806 25.9028C64.1386 25.9028 64.2966 25.8409 64.4146 25.7169C64.6426 25.4779 64.6336 25.0989 64.3936 24.8708C64.3796 24.8568 64.3676 24.8459 64.3536 24.8329C64.2386 24.7229 64.0896 24.6678 63.9416 24.6678ZM59.4846 20.7719C59.3096 20.7719 59.1356 20.8478 59.0176 20.9958C58.8106 21.2538 58.8516 21.6309 59.1086 21.8379L59.1507 21.8719C59.2617 21.9609 59.3936 22.0038 59.5257 22.0038C59.7007 22.0038 59.8746 21.9279 59.9926 21.7809C60.1996 21.5229 60.1596 21.1468 59.9016 20.9388C59.9006 20.9378 59.8986 20.9368 59.8976 20.9348C59.8926 20.9308 59.8876 20.9269 59.8826 20.9229C59.8736 20.9159 59.8676 20.9108 59.8586 20.9038C59.7486 20.8148 59.6167 20.7719 59.4846 20.7719ZM54.7236 17.2498C54.5316 17.2498 54.3436 17.3418 54.2276 17.5118C54.0416 17.7848 54.1126 18.1578 54.3856 18.3438L54.4306 18.3738C54.5336 18.4438 54.6516 18.4778 54.7676 18.4778C54.9586 18.4778 55.1476 18.3859 55.2636 18.2159C55.4496 17.9429 55.3796 17.5698 55.1056 17.3839L55.1036 17.3818C55.0906 17.3728 55.0776 17.3648 55.0646 17.3558C55.0616 17.3538 55.0626 17.3538 55.0586 17.3518C54.9566 17.2828 54.8396 17.2498 54.7236 17.2498ZM49.6996 14.1098C49.4916 14.1098 49.2896 14.2179 49.1796 14.4109C49.0156 14.6979 49.1146 15.0639 49.4016 15.2289L49.4486 15.2559C49.5426 15.3099 49.6446 15.3348 49.7456 15.3348C49.9536 15.3348 50.1556 15.2268 50.2656 15.0338C50.4306 14.7468 50.3306 14.3809 50.0436 14.2169C50.0276 14.2079 50.0116 14.1988 49.9956 14.1898C49.9036 14.1358 49.8006 14.1098 49.6996 14.1098ZM44.4516 11.3608C44.2276 11.3608 44.0136 11.4868 43.9106 11.7018C43.7676 11.9998 43.8946 12.3579 44.1936 12.5009L44.2426 12.5238C44.3256 12.5638 44.4136 12.5829 44.5006 12.5829C44.7246 12.5829 44.9386 12.4569 45.0416 12.2419C45.1836 11.9439 45.0586 11.5879 44.7616 11.4449C44.7506 11.4399 44.7416 11.4358 44.7316 11.4308C44.7246 11.4278 44.7166 11.4238 44.7096 11.4208C44.6256 11.3788 44.5376 11.3608 44.4516 11.3608ZM39.0106 9.00684C38.7706 9.00684 38.5446 9.15185 38.4526 9.38885C38.3326 9.69686 38.4846 10.0449 38.7936 10.1649L38.8447 10.1848C38.9166 10.2128 38.9896 10.2259 39.0616 10.2259C39.3016 10.2259 39.5276 10.0808 39.6196 9.84384C39.7396 9.53684 39.5886 9.19085 39.2826 9.06985C39.2636 9.06185 39.2446 9.05485 39.2256 9.04785C39.1546 9.01985 39.0816 9.00684 39.0106 9.00684ZM33.4126 7.06384C33.1566 7.06384 32.9196 7.22985 32.8406 7.48785C32.7436 7.80385 32.9216 8.13884 33.2386 8.23584L33.2906 8.25186C33.3486 8.26986 33.4076 8.27783 33.4666 8.27783C33.7226 8.27783 33.9606 8.11185 34.0396 7.85385C34.1356 7.53985 33.9616 7.20785 33.6496 7.10785C33.6266 7.10085 33.6047 7.09385 33.5816 7.08685C33.5247 7.07185 33.4676 7.06384 33.4126 7.06384ZM27.6846 5.54984C27.4106 5.54984 27.1636 5.73885 27.1006 6.01785C27.0286 6.34085 27.2316 6.66085 27.5546 6.73285L27.6076 6.74484C27.6516 6.75484 27.6956 6.75986 27.7386 6.75986C28.0126 6.75986 28.2606 6.57084 28.3226 6.29184C28.3946 5.97184 28.1956 5.65486 27.8786 5.57886C27.8546 5.57386 27.8306 5.56784 27.8066 5.56284C27.7666 5.55384 27.7256 5.54984 27.6846 5.54984ZM21.8576 4.48685C21.5646 4.48685 21.3076 4.70286 21.2656 5.00186C21.2196 5.32986 21.4476 5.63283 21.7746 5.67883L21.8286 5.68686C21.8566 5.69086 21.8856 5.69284 21.9136 5.69284C22.2066 5.69284 22.4636 5.47686 22.5056 5.17786C22.5516 4.85386 22.3286 4.55286 22.0056 4.50186C21.9806 4.49786 21.9576 4.49485 21.9326 4.49185C21.9076 4.48785 21.8826 4.48685 21.8576 4.48685ZM15.9676 3.89786C15.6526 3.89786 15.3886 4.14385 15.3706 4.46185C15.3516 4.79185 15.6036 5.07485 15.9336 5.09485L15.9876 5.09784C15.9996 5.09884 16.0116 5.09885 16.0236 5.09885C16.3386 5.09885 16.6026 4.85285 16.6206 4.53485C16.6396 4.20585 16.3906 3.92383 16.0626 3.90283C16.0406 3.90183 16.0186 3.89983 15.9966 3.89883C15.9866 3.89883 15.9766 3.89786 15.9676 3.89786Z"
        fill="#000D1E" />
    <path
        d="M83.5166 75.5019C83.2416 76.3159 82.9296 77.1308 82.5826 77.9338C81.7446 79.8858 80.7616 81.7429 79.6246 83.4919C79.6246 83.5039 79.6246 83.5038 79.6126 83.5158C79.5286 83.6718 79.4326 83.8268 79.3246 83.9828C65.9566 104.178 34.0596 110.503 4.17364 97.7578C-27.1014 84.4018 -44.8174 54.9958 -36.9594 30.6678L-36.9354 30.6198C-36.6004 29.5418 -36.2044 28.4758 -35.7494 27.4218C-25.1254 2.53084 9.97163 -6.34416 42.6596 7.59784C74.2816 21.0968 92.0456 51.0179 83.5166 75.5019Z"
        stroke="#000D1E" stroke-width="0.8984" stroke-miterlimit="10" />
    <path
        d="M79.3246 83.9818L74.4376 93.8518C60.6746 113.221 29.3516 119.114 0.00564575 106.585C-31.7964 93.0018 -49.5844 62.8288 -40.7324 38.2738L-36.9594 30.6678C-44.8174 54.9958 -27.1014 84.4018 4.17365 97.7578C34.0596 110.502 65.9566 104.177 79.3246 83.9818Z"
        fill="#06316A" />
    <path
        d="M79.3246 83.9818L74.4376 93.8518C60.6746 113.221 29.3516 119.114 0.00564575 106.585C-31.7964 93.0018 -49.5844 62.8288 -40.7324 38.2738L-36.9594 30.6678C-44.8174 54.9958 -27.1014 84.4018 4.17365 97.7578C34.0596 110.502 65.9566 104.177 79.3246 83.9818Z"
        stroke="#000D1E" stroke-width="0.8984" stroke-miterlimit="10" />
    <path
        d="M73.3476 62.2538V62.3019C73.1676 66.0029 72.3416 69.5848 70.9036 72.9508C65.1066 86.5578 50.1696 94.2238 32.9806 94.2238C24.8956 94.2238 16.3076 92.5349 7.93464 88.9539C-11.7934 80.5329 -25.6404 63.4169 -26.5144 46.3719L-26.5264 46.3598L-26.5144 46.2398C-26.4904 45.8088 -26.4304 45.3899 -26.3944 44.9579C-26.4304 40.5739 -25.6044 36.3698 -23.9384 32.4648C-15.4344 12.5448 12.7266 5.39385 38.8386 16.5338C59.3456 25.2898 73.2516 43.2809 73.2396 60.7209C73.2876 61.2359 73.3236 61.7388 73.3476 62.2538Z"
        fill="#06316A" />
    <path
        d="M72.9047 62.2778C72.7247 65.8718 71.9347 69.4048 70.4967 72.7708C62.0397 92.5828 34.1066 99.6378 8.11465 88.5458C-12.1164 79.9098 -25.2204 62.8288 -26.0714 46.3468C-26.0714 46.3108 -26.0594 46.2868 -26.0714 46.2628C-25.8794 42.6818 -25.1014 39.1598 -23.6634 35.8058C-15.2064 16.0058 12.7267 8.93885 38.7187 20.0308C58.9617 28.6788 72.0777 45.7718 72.9047 62.2778Z"
        stroke="#000D1E" stroke-width="0.8984" stroke-miterlimit="10" />
    <path
        d="M72.9046 62.2778C72.0786 45.7718 58.9616 28.6789 38.7186 20.0309C12.7256 8.93886 -15.2074 16.0058 -23.6634 35.8058C-25.1004 39.1598 -25.8794 42.6819 -26.0714 46.2629C-26.2874 41.5799 -25.5324 36.9559 -23.6634 32.5839C-15.2064 12.7719 12.7266 5.71684 38.7186 16.8088C60.2906 26.0198 73.7666 44.8258 72.9046 62.2778Z"
        fill="#000D1E" stroke="#000D1E" stroke-width="0.5989" stroke-miterlimit="10" />
    <g opacity="0.27">
        <mask id="mask0_1_1258" style="mask-type:luminance" maskUnits="userSpaceOnUse" x="-39" y="1" width="125"
            height="104">
            <path
                d="M83.5166 75.5019C83.2416 76.3159 82.9296 77.1308 82.5826 77.9338C81.7446 79.8858 80.7616 81.7429 79.6246 83.4919C79.6246 83.5039 79.6246 83.5038 79.6126 83.5158C79.5286 83.6718 79.4326 83.8269 79.3246 83.9828C65.9566 104.178 34.0596 110.503 4.17364 97.7578C-27.1014 84.4018 -44.8174 54.9958 -36.9594 30.6678L-36.9354 30.6198C-36.6004 29.5418 -36.2044 28.4758 -35.7494 27.4218C-25.1254 2.53084 9.97163 -6.34416 42.6596 7.59784C74.2816 21.0968 92.0456 51.0179 83.5166 75.5019Z"
                fill="white" />
        </mask>
        <g mask="url(#mask0_1_1258)">
            <path d="M5.93665 -12.8972H-7.53336V121.11H5.93665V-12.8972Z" fill="#000D1E" />
            <path d="M63.3636 -12.8972H49.8936V121.11H63.3636V-12.8972Z" fill="#000D1E" />
            <path d="M89.9406 -12.8972H76.4706V121.11H89.9406V-12.8972Z" fill="#000D1E" />
            <path d="M36.8086 -12.8972H15.6456V121.11H36.8086V-12.8972Z" fill="#000D1E" />
        </g>
    </g>
</svg>