<svg width="840" height="481" viewBox="0 0 840 481" fill="none" xmlns="http://www.w3.org/2000/svg">
    <line y1="0.5" x2="840" y2="0.5" stroke="#9CE0FF" stroke-opacity="0.08" />
    <line y1="16.5" x2="840" y2="16.5" stroke="#9CE0FF" stroke-opacity="0.08" />
    <line y1="32.5" x2="840" y2="32.5" stroke="#9CE0FF" stroke-opacity="0.08" />
    <line y1="48.5" x2="840" y2="48.5" stroke="#9CE0FF" stroke-opacity="0.08" />
    <line y1="64.5" x2="840" y2="64.5" stroke="#9CE0FF" stroke-opacity="0.08" />
    <line y1="80.5" x2="840" y2="80.5" stroke="#9CE0FF" stroke-opacity="0.06" />
    <line y1="96.5" x2="840" y2="96.5" stroke="#9CE0FF" stroke-opacity="0.06" />
    <line y1="112.5" x2="840" y2="112.5" stroke="#9CE0FF" stroke-opacity="0.06" />
    <line y1="128.5" x2="840" y2="128.5" stroke="#9CE0FF" stroke-opacity="0.06" />
    <line y1="144.5" x2="840" y2="144.5" stroke="#9CE0FF" stroke-opacity="0.06" />
    <line y1="160.5" x2="840" y2="160.5" stroke="#9CE0FF" stroke-opacity="0.06" />
    <line y1="176.5" x2="840" y2="176.5" stroke="#9CE0FF" stroke-opacity="0.06" />
    <line y1="192.5" x2="840" y2="192.5" stroke="#9CE0FF" stroke-opacity="0.06" />
    <line y1="208.5" x2="840" y2="208.5" stroke="#9CE0FF" stroke-opacity="0.06" />
    <line y1="224.5" x2="840" y2="224.5" stroke="#9CE0FF" stroke-opacity="0.06" />
    <line y1="240.5" x2="840" y2="240.5" stroke="#9CE0FF" stroke-opacity="0.06" />
    <line y1="256.5" x2="840" y2="256.5" stroke="#9CE0FF" stroke-opacity="0.06" />
    <line y1="272.5" x2="840" y2="272.5" stroke="#9CE0FF" stroke-opacity="0.04" />
    <line y1="288.5" x2="840" y2="288.5" stroke="#9CE0FF" stroke-opacity="0.04" />
    <line y1="304.5" x2="840" y2="304.5" stroke="#9CE0FF" stroke-opacity="0.04" />
    <line y1="320.5" x2="840" y2="320.5" stroke="#9CE0FF" stroke-opacity="0.04" />
    <line y1="336.5" x2="840" y2="336.5" stroke="#9CE0FF" stroke-opacity="0.04" />
    <line y1="400.5" x2="840" y2="400.5" stroke="#9CE0FF" stroke-opacity="0.02" />
    <line y1="464.5" x2="840" y2="464.5" stroke="#9CE0FF" stroke-opacity="0.01" />
    <line y1="352.5" x2="840" y2="352.5" stroke="#9CE0FF" stroke-opacity="0.04" />
    <line y1="416.5" x2="840" y2="416.5" stroke="#9CE0FF" stroke-opacity="0.02" />
    <line y1="368.5" x2="840" y2="368.5" stroke="#9CE0FF" stroke-opacity="0.04" />
    <line y1="432.5" x2="840" y2="432.5" stroke="#9CE0FF" stroke-opacity="0.02" />
    <line y1="384.5" x2="840" y2="384.5" stroke="#9CE0FF" stroke-opacity="0.04" />
    <line y1="448.5" x2="840" y2="448.5" stroke="#9CE0FF" stroke-opacity="0.02" />
</svg>