<svg width="1440" height="480" viewBox="0 0 1440 480" fill="none" xmlns="http://www.w3.org/2000/svg">
    <line y1="-0.5" x2="1440" y2="-0.5" transform="matrix(1 0 0 -1 0 464)" stroke="#9CE0FF" stroke-opacity="0.08" />
    <line y1="-0.5" x2="1440" y2="-0.5" transform="matrix(1 0 0 -1 0 448)" stroke="#9CE0FF" stroke-opacity="0.08" />
    <line y1="-0.5" x2="1440" y2="-0.5" transform="matrix(1 0 0 -1 0 432)" stroke="#9CE0FF" stroke-opacity="0.08" />
    <line y1="-0.5" x2="1440" y2="-0.5" transform="matrix(1 0 0 -1 0 416)" stroke="#9CE0FF" stroke-opacity="0.08" />
    <line y1="-0.5" x2="1440" y2="-0.5" transform="matrix(1 0 0 -1 0 400)" stroke="#9CE0FF" stroke-opacity="0.06" />
    <line y1="-0.5" x2="1440" y2="-0.5" transform="matrix(1 0 0 -1 0 384)" stroke="#9CE0FF" stroke-opacity="0.06" />
    <line y1="-0.5" x2="1440" y2="-0.5" transform="matrix(1 0 0 -1 0 368)" stroke="#9CE0FF" stroke-opacity="0.06" />
    <line y1="-0.5" x2="1440" y2="-0.5" transform="matrix(1 0 0 -1 0 352)" stroke="#9CE0FF" stroke-opacity="0.06" />
    <line y1="-0.5" x2="1440" y2="-0.5" transform="matrix(1 0 0 -1 0 336)" stroke="#9CE0FF" stroke-opacity="0.06" />
    <line y1="-0.5" x2="1440" y2="-0.5" transform="matrix(1 0 0 -1 0 320)" stroke="#9CE0FF" stroke-opacity="0.06" />
    <line y1="-0.5" x2="1440" y2="-0.5" transform="matrix(1 0 0 -1 0 304)" stroke="#9CE0FF" stroke-opacity="0.06" />
    <line y1="-0.5" x2="1440" y2="-0.5" transform="matrix(1 0 0 -1 0 288)" stroke="#9CE0FF" stroke-opacity="0.06" />
    <line y1="-0.5" x2="1440" y2="-0.5" transform="matrix(1 0 0 -1 0 272)" stroke="#9CE0FF" stroke-opacity="0.06" />
    <line y1="-0.5" x2="1440" y2="-0.5" transform="matrix(1 0 0 -1 0 256)" stroke="#9CE0FF" stroke-opacity="0.06" />
    <line y1="-0.5" x2="1440" y2="-0.5" transform="matrix(1 0 0 -1 0 240)" stroke="#9CE0FF" stroke-opacity="0.06" />
    <line y1="-0.5" x2="1440" y2="-0.5" transform="matrix(1 0 0 -1 0 224)" stroke="#9CE0FF" stroke-opacity="0.06" />
    <line y1="-0.5" x2="1440" y2="-0.5" transform="matrix(1 0 0 -1 0 208)" stroke="#9CE0FF" stroke-opacity="0.04" />
    <line y1="-0.5" x2="1440" y2="-0.5" transform="matrix(1 0 0 -1 0 192)" stroke="#9CE0FF" stroke-opacity="0.04" />
    <line y1="-0.5" x2="1440" y2="-0.5" transform="matrix(1 0 0 -1 0 176)" stroke="#9CE0FF" stroke-opacity="0.04" />
    <line y1="-0.5" x2="1440" y2="-0.5" transform="matrix(1 0 0 -1 0 160)" stroke="#9CE0FF" stroke-opacity="0.04" />
    <line y1="-0.5" x2="1440" y2="-0.5" transform="matrix(1 0 0 -1 0 144)" stroke="#9CE0FF" stroke-opacity="0.04" />
    <line y1="-0.5" x2="1440" y2="-0.5" transform="matrix(1 0 0 -1 0 128)" stroke="#9CE0FF" stroke-opacity="0.04" />
    <line y1="-0.5" x2="1440" y2="-0.5" transform="matrix(1 0 0 -1 0 112)" stroke="#9CE0FF" stroke-opacity="0.04" />
    <line y1="-0.5" x2="1440" y2="-0.5" transform="matrix(1 0 0 -1 0 96)" stroke="#9CE0FF" stroke-opacity="0.04" />
    <line y1="-0.5" x2="1440" y2="-0.5" transform="matrix(1 0 0 -1 0 80)" stroke="#9CE0FF" stroke-opacity="0.02" />
    <line y1="-0.5" x2="1440" y2="-0.5" transform="matrix(1 0 0 -1 0 64)" stroke="#9CE0FF" stroke-opacity="0.02" />
    <line y1="-0.5" x2="1440" y2="-0.5" transform="matrix(1 0 0 -1 0 48)" stroke="#9CE0FF" stroke-opacity="0.02" />
    <line y1="-0.5" x2="1440" y2="-0.5" transform="matrix(1 0 0 -1 0 32)" stroke="#9CE0FF" stroke-opacity="0.02" />
    <line y1="-0.5" x2="1440" y2="-0.5" transform="matrix(1 0 0 -1 0 16)" stroke="#9CE0FF" stroke-opacity="0.01" />
</svg>