<svg width="1440" height="286" viewBox="0 0 1440 286" fill="none" xmlns="http://www.w3.org/2000/svg">
    <g filter="url(#filter0_dd_179_21622)">
        <path
            d="M1.90499 339.88H24.625L73.585 142.76H50.865L54.065 129.64H150.385C165.745 129.64 177.692 133.373 186.225 140.84C194.758 148.093 199.025 158.44 199.025 171.88C199.025 175.507 198.598 179.987 197.745 185.32C197.105 190.44 195.718 195.88 193.585 201.64C191.665 207.4 188.892 213.16 185.265 218.92C181.852 224.467 177.265 229.587 171.505 234.28C165.958 238.76 159.132 242.387 151.025 245.16C143.132 247.933 133.745 249.32 122.865 249.32H74.545L51.825 339.88H80.945L77.745 353H-1.29501L1.90499 339.88ZM78.065 234.92H123.505C134.385 234.92 143.665 231.4 151.345 224.36C159.238 217.107 164.572 208.04 167.345 197.16C167.985 194.387 168.945 190.333 170.225 185C171.718 179.453 172.465 174.547 172.465 170.28C172.465 162.6 170.332 156.307 166.065 151.4C162.012 146.493 155.612 144.04 146.865 144.04H100.465L78.065 234.92ZM229.182 356.84C218.302 356.84 210.409 352.893 205.502 345C200.596 336.893 198.142 325.373 198.142 310.44C198.142 301.693 198.996 292.52 200.702 282.92C202.409 273.32 204.862 263.827 208.062 254.44C211.262 245.053 215.209 236.093 219.902 227.56C224.809 219.027 230.249 211.56 236.222 205.16C242.409 198.76 249.236 193.64 256.702 189.8C264.169 185.96 272.169 184.04 280.702 184.04C290.302 184.04 297.769 186.28 303.102 190.76C308.436 195.027 312.489 201.64 315.263 210.6H317.822L330.622 187.88H344.063L306.302 336.04L312.062 338.6L348.863 301.8L356.543 307.88L333.823 334.44C326.142 343.4 319.956 349.373 315.263 352.36C310.569 355.347 305.982 356.84 301.502 356.84C295.102 356.84 290.409 355.133 287.422 351.72C284.649 348.093 283.262 343.827 283.262 338.92C283.262 336.573 283.476 333.8 283.902 330.6C284.542 327.4 285.076 324.84 285.502 322.92L293.182 292.84L290.622 291.88C286.142 301.48 281.662 310.333 277.182 318.44C272.916 326.333 268.222 333.16 263.102 338.92C258.196 344.467 252.969 348.84 247.422 352.04C241.876 355.24 235.796 356.84 229.182 356.84ZM237.822 336.36C242.302 336.36 246.889 334.76 251.582 331.56C256.276 328.147 260.862 323.773 265.342 318.44C270.036 312.893 274.409 306.707 278.462 299.88C282.729 293.053 286.569 286.12 289.982 279.08C293.609 271.827 296.702 264.893 299.262 258.28C302.036 251.453 304.169 245.48 305.663 240.36L306.942 235.88C309.929 225.64 309.716 217.213 306.302 210.6C303.102 203.773 296.809 200.36 287.422 200.36C275.902 200.36 265.342 205.48 255.742 215.72C246.142 225.96 238.676 240.893 233.342 260.52C232.489 263.933 231.529 267.88 230.462 272.36C229.609 276.84 228.756 281.427 227.902 286.12C227.049 290.813 226.302 295.293 225.662 299.56C225.236 303.827 225.022 307.453 225.022 310.44C225.022 318.76 225.876 325.16 227.582 329.64C229.289 334.12 232.702 336.36 237.822 336.36ZM347 420.84C339.107 420.84 332.92 418.92 328.44 415.08C323.747 411.453 321.4 406.76 321.4 401C321.4 395.24 323.32 390.227 327.16 385.96C330.787 381.907 335.48 379.88 341.24 379.88C346.147 379.88 349.987 381.267 352.76 384.04C355.32 387.027 356.6 390.653 356.6 394.92C356.6 397.693 355.96 400.36 354.68 402.92C353.613 405.48 352.227 407.507 350.52 409L352.76 410.6C359.8 407.4 366.733 401.96 373.56 394.28C380.6 386.813 388.067 375.4 395.96 360.04L382.84 201H368.44L371.64 187.88H431.8L428.6 201H408.76L416.76 323.24H419.32L487.16 201H467.32L470.52 187.88H521.4L518.2 201H504.76L401.72 376.04C391.907 392.68 382.307 404.307 372.92 410.92C363.747 417.533 355.107 420.84 347 420.84ZM530.362 356.84C518.629 356.84 510.096 354.813 504.762 350.76C499.642 346.493 497.082 341.267 497.082 335.08C497.082 330.387 498.576 326.333 501.562 322.92C504.549 319.293 508.816 317.48 514.362 317.48C518.629 317.48 522.149 318.76 524.922 321.32C527.696 323.667 529.082 327.293 529.082 332.2C529.082 334.547 528.549 337 527.482 339.56C526.629 342.12 525.349 344.253 523.642 345.96L524.602 348.2C528.656 348.2 533.029 347.773 537.722 346.92C542.629 346.067 547.109 344.573 551.162 342.44C555.429 340.093 558.949 336.893 561.722 332.84C564.496 328.787 565.882 323.56 565.882 317.16C565.882 312.467 565.242 308.2 563.962 304.36C562.682 300.52 560.869 296.893 558.522 293.48C556.176 289.853 553.402 286.333 550.202 282.92C547.216 279.507 543.909 275.667 540.282 271.4C536.016 266.493 532.176 261.267 528.762 255.72C525.562 250.173 523.962 243.133 523.962 234.6C523.962 227.133 525.349 220.307 528.122 214.12C530.896 207.933 534.842 202.6 539.962 198.12C545.082 193.64 551.056 190.227 557.882 187.88C564.922 185.32 572.602 184.04 580.922 184.04C592.442 184.04 600.762 186.173 605.882 190.44C611.002 194.707 613.562 199.827 613.562 205.8C613.562 210.493 612.069 214.653 609.082 218.28C606.096 221.693 601.829 223.4 596.282 223.4C592.016 223.4 588.496 222.227 585.722 219.88C582.949 217.32 581.562 213.587 581.562 208.68C581.562 206.333 581.989 203.88 582.842 201.32C583.909 198.76 585.296 196.627 587.002 194.92L586.042 192.68C582.202 192.68 578.042 193.107 573.562 193.96C569.082 194.813 564.922 196.413 561.082 198.76C557.456 201.107 554.362 204.307 551.802 208.36C549.456 212.413 548.282 217.64 548.282 224.04C548.282 228.733 548.922 233 550.202 236.84C551.482 240.68 553.296 244.413 555.642 248.04C557.989 251.453 560.656 254.973 563.642 258.6C566.842 262.013 570.256 265.747 573.882 269.8C578.149 274.707 581.882 279.933 585.082 285.48C588.496 291.027 590.202 298.067 590.202 306.6C590.202 314.067 588.709 320.893 585.722 327.08C582.736 333.267 578.576 338.6 573.242 343.08C567.909 347.347 561.509 350.653 554.042 353C546.789 355.56 538.896 356.84 530.362 356.84ZM646.613 356.84C640.213 356.84 635.413 355.027 632.213 351.4C629.226 347.56 627.733 343.187 627.733 338.28C627.733 335.933 628.053 333.48 628.693 330.92C629.333 328.147 629.866 325.8 630.293 323.88L660.693 202.28H631.893L635.413 187.88H649.812C655.999 187.88 660.479 186.813 663.253 184.68C666.026 182.333 668.693 178.707 671.253 173.8L685.973 145H700.693L689.812 187.88H731.413L727.893 202.28H686.293L653.013 335.72L658.133 338.6L704.213 304.68L711.253 312.36L678.933 339.56C674.453 343.4 670.719 346.493 667.733 348.84C664.746 350.973 662.079 352.573 659.733 353.64C657.386 354.92 655.146 355.773 653.013 356.2C651.093 356.627 648.959 356.84 646.613 356.84ZM768.682 207.4H739.882L742.442 196.2L799.402 184.04L783.722 246.44L786.282 247.4C790.336 237.587 794.282 228.733 798.122 220.84C802.176 212.947 806.442 206.333 810.922 201C815.402 195.453 820.202 191.293 825.322 188.52C830.656 185.533 836.522 184.04 842.922 184.04C851.029 184.04 857.216 186.067 861.482 190.12C865.749 193.96 867.882 198.867 867.882 204.84C867.882 210.387 866.069 215.293 862.442 219.56C858.816 223.827 854.016 225.96 848.042 225.96C843.136 225.96 839.296 224.573 836.522 221.8C833.749 218.813 832.362 215.187 832.362 210.92C832.362 208.147 833.002 205.48 834.282 202.92C835.562 200.36 837.056 198.333 838.762 196.84L836.842 194.92C830.229 195.987 823.402 201 816.362 209.96C809.322 218.92 802.389 230.227 795.562 243.88C794.069 246.867 792.042 251.133 789.482 256.68C787.136 262.013 784.576 267.987 781.802 274.6C779.029 281.213 776.256 288.147 773.482 295.4C770.922 302.653 768.896 309.48 767.402 315.88L758.122 353H732.522L768.682 207.4ZM908.125 356.84C893.618 356.84 883.165 352.68 876.765 344.36C870.365 336.04 867.165 323.453 867.165 306.6C867.165 298.707 867.805 290.173 869.085 281C870.578 271.827 872.818 262.76 875.805 253.8C878.792 244.627 882.525 235.88 887.005 227.56C891.698 219.027 897.138 211.56 903.325 205.16C909.725 198.76 916.872 193.64 924.765 189.8C932.872 185.96 941.938 184.04 951.965 184.04C956.445 184.04 960.925 184.573 965.405 185.64C970.098 186.493 974.365 188.2 978.205 190.76C982.045 193.107 985.138 196.307 987.485 200.36C990.045 204.413 991.325 209.533 991.325 215.72C991.325 221.907 989.832 227.987 986.845 233.96C984.072 239.933 979.165 245.373 972.125 250.28C965.085 255.187 955.592 259.347 943.645 262.76C931.912 266.173 917.192 268.52 899.485 269.8C897.992 276.413 896.605 283.347 895.325 290.6C894.258 297.64 893.725 304.147 893.725 310.12C893.725 319.08 895.432 326.12 898.845 331.24C902.472 336.147 908.125 338.6 915.805 338.6C925.405 338.6 934.578 334.547 943.325 326.44C952.285 318.333 960.818 307.027 968.925 292.52L978.845 297.32C973.512 307.56 968.285 316.52 963.165 324.2C958.045 331.667 952.605 337.853 946.845 342.76C941.298 347.453 935.325 350.973 928.925 353.32C922.738 355.667 915.805 356.84 908.125 356.84ZM901.725 259.88C924.338 257.32 940.765 252.733 951.005 246.12C961.458 239.507 966.685 230.12 966.685 217.96C966.685 211.987 965.298 207.08 962.525 203.24C959.965 199.187 955.058 197.16 947.805 197.16C943.112 197.16 938.632 198.227 934.365 200.36C930.098 202.28 926.045 205.693 922.205 210.6C918.365 215.507 914.738 222.013 911.325 230.12C907.912 238.013 904.712 247.933 901.725 259.88ZM1036.54 356.84C1025.66 356.84 1017.77 352.893 1012.86 345C1007.96 336.893 1005.5 325.373 1005.5 310.44C1005.5 301.693 1006.36 292.52 1008.06 282.92C1009.77 273.32 1012.22 263.827 1015.42 254.44C1018.62 245.053 1022.57 236.093 1027.26 227.56C1032.17 219.027 1037.61 211.56 1043.58 205.16C1049.77 198.76 1056.6 193.64 1064.06 189.8C1071.53 185.96 1079.53 184.04 1088.06 184.04C1097.66 184.04 1105.13 186.28 1110.46 190.76C1115.8 195.027 1119.85 201.64 1122.62 210.6H1125.18L1137.98 187.88H1151.42L1113.66 336.04L1119.42 338.6L1156.22 301.8L1163.9 307.88L1141.18 334.44C1133.5 343.4 1127.32 349.373 1122.62 352.36C1117.93 355.347 1113.34 356.84 1108.86 356.84C1102.46 356.84 1097.77 355.133 1094.78 351.72C1092.01 348.093 1090.62 343.827 1090.62 338.92C1090.62 336.573 1090.84 333.8 1091.26 330.6C1091.9 327.4 1092.44 324.84 1092.86 322.92L1100.54 292.84L1097.98 291.88C1093.5 301.48 1089.02 310.333 1084.54 318.44C1080.28 326.333 1075.58 333.16 1070.46 338.92C1065.56 344.467 1060.33 348.84 1054.78 352.04C1049.24 355.24 1043.16 356.84 1036.54 356.84ZM1045.18 336.36C1049.66 336.36 1054.25 334.76 1058.94 331.56C1063.64 328.147 1068.22 323.773 1072.7 318.44C1077.4 312.893 1081.77 306.707 1085.82 299.88C1090.09 293.053 1093.93 286.12 1097.34 279.08C1100.97 271.827 1104.06 264.893 1106.62 258.28C1109.4 251.453 1111.53 245.48 1113.02 240.36L1114.3 235.88C1117.29 225.64 1117.08 217.213 1113.66 210.6C1110.46 203.773 1104.17 200.36 1094.78 200.36C1083.26 200.36 1072.7 205.48 1063.1 215.72C1053.5 225.96 1046.04 240.893 1040.7 260.52C1039.85 263.933 1038.89 267.88 1037.82 272.36C1036.97 276.84 1036.12 281.427 1035.26 286.12C1034.41 290.813 1033.66 295.293 1033.02 299.56C1032.6 303.827 1032.38 307.453 1032.38 310.44C1032.38 318.76 1033.24 325.16 1034.94 329.64C1036.65 334.12 1040.06 336.36 1045.18 336.36ZM1373.81 356.84C1367.41 356.84 1362.61 355.027 1359.41 351.4C1356.21 347.56 1354.61 343.187 1354.61 338.28C1354.61 335.933 1354.82 333.48 1355.25 330.92C1355.67 328.36 1356.21 326.013 1356.85 323.88L1385.01 221.16C1385.65 218.387 1385.97 215.933 1385.97 213.8C1385.97 207.613 1382.98 204.52 1377.01 204.52C1371.25 204.52 1364.63 207.4 1357.17 213.16C1349.91 218.707 1342.66 226.173 1335.41 235.56C1328.37 244.947 1321.75 255.613 1315.57 267.56C1309.59 279.507 1305.01 291.88 1301.81 304.68L1289.65 353H1264.05L1296.69 221.8C1297.54 218.387 1297.97 215.72 1297.97 213.8C1297.97 207.613 1294.98 204.52 1289.01 204.52C1283.46 204.52 1277.06 207.4 1269.81 213.16C1262.55 218.707 1255.3 226.173 1248.05 235.56C1240.79 244.733 1234.07 255.4 1227.89 267.56C1221.7 279.507 1217.01 291.88 1213.81 304.68L1201.65 353H1176.05L1212.21 207.4H1183.41L1185.97 196.2L1242.93 184.04L1226.29 249.96L1228.85 250.92C1233.33 242.813 1237.91 234.813 1242.61 226.92C1247.51 218.813 1252.74 211.667 1258.29 205.48C1263.83 199.08 1269.81 193.96 1276.21 190.12C1282.61 186.067 1289.65 184.04 1297.33 184.04C1306.07 184.04 1312.37 186.6 1316.21 191.72C1320.26 196.627 1322.29 203.027 1322.29 210.92C1322.29 213.267 1322.07 215.827 1321.65 218.6C1321.43 221.373 1320.9 224.253 1320.05 227.24L1314.29 249.64L1316.85 250.6C1321.33 242.28 1325.91 234.173 1330.61 226.28C1335.51 218.387 1340.74 211.347 1346.29 205.16C1351.83 198.76 1357.81 193.64 1364.21 189.8C1370.61 185.96 1377.65 184.04 1385.33 184.04C1394.5 184.04 1401.11 186.6 1405.17 191.72C1409.43 196.627 1411.57 202.92 1411.57 210.6C1411.57 215.293 1410.71 220.733 1409.01 226.92L1379.57 336.04L1385.33 338.6L1422.13 301.8L1429.81 307.88L1407.09 334.44C1399.62 343.4 1393.33 349.373 1388.21 352.36C1383.09 355.347 1378.29 356.84 1373.81 356.84Z"
            fill="url(#paint0_linear_179_21622)" shape-rendering="crispEdges" />
    </g>
    <defs>
        <filter id="filter0_dd_179_21622" x="-13.2949" y="117.641" width="1455.1" height="315.199"
            filterUnits="userSpaceOnUse" color-interpolation-filters="sRGB">
            <feFlood flood-opacity="0" result="BackgroundImageFix" />
            <feColorMatrix in="SourceAlpha" type="matrix" values="0 0 0 0 0 0 0 0 0 0 0 0 0 0 0 0 0 0 127 0"
                result="hardAlpha" />
            <feOffset />
            <feGaussianBlur stdDeviation="6" />
            <feComposite in2="hardAlpha" operator="out" />
            <feColorMatrix type="matrix" values="0 0 0 0 1 0 0 0 0 1 0 0 0 0 1 0 0 0 0.16 0" />
            <feBlend mode="plus-lighter" in2="BackgroundImageFix" result="effect1_dropShadow_179_21622" />
            <feColorMatrix in="SourceAlpha" type="matrix" values="0 0 0 0 0 0 0 0 0 0 0 0 0 0 0 0 0 0 127 0"
                result="hardAlpha" />
            <feOffset />
            <feGaussianBlur stdDeviation="4" />
            <feComposite in2="hardAlpha" operator="out" />
            <feColorMatrix type="matrix" values="0 0 0 0 1 0 0 0 0 1 0 0 0 0 1 0 0 0 0.08 0" />
            <feBlend mode="plus-lighter" in2="effect1_dropShadow_179_21622" result="effect2_dropShadow_179_21622" />
            <feBlend mode="normal" in="SourceGraphic" in2="effect2_dropShadow_179_21622" result="shape" />
        </filter>
        <linearGradient id="paint0_linear_179_21622" x1="5" y1="70" x2="1408.09" y2="483.843"
            gradientUnits="userSpaceOnUse">
            <stop stop-color="#9CE0FF" stop-opacity="0.06" />
            <stop offset="0.471353" stop-color="#9CE0FF" />
            <stop offset="0.852915" stop-color="#9CE0FF" stop-opacity="0.06" />
        </linearGradient>
    </defs>
</svg>