<svg width="24" height="25" viewBox="0 0 24 25" fill="none" xmlns="http://www.w3.org/2000/svg">
<path d="M11 6.66935H13.6929C13.8829 6.66935 14.0565 6.56168 14.1409 6.39148L14.8191 5.02377C14.9221 4.81606 15.1533 4.70698 15.3761 4.77089C16.0315 4.95883 17.4069 5.41226 18.5042 6.16935C22.3682 9.06657 22.0078 15.559 21.9786 16.9302C21.9768 17.0139 21.9554 17.0965 21.9142 17.1693C19.9311 20.6693 16.491 20.6693 16.491 20.6693L15.3248 18.2431M13 6.66935H10.3119C10.1224 6.66935 9.94909 6.56214 9.86449 6.39249L9.18127 5.02255C9.07799 4.81545 8.84722 4.70686 8.62476 4.77064C7.96978 4.95843 6.59358 5.41192 5.49577 6.16935C1.6318 9.06657 1.99218 15.559 2.0214 16.9302C2.02319 17.0139 2.04456 17.0965 2.08583 17.1693C4.06894 20.6693 7.50897 20.6693 7.50897 20.6693L8.67893 18.2427M7.00128 17.6693C7.60094 17.8942 8.15567 18.0853 8.67893 18.2427M17.0038 17.6693C16.4036 17.8944 15.8485 18.0856 15.3248 18.2431M8.67893 18.2427C11.1232 18.9781 12.8808 18.9782 15.3248 18.2431M10.0021 12.6693C10.0021 13.2216 9.55422 13.6693 9.00179 13.6693C8.44937 13.6693 8.00154 13.2216 8.00154 12.6693C8.00154 12.1171 8.44937 11.6693 9.00179 11.6693C9.55422 11.6693 10.0021 12.1171 10.0021 12.6693ZM16.0036 12.6693C16.0036 13.2216 15.5558 13.6693 15.0033 13.6693C14.4509 13.6693 14.0031 13.2216 14.0031 12.6693C14.0031 12.1171 14.4509 11.6693 15.0033 11.6693C15.5558 11.6693 16.0036 12.1171 16.0036 12.6693Z" stroke="#9CE0FF" stroke-opacity="0.8" stroke-width="1.5" stroke-linecap="round" stroke-linejoin="round"/>
</svg>
