<svg width="24" height="25" viewBox="0 0 24 25" fill="none" xmlns="http://www.w3.org/2000/svg">
<path d="M17 17.6694V14.1694C17 12.7887 15.8807 11.6694 14.5 11.6694C13.1193 11.6694 12 12.7887 12 14.1694M12 14.1694V17.6694M12 14.1694V11.1694M8 11.1694V17.6694M8 7.66943V7.67943M11 21.6694H13C15.8003 21.6694 17.2004 21.6694 18.27 21.1245C19.2108 20.6451 19.9757 19.8802 20.455 18.9394C21 17.8698 21 16.4697 21 13.6694V11.6694C21 8.86917 21 7.46904 20.455 6.39948C19.9757 5.45867 19.2108 4.69377 18.27 4.2144C17.2004 3.66943 15.8003 3.66943 13 3.66943H11C8.19974 3.66943 6.79961 3.66943 5.73005 4.2144C4.78924 4.69377 4.02433 5.45867 3.54497 6.39948C3 7.46904 3 8.86917 3 11.6694V13.6694C3 16.4697 3 17.8698 3.54497 18.9394C4.02433 19.8802 4.78924 20.6451 5.73005 21.1245C6.79961 21.6694 8.19974 21.6694 11 21.6694Z" stroke="#9CE0FF" stroke-opacity="0.8" stroke-width="1.5" stroke-linecap="round" stroke-linejoin="round"/>
</svg>
