<svg width="24" height="25" viewBox="0 0 24 25" fill="none" xmlns="http://www.w3.org/2000/svg">
<path d="M5.02167 11.4619L18.9112 6.06573C19.6841 5.76545 20.0706 5.61531 20.3553 5.68722C20.6035 5.74992 20.8121 5.913 20.9282 6.13512C21.0614 6.38988 20.9929 6.78865 20.8561 7.58619L19.2978 16.667C19.0609 18.048 18.9424 18.7384 18.5687 19.1234C18.2421 19.46 17.7909 19.6564 17.3148 19.669C16.7703 19.6835 16.1609 19.3097 14.9422 18.5621L12.3564 16.9759C11.5797 16.4995 11.1913 16.2612 11.0238 15.9407C10.8769 15.6596 10.8398 15.3364 10.9193 15.0308C11.01 14.6823 11.3348 14.3668 11.9845 13.7359L16.3506 9.49519L8.99682 13.7807C8.40764 14.124 8.11303 14.2957 7.79583 14.3893C7.51466 14.4722 7.22139 14.5097 6.92771 14.5004C6.59638 14.4899 6.26604 14.3982 5.60537 14.2149L5.16013 14.0913C3.92874 13.7496 3.31304 13.5787 3.13094 13.2887C2.97337 13.0378 2.95698 12.7266 3.08736 12.4613C3.23805 12.1548 3.83259 11.9238 5.02167 11.4619Z" stroke="#9CE0FF" stroke-opacity="0.8" stroke-width="1.5" stroke-linecap="round" stroke-linejoin="round"/>
</svg>
