<svg width="24" height="25" viewBox="0 0 24 25" fill="none" xmlns="http://www.w3.org/2000/svg">
<path d="M18.6667 4.66943L13.1404 10.9852M4.66672 20.6694L10.5615 13.9326M13.1404 10.9852L9.30438 5.56966C9.0709 5.24004 8.95416 5.07522 8.80327 4.95614C8.66967 4.85069 8.5171 4.7718 8.35383 4.72373C8.16944 4.66943 7.96747 4.66943 7.56353 4.66943H6.06276C5.39581 4.66943 5.06234 4.66943 4.88254 4.80786C4.726 4.92839 4.63097 5.11214 4.62311 5.30955C4.61407 5.53628 4.80682 5.80841 5.19233 6.35265L10.5615 13.9326M13.1404 10.9852L18.8078 18.9862C19.1933 19.5305 19.386 19.8026 19.377 20.0293C19.3691 20.2267 19.2741 20.4105 19.1176 20.531C18.9378 20.6694 18.6043 20.6694 17.9373 20.6694H16.4366C16.0326 20.6694 15.8307 20.6694 15.6463 20.6151C15.483 20.5671 15.3304 20.4882 15.1968 20.3827C15.046 20.2636 14.9292 20.0988 14.6957 19.7692L10.5615 13.9326" stroke="#9CE0FF" stroke-opacity="0.8" stroke-width="1.5" stroke-linecap="round" stroke-linejoin="round"/>
</svg>
