<svg width="24" height="24" viewBox="0 0 24 24" fill="none" xmlns="http://www.w3.org/2000/svg">
<g clip-path="url(#clip0_2012_3149)">
<mask id="mask0_2012_3149" style="mask-type:alpha" maskUnits="userSpaceOnUse" x="0" y="0" width="24" height="24">
<path d="M12 24C18.6274 24 24 18.6274 24 12C24 5.37258 18.6274 0 12 0C5.37258 0 0 5.37258 0 12C0 18.6274 5.37258 24 12 24Z" fill="#D9D9D9"/>
</mask>
<g mask="url(#mask0_2012_3149)">
<path d="M12 24C18.6274 24 24 18.6274 24 12C24 5.37258 18.6274 0 12 0C5.37258 0 0 5.37258 0 12C0 18.6274 5.37258 24 12 24Z" fill="#121D28"/>
<path d="M9.66471 24.14C7.24665 22.7368 4.62949 22.3792 2.75684 23.0111C2.9376 23.6079 3.17603 24.1856 3.46874 24.7365C5.09575 24.6988 6.87218 25.1402 8.52516 26.0992C10.1781 27.0581 11.4424 28.3817 12.216 29.8125C12.8404 29.7934 13.4613 29.7139 14.0703 29.5753C13.6918 27.6377 12.0821 25.5437 9.66471 24.14Z" fill="url(#paint0_linear_2012_3149)"/>
<path d="M21.1873 18.4444C20.8798 17.1953 20.3237 16.0209 19.5518 14.9913C18.7798 13.9617 17.8081 13.0981 16.6947 12.4519C15.5812 11.8057 14.3488 11.3903 13.0711 11.2305C11.7933 11.0706 10.4964 11.1696 9.25781 11.5215C11.327 11.7744 13.6239 12.5503 15.8764 13.8575C18.1289 15.1646 19.9431 16.773 21.1873 18.4444Z" fill="url(#paint1_linear_2012_3149)"/>
<path d="M18.1772 23.0254C17.1181 21.2683 15.3037 19.5859 13.0686 18.2888C10.8334 16.9918 8.47205 16.251 6.42118 16.202C4.61688 16.1593 3.26272 16.6832 2.70688 17.6391C2.70371 17.6448 2.69928 17.6501 2.6958 17.6558C2.64579 17.8351 2.60274 18.0147 2.56348 18.1949C3.33965 17.8889 4.23894 17.7184 5.2389 17.6995C7.46261 17.6577 9.95126 18.3682 12.2478 19.701C14.5443 21.0337 16.3964 22.842 17.4612 24.7914C17.9386 25.6699 18.2364 26.5346 18.3545 27.3609C18.4919 27.2381 18.6267 27.1114 18.7575 26.9795C18.7609 26.9735 18.7631 26.9672 18.7667 26.9608C19.3224 26.0042 19.1075 24.5698 18.1772 23.0254Z" fill="url(#paint2_linear_2012_3149)"/>
<path d="M11.3677 21.2122C7.94496 19.226 4.16259 18.9148 2.34375 20.301C2.34733 20.7349 2.38054 21.168 2.44314 21.5974C2.97819 21.4354 3.52961 21.3334 4.08726 21.2932C6.11978 21.1404 8.36057 21.7061 10.394 22.8868C12.4275 24.0675 14.0305 25.7325 14.9047 27.5704C15.1464 28.074 15.3307 28.6029 15.4543 29.1476C15.8588 28.9892 16.2521 28.8035 16.6315 28.592C16.936 26.3269 14.7914 23.1988 11.3677 21.2122Z" fill="url(#paint3_linear_2012_3149)"/>
<path d="M19.9371 20.0845C18.8659 18.3294 17.0356 16.6422 14.7847 15.3367C12.5337 14.0311 10.1632 13.2786 8.10565 13.2182C6.5372 13.173 5.32229 13.5527 4.69238 14.2702C7.30797 13.8275 10.758 14.5715 14.1019 16.5119C17.4459 18.4524 19.8028 21.078 20.7126 23.5667C21.0244 22.6652 20.7531 21.4228 19.9371 20.0845Z" fill="url(#paint4_linear_2012_3149)"/>
<path d="M7.3125 9.42181V3.28546H8.60989V8.35214H11.2406V9.42181H7.3125Z" fill="url(#paint5_linear_2012_3149)"/>
<path d="M12.0996 9.42181V3.28546H14.5206C14.986 3.28546 15.3825 3.37434 15.7101 3.55212C16.0377 3.72791 16.2874 3.97259 16.4592 4.28621C16.633 4.59783 16.7199 4.95738 16.7199 5.36487C16.7199 5.77237 16.632 6.13192 16.4562 6.44352C16.2804 6.75513 16.0257 6.99783 15.6921 7.17162C15.3606 7.3454 14.9591 7.43229 14.4876 7.43229H12.9446V6.39258H14.2779C14.5276 6.39258 14.7333 6.34964 14.8951 6.26375C15.0589 6.17585 15.1808 6.05501 15.2607 5.9012C15.3426 5.74539 15.3835 5.56662 15.3835 5.36487C15.3835 5.16112 15.3426 4.98335 15.2607 4.83153C15.1808 4.67772 15.0589 4.55887 14.8951 4.47498C14.7313 4.38909 14.5236 4.34613 14.2719 4.34613H13.397V9.42181H12.0996Z" fill="url(#paint6_linear_2012_3149)"/>
<path fill-rule="evenodd" clip-rule="evenodd" d="M5.85938 10.8749V1.83234H10.063V6.89902H10.6467V1.83234H14.5208C15.168 1.83234 15.8142 1.956 16.4003 2.27329C16.9626 2.57569 17.4191 3.0159 17.7311 3.58318C18.0399 4.13904 18.1732 4.74705 18.1732 5.36488C18.1732 5.98723 18.0369 6.59919 17.722 7.15747C17.401 7.7265 16.9343 8.16268 16.3655 8.45944C15.8889 8.70893 15.3736 8.83427 14.8503 8.87246V10.8749H5.85938ZM7.3125 3.28547V9.42182H11.2406V8.35215H8.60989V3.28547H7.3125ZM12.0998 9.42182H13.3972V7.43229H14.4878C14.6136 7.43229 14.7345 7.42611 14.8503 7.41373C15.0625 7.39106 15.2579 7.34766 15.4366 7.28347C15.4383 7.28289 15.4399 7.28231 15.4415 7.28171C15.5292 7.25003 15.6127 7.21333 15.6923 7.17163C16.0021 7.01025 16.2438 6.78943 16.4175 6.50919C16.4186 6.50741 16.4198 6.50561 16.4209 6.50381C16.433 6.48401 16.4449 6.46391 16.4564 6.44353C16.6322 6.13193 16.72 5.77238 16.72 5.36488C16.72 4.95739 16.6331 4.59782 16.4594 4.28621C16.4483 4.26608 16.437 4.24622 16.4253 4.22663C16.4218 4.22076 16.4182 4.21491 16.4147 4.20908C16.2453 3.93221 16.0105 3.71323 15.7103 3.55213C15.6256 3.50614 15.5362 3.46611 15.4422 3.432C15.4387 3.43071 15.4351 3.42943 15.4315 3.42814C15.1648 3.33302 14.8612 3.28547 14.5208 3.28547H12.0998V9.42182ZM13.3972 6.39259H14.2781C14.3518 6.39259 14.4218 6.38886 14.4878 6.38136C14.6252 6.36578 14.746 6.33399 14.8503 6.28601C14.8657 6.27894 14.8807 6.27154 14.8953 6.26376C14.9846 6.21585 15.0614 6.15814 15.1258 6.09064C15.1265 6.08987 15.1272 6.0891 15.128 6.08833C15.1807 6.03259 15.225 5.97023 15.2608 5.90121C15.2787 5.86725 15.2946 5.83221 15.3086 5.79606C15.3587 5.66638 15.3837 5.52264 15.3837 5.36488C15.3837 5.20331 15.358 5.05809 15.3065 4.92919C15.3052 4.92606 15.304 4.92293 15.3027 4.91981C15.2902 4.88948 15.2762 4.86006 15.2608 4.83154C15.2244 4.76128 15.1791 4.69834 15.1251 4.64267C15.1237 4.64121 15.1223 4.63974 15.1209 4.6383C15.0575 4.57399 14.9823 4.51956 14.8953 4.47499C14.8807 4.4673 14.8657 4.45995 14.8503 4.45296C14.7542 4.40919 14.6444 4.37888 14.5208 4.362C14.4433 4.35143 14.3604 4.34614 14.2721 4.34614H13.3972V6.39259Z" fill="#121D28"/>
</g>
</g>
<defs>
<linearGradient id="paint0_linear_2012_3149" x1="14.8926" y1="14.9458" x2="6.24944" y2="29.8209" gradientUnits="userSpaceOnUse">
<stop offset="0.0001" stop-color="#C7F284"/>
<stop offset="1" stop-color="#00BEF0"/>
</linearGradient>
<linearGradient id="paint1_linear_2012_3149" x1="14.8924" y1="14.9458" x2="6.24921" y2="29.8209" gradientUnits="userSpaceOnUse">
<stop offset="0.0001" stop-color="#C7F284"/>
<stop offset="1" stop-color="#00BEF0"/>
</linearGradient>
<linearGradient id="paint2_linear_2012_3149" x1="14.8929" y1="14.9458" x2="6.24974" y2="29.8209" gradientUnits="userSpaceOnUse">
<stop offset="0.0001" stop-color="#C7F284"/>
<stop offset="1" stop-color="#00BEF0"/>
</linearGradient>
<linearGradient id="paint3_linear_2012_3149" x1="14.8925" y1="14.9458" x2="6.2494" y2="29.8209" gradientUnits="userSpaceOnUse">
<stop offset="0.0001" stop-color="#C7F284"/>
<stop offset="1" stop-color="#00BEF0"/>
</linearGradient>
<linearGradient id="paint4_linear_2012_3149" x1="14.8922" y1="14.9458" x2="6.24903" y2="29.821" gradientUnits="userSpaceOnUse">
<stop offset="0.0001" stop-color="#C7F284"/>
<stop offset="1" stop-color="#00BEF0"/>
</linearGradient>
<linearGradient id="paint5_linear_2012_3149" x1="15.7601" y1="4.68009" x2="7.67008" y2="9.83255" gradientUnits="userSpaceOnUse">
<stop stop-color="#C7F284"/>
<stop offset="1" stop-color="#00BEF0"/>
</linearGradient>
<linearGradient id="paint6_linear_2012_3149" x1="15.7599" y1="4.68009" x2="7.6699" y2="9.83255" gradientUnits="userSpaceOnUse">
<stop stop-color="#C7F284"/>
<stop offset="1" stop-color="#00BEF0"/>
</linearGradient>
<clipPath id="clip0_2012_3149">
<rect width="24" height="24" fill="white"/>
</clipPath>
</defs>
</svg>
