<svg width="300" height="300" viewBox="0 0 300 300" fill="none" xmlns="http://www.w3.org/2000/svg">
<path d="M157.5 241.9C154.2 239.1 149.7 235.4 147.6 233.6L143.6 230.3L152 220.2C156.5 214.6 160.6 210 160.9 210C161.2 210 162.3 210.7 163.3 211.4C164.9 212.7 164.7 213.2 160.4 218.6C157.8 221.9 155.2 225 154.7 225.7C153.8 227 156.2 226.8 167.5 224.9C174 223.7 187.3 217.8 193 213.6C204 205.3 214.1 192.5 219.4 180C222.3 173.2 225 161.3 225 155.3C225 152.1 225.2 151.9 227.7 152.2C230.3 152.5 230.4 152.7 230.2 157.5C229.1 178.5 220.8 195.5 204.2 211.1C190 224.4 177.8 229.8 156.2 232.3C155.4 232.4 157.8 234.9 161.5 237.8C167.9 243 168.1 243.2 166.4 245.1C165.5 246.1 164.4 247 164.1 246.9C163.8 246.9 160.8 244.6 157.5 241.9Z" fill="#484444"/>
<path d="M70.4 139.3C71.6 121.8 78.5 106.8 91.2 93.4001C104 79.9001 122 70.4001 138.3 68.5001C141.4 68.1001 144 67.5001 143.9 67.1001C143.9 66.8001 141.2 64.3001 137.9 61.7001C132.1 57.0001 131.9 56.7001 133.6 54.9001C135.3 53.0001 135.4 53.1001 138.9 55.7001C140.9 57.2001 143.6 59.5001 145 60.8001C146.4 62.0001 149.4 64.5001 151.7 66.3001C154 68.1001 155.9 69.7001 155.9 70.0001C156 70.3001 154.5 72.1001 152.7 74.1001C151 76.1001 147.3 80.5001 144.5 83.9001C139.3 90.3001 138 91.0001 136 88.5001C135 87.3001 135.6 86.0001 139.9 80.8001C142.7 77.3001 145 74.2001 145 73.9001C145 73.0001 138.8 73.8001 130 76.0001C118.6 78.8001 107.2 85.7001 97 95.9001C84 109 77 123.8 75.3 141.3C74.7 147.6 74.6 148 72.2 148H69.7L70.4 139.3Z" fill="#464242"/>
</svg>
