<svg width="780" height="175" viewBox="0 0 780 175" fill="none" xmlns="http://www.w3.org/2000/svg">
<path d="M686.783 65.7369C686.783 65.0742 687.32 64.5369 687.983 64.5369H697.939C698.58 64.5369 699.108 65.0408 699.138 65.6812L699.337 69.9516C699.397 71.2387 701.495 71.6884 702.269 70.6582C705.949 65.7598 711.634 63.015 718.616 63.015C726.968 63.015 733.32 66.8238 736.765 73.6162C737.288 74.6471 739.013 74.6494 739.535 73.6185C743.062 66.6608 749.488 63.015 758.313 63.015C771.883 63.015 780 72.1465 780 88.5071V130.555C780 131.218 779.463 131.755 778.8 131.755H767.63C766.967 131.755 766.43 131.218 766.43 130.555V92.6924C766.43 80.8975 762.244 74.5562 754.635 74.5562C745.123 74.5562 739.923 81.0244 739.923 92.6924V130.555C739.923 131.218 739.386 131.755 738.723 131.755H728.187C727.524 131.755 726.987 131.218 726.987 130.555V92.6924C726.987 81.0244 722.675 74.5562 715.192 74.5562C705.807 74.5562 700.48 81.1512 700.48 92.6924V130.555C700.48 131.218 699.943 131.755 699.28 131.755H687.983C687.32 131.755 686.783 131.218 686.783 130.555V65.7369Z" fill="#F9F9F9"/>
<path d="M616.49 84.7884C615.767 84.7428 615.247 84.0697 615.417 83.3651C618.503 70.6004 628.957 63.015 643.914 63.015C662.304 63.015 672.324 73.1611 672.324 91.551V116.536C672.324 119.833 673.719 120.975 676.382 120.975H677.972C678.635 120.975 679.172 121.512 679.172 122.175V130.555C679.172 131.218 678.635 131.755 677.972 131.755H674.86C669.944 131.857 663.539 131.215 660.922 126.022C660.362 124.911 658.036 124.489 657.233 125.438C653.43 129.934 646.946 133.277 638.207 133.277C624.764 133.277 613.983 126.048 613.983 114.126C613.983 100.682 624.003 96.7508 639.476 93.707L657.641 90.2183C658.211 90.1088 658.624 89.6062 658.6 89.0258C658.191 78.9338 653.372 74.1757 643.914 74.1757C636.516 74.1757 631.553 77.7713 629.47 84.6297C629.302 85.182 628.785 85.5638 628.209 85.5275L616.49 84.7884ZM628.188 113.872C628.188 118.692 632.373 122.75 641.124 122.75C651.144 122.75 658.88 115.521 658.88 101.063C658.88 100.732 658.581 100.482 658.256 100.54L644.675 102.965C635.544 104.614 628.188 105.375 628.188 113.872Z" fill="#F9F9F9"/>
<path d="M544.496 98.1459C544.496 76.7123 557.179 63.015 576.583 63.015C592.564 63.015 606.261 73.6684 607.022 97.6386V100.878C607.022 101.54 606.485 102.078 605.822 102.078H560.231C559.539 102.078 558.989 102.663 559.055 103.352C560.165 114.877 566.426 121.609 576.583 121.609C582.908 121.609 588.65 118.109 591.571 112.229C591.796 111.775 592.267 111.487 592.773 111.523L604.616 112.369C605.39 112.424 605.909 113.19 605.638 113.917C601.176 125.883 589.76 133.277 576.583 133.277C557.179 133.277 544.496 119.58 544.496 98.1459ZM559.304 90.4388C559.171 91.1561 559.733 91.8046 560.463 91.8046H591.324C592.048 91.8046 592.609 91.1647 592.489 90.4505C590.533 78.8043 583.793 74.683 576.583 74.683C567.238 74.683 561.144 80.4908 559.304 90.4388Z" fill="#F9F9F9"/>
<path d="M508.047 65.7376C508.047 65.0749 508.584 64.5376 509.247 64.5376H519.439C520.087 64.5376 520.618 65.0527 520.638 65.7009L520.734 68.8397C520.777 70.2203 523.585 70.7515 524.453 69.677C527.266 66.193 531.367 64.5376 536.963 64.5376H542.105C542.767 64.5376 543.305 65.0749 543.305 65.7376V74.4983C543.305 75.1611 542.767 75.6983 542.105 75.6983H536.836C526.31 75.6983 521.744 81.4055 521.744 92.5662V130.556C521.744 131.218 521.207 131.756 520.544 131.756H509.247C508.584 131.756 508.047 131.218 508.047 130.556V65.7376Z" fill="#F9F9F9"/>
<path d="M467.581 50.5176C467.581 49.8549 468.118 49.3176 468.781 49.3176H480.078C480.741 49.3176 481.278 49.8549 481.278 50.5176V63.3368C481.278 63.9995 481.816 64.5368 482.478 64.5368H497.961C498.624 64.5368 499.161 65.0741 499.161 65.7368V74.4975C499.161 75.1603 498.624 75.6975 497.961 75.6975H482.478C481.816 75.6975 481.278 76.2348 481.278 76.8975V112.35C481.278 117.804 483.942 120.594 489.015 120.594H497.834C498.497 120.594 499.034 121.131 499.034 121.794V130.555C499.034 131.218 498.497 131.755 497.834 131.755H487.747C474.683 131.755 467.581 125.033 467.581 112.35V76.8975C467.581 76.2348 467.044 75.6975 466.381 75.6975H458.635C457.972 75.6975 457.435 75.1603 457.435 74.4975V65.7368C457.435 65.0741 457.972 64.5368 458.635 64.5368H466.381C467.044 64.5368 467.581 63.9995 467.581 63.3368V50.5176Z" fill="#F9F9F9"/>
<path d="M440.264 85.6607C439.667 85.6929 439.143 85.2774 438.982 84.7014C437.173 78.2174 430.773 74.4294 424.257 74.4294C417.409 74.4294 411.955 77.8537 412.082 83.6877C412.209 89.7754 419.945 92.1851 426.794 93.4534C443.535 96.4972 454.315 101.063 454.315 114.253C454.315 127.443 440.998 133.277 426.794 133.277C410.043 133.277 397.958 125.144 396.345 111.781C396.265 111.119 396.771 110.541 397.437 110.499L409.228 109.755C409.841 109.716 410.379 110.149 410.521 110.747C412.144 117.61 417.854 121.862 426.667 121.862C432.501 121.862 440.11 119.833 440.11 113.619C440.11 106.39 431.613 105.629 424.384 103.98C410.179 100.936 397.877 97.1313 397.877 84.195C397.877 71.0051 408.531 63.015 425.272 63.015C439.373 63.015 450.273 70.958 453.044 83.6346C453.197 84.335 452.673 84.9899 451.957 85.0286L440.264 85.6607Z" fill="#F9F9F9"/>
<path d="M332.111 66.1575C331.818 65.3732 332.398 64.5376 333.235 64.5376H344.485C344.992 64.5376 345.444 64.8559 345.615 65.333L363.082 114.1C363.464 115.166 364.973 115.159 365.345 114.091L382.337 65.3426C382.505 64.8606 382.959 64.5376 383.47 64.5376H394.61C395.44 64.5376 396.02 65.3605 395.74 66.1422L369.427 139.619C366.637 147.228 361.564 150.78 353.193 150.78H344.374C343.711 150.78 343.174 150.242 343.174 149.58V140.946C343.174 140.283 343.711 139.746 344.374 139.746H351.164C354.715 139.746 356.618 138.477 357.886 135.307L359.411 131.359C359.715 130.573 359.135 129.726 358.292 129.726H356.69C356.189 129.726 355.741 129.415 355.565 128.946L332.111 66.1575Z" fill="#F9F9F9"/>
<path d="M270.784 84.7884C270.061 84.7428 269.541 84.0697 269.711 83.3651C272.797 70.6004 283.251 63.015 298.208 63.015C316.598 63.015 326.617 73.1611 326.617 91.551V116.536C326.617 119.833 328.013 120.975 330.676 120.975H332.266C332.929 120.975 333.466 121.512 333.466 122.175V130.555C333.466 131.218 332.929 131.755 332.266 131.755H329.154C324.238 131.857 317.833 131.215 315.216 126.022C314.656 124.911 312.33 124.489 311.527 125.438C307.724 129.934 301.24 133.277 292.501 133.277C279.058 133.277 268.277 126.048 268.277 114.126C268.277 100.682 278.297 96.7508 293.769 93.707L311.935 90.2183C312.505 90.1088 312.918 89.6062 312.894 89.0258C312.484 78.9338 307.666 74.1757 298.208 74.1757C290.81 74.1757 285.847 77.7713 283.764 84.6297C283.596 85.182 283.079 85.5638 282.503 85.5275L270.784 84.7884ZM282.482 113.872C282.482 118.692 286.667 122.75 295.418 122.75C305.437 122.75 313.174 115.521 313.174 101.063C313.174 100.732 312.875 100.482 312.55 100.54L298.969 102.965C289.838 104.614 282.482 105.375 282.482 113.872Z" fill="#F9F9F9"/>
<path d="M231.533 41.7083C252.206 41.7083 264.381 52.2348 264.381 69.7369C264.381 87.4926 252.206 98.146 231.533 98.146H213.075C212.412 98.146 211.875 98.6833 211.875 99.346V130.555C211.875 131.218 211.338 131.755 210.675 131.755H199.124C198.462 131.755 197.924 131.218 197.924 130.555V42.9082C197.924 42.2455 198.462 41.7083 199.124 41.7083H231.533ZM211.875 84.2634C211.875 84.9261 212.412 85.4634 213.075 85.4634H231.153C243.582 85.4634 249.923 80.1367 249.923 69.7369C249.923 59.5908 243.582 54.3909 231.153 54.3909H213.075C212.412 54.3909 211.875 54.9282 211.875 55.5909V84.2634Z" fill="#F9F9F9"/>
<g clip-path="url(#clip0_3_22)">
<mask id="mask0_3_22" style="mask-type:luminance" maskUnits="userSpaceOnUse" x="0" y="0" width="175" height="175">
<path d="M172.416 0H2C0.895431 0 0 0.895436 0 2.00001V172.416C0 173.521 0.895436 174.416 2.00001 174.416H172.416C173.521 174.416 174.416 173.521 174.416 172.416V2C174.416 0.895431 173.521 0 172.416 0Z" fill="white"/>
</mask>
<g mask="url(#mask0_3_22)">
<path d="M36.7615 22.6377V21.0516C36.7615 19.9471 37.6569 19.0516 38.7615 19.0516H172.416C173.52 19.0516 174.416 19.9471 174.416 21.0516V111.621C174.416 112.097 174.239 112.566 173.927 112.926C135.665 157.048 77.0858 145.411 54.9764 111.516C53.8062 109.722 56.0648 107.899 57.8549 109.075C84.6419 126.673 111.605 113.048 125.666 91.3321C131.189 80.8341 136.891 46.8799 82.55 31.1864C78.2925 29.957 74.3086 28.5639 38.5682 24.6292C37.5538 24.5175 36.7615 23.6582 36.7615 22.6377Z" fill="#F9F9F9"/>
<path d="M137.654 151.873V153.459C137.654 154.564 136.759 155.459 135.654 155.459H2.00005C0.895477 155.459 4.57764e-05 154.564 4.57764e-05 153.459V62.89C4.57764e-05 62.4138 0.176315 61.9446 0.488281 61.5849C38.7503 17.4624 97.33 29.0997 119.439 62.9946C120.61 64.7886 118.351 66.6118 116.561 65.4358C89.7739 47.8378 62.8103 61.4627 48.7496 83.1785C43.2265 93.6765 37.5252 127.631 91.8658 143.324C96.1233 144.554 100.107 145.947 135.848 149.881C136.862 149.993 137.654 150.852 137.654 151.873Z" fill="#F9F9F9"/>
</g>
</g>
<defs>
<clipPath id="clip0_3_22">
<rect width="174.416" height="174.416" rx="2" fill="white"/>
</clipPath>
</defs>
</svg>
